<svg id="svg" version="1.1" width="400" height="400" viewBox="0 0 400 400" xmlns="http://www.w3.org/2000/svg" xmlns:xlink="http://www.w3.org/1999/xlink" style="display: block;"><g id="svgg"><path id="path0" d="M0.000 200.000 L 0.000 400.000 200.000 400.000 L 400.000 400.000 400.000 200.000 L 400.000 0.000 200.000 0.000 L 0.000 0.000 0.000 200.000 M236.985 103.368 C 238.328 103.929,239.191 105.635,239.198 107.737 C 239.203 109.564,237.465 116.724,236.725 117.921 C 235.764 119.477,235.420 120.805,234.593 126.159 C 234.257 128.337,233.719 130.677,233.397 131.359 C 233.076 132.042,232.351 134.653,231.787 137.163 C 231.223 139.672,230.580 142.064,230.358 142.478 C 230.137 142.892,229.693 144.603,229.372 146.281 C 228.790 149.323,228.454 150.064,227.141 151.200 C 226.606 151.663,226.300 153.169,225.801 157.800 C 225.270 162.715,224.974 164.106,224.165 165.492 C 223.475 166.671,222.985 168.488,222.546 171.492 C 222.199 173.861,221.651 176.520,221.326 177.400 C 219.652 181.944,216.803 193.037,216.795 195.042 C 216.789 196.452,215.935 199.634,214.981 201.800 C 214.593 202.680,213.964 205.235,213.582 207.478 C 213.142 210.064,212.440 212.479,211.662 214.078 C 210.772 215.910,210.312 217.639,209.983 220.400 C 209.734 222.490,209.108 225.280,208.591 226.600 C 208.075 227.920,207.294 230.530,206.856 232.400 C 206.418 234.270,205.842 236.340,205.577 237.000 C 205.311 237.660,204.771 240.074,204.377 242.365 C 203.894 245.169,203.387 246.868,202.826 247.565 C 201.559 249.139,201.222 250.189,200.974 253.325 C 200.655 257.367,200.022 260.066,199.174 261.001 C 198.679 261.546,198.175 263.462,197.595 267.001 C 197.126 269.860,196.474 273.046,196.146 274.080 C 195.818 275.114,195.219 277.274,194.815 278.880 C 193.202 285.302,191.165 290.398,189.964 291.019 C 187.914 292.079,160.837 291.859,159.454 290.771 C 157.740 289.423,157.896 284.437,159.772 280.569 C 160.859 278.328,161.237 276.903,161.587 273.714 C 162.106 268.998,162.462 267.599,163.525 266.102 C 164.338 264.954,164.980 262.291,165.429 258.200 C 165.574 256.880,166.128 254.540,166.660 253.000 C 167.193 251.460,167.915 248.940,168.265 247.400 C 168.614 245.860,169.254 243.700,169.685 242.600 C 170.117 241.500,170.718 239.193,171.021 237.473 C 171.348 235.617,172.044 233.504,172.734 232.273 C 173.696 230.558,174.011 229.271,174.556 224.818 C 175.078 220.552,175.384 219.256,176.029 218.570 C 176.597 217.964,177.077 216.394,177.623 213.352 C 178.052 210.958,178.758 207.740,179.191 206.200 C 180.413 201.860,182.864 192.065,183.395 189.400 C 183.985 186.442,184.280 185.480,185.284 183.242 C 185.718 182.275,186.321 179.594,186.624 177.285 C 187.207 172.845,187.671 171.075,188.847 168.800 C 189.245 168.030,189.856 165.690,190.204 163.600 C 190.552 161.510,191.269 158.522,191.797 156.960 C 192.324 155.398,193.147 152.518,193.626 150.560 C 194.104 148.602,194.670 146.667,194.884 146.259 C 195.097 145.852,195.441 144.322,195.648 142.859 C 196.198 138.967,196.703 137.377,197.799 136.074 C 198.624 135.093,198.876 134.103,199.407 129.755 C 199.852 126.109,200.306 124.073,200.959 122.800 C 202.075 120.622,202.208 120.097,202.990 114.780 C 204.071 107.437,205.558 104.285,208.347 103.426 C 211.047 102.595,235.018 102.546,236.985 103.368 M262.153 126.361 C 262.839 126.780,264.147 127.343,265.059 127.612 C 265.972 127.882,267.142 128.484,267.659 128.951 C 268.177 129.418,269.410 130.322,270.400 130.961 C 271.390 131.599,272.344 132.364,272.520 132.661 C 272.696 132.957,273.075 133.200,273.362 133.200 C 273.650 133.200,274.676 133.800,275.642 134.533 C 276.609 135.265,278.300 136.381,279.400 137.013 C 280.500 137.644,281.545 138.395,281.721 138.683 C 281.898 138.970,282.754 139.569,283.624 140.012 C 284.493 140.456,285.427 141.175,285.699 141.609 C 285.970 142.044,286.346 142.400,286.534 142.400 C 287.004 142.400,292.771 146.494,294.000 147.701 C 294.550 148.240,295.765 149.072,296.700 149.549 C 297.635 150.026,298.400 150.590,298.400 150.802 C 298.400 151.015,299.446 151.716,300.724 152.362 C 302.002 153.007,303.296 153.833,303.599 154.199 C 303.902 154.564,304.982 155.284,306.000 155.800 C 307.018 156.316,308.084 157.019,308.369 157.363 C 308.654 157.706,309.697 158.392,310.685 158.885 C 311.674 159.379,312.692 160.082,312.948 160.447 C 313.204 160.812,314.088 161.393,314.912 161.738 C 315.737 162.082,316.521 162.650,316.655 162.999 C 316.789 163.349,318.542 164.690,320.550 165.980 C 322.557 167.269,324.750 168.882,325.422 169.562 C 326.094 170.243,326.863 170.800,327.131 170.800 C 327.399 170.800,328.390 171.512,329.334 172.382 C 330.279 173.253,331.898 174.328,332.934 174.772 C 333.970 175.216,334.916 175.837,335.037 176.153 C 335.158 176.468,335.830 176.956,336.529 177.235 C 337.228 177.515,338.430 178.265,339.200 178.901 C 342.213 181.393,345.367 183.600,345.913 183.600 C 346.785 183.600,350.314 187.337,350.679 188.646 C 350.855 189.281,351.000 194.300,351.000 199.800 C 351.000 211.280,350.820 212.261,348.506 213.364 C 347.693 213.752,346.392 214.570,345.614 215.181 C 344.836 215.793,343.750 216.428,343.200 216.593 C 342.650 216.757,341.840 217.211,341.400 217.602 C 340.960 217.992,339.610 218.806,338.400 219.410 C 337.190 220.013,335.691 220.933,335.069 221.454 C 334.447 221.974,333.749 222.400,333.518 222.400 C 333.286 222.400,332.034 223.126,330.734 224.013 C 329.435 224.900,327.833 225.733,327.176 225.865 C 326.501 226.000,325.623 226.606,325.159 227.258 C 324.707 227.893,323.766 228.704,323.068 229.061 C 322.371 229.418,321.170 230.201,320.400 230.801 C 319.630 231.402,318.550 232.032,318.000 232.201 C 317.450 232.370,316.430 233.005,315.734 233.612 C 315.038 234.219,313.778 234.936,312.934 235.205 C 312.090 235.474,310.860 236.194,310.200 236.804 C 308.752 238.144,303.220 241.600,302.524 241.600 C 302.251 241.600,301.437 242.107,300.714 242.727 C 299.991 243.347,298.562 244.240,297.537 244.712 C 296.513 245.183,295.182 246.026,294.579 246.585 C 293.976 247.143,293.256 247.600,292.979 247.600 C 292.702 247.600,291.726 248.227,290.809 248.992 C 289.893 249.758,288.392 250.587,287.474 250.834 C 286.556 251.081,285.139 251.884,284.326 252.619 C 283.513 253.354,282.329 254.223,281.695 254.551 C 281.061 254.879,280.301 255.438,280.006 255.792 C 279.712 256.147,278.510 256.892,277.335 257.448 C 276.161 258.004,275.200 258.592,275.200 258.755 C 275.200 258.919,274.165 259.473,272.900 259.987 C 271.635 260.501,270.240 261.343,269.800 261.859 C 267.142 264.975,261.447 266.893,259.562 265.307 L 258.368 264.302 258.484 247.164 L 258.600 230.027 260.783 227.817 C 262.416 226.163,263.642 225.348,265.649 224.581 C 267.124 224.018,268.434 223.288,268.560 222.960 C 268.686 222.632,269.962 221.814,271.395 221.144 C 272.828 220.473,274.000 219.778,274.000 219.598 C 274.000 219.418,274.855 218.865,275.900 218.367 C 276.945 217.870,278.537 216.964,279.439 216.355 C 280.340 215.745,281.531 215.132,282.086 214.993 C 282.640 214.854,283.476 214.223,283.943 213.592 C 284.524 212.806,285.519 212.224,287.096 211.747 C 288.363 211.364,289.760 210.745,290.200 210.372 C 291.243 209.487,293.408 208.400,294.125 208.400 C 294.436 208.400,295.369 207.860,296.200 207.200 C 297.031 206.540,297.880 206.000,298.087 206.000 C 298.295 206.000,299.395 205.383,300.532 204.628 C 301.669 203.874,303.410 202.878,304.400 202.417 C 305.390 201.955,307.096 200.954,308.191 200.192 C 309.286 199.430,310.356 198.748,310.570 198.677 C 310.784 198.605,310.563 197.991,310.080 197.312 C 309.596 196.632,309.200 195.899,309.200 195.682 C 309.200 195.465,308.345 194.887,307.300 194.397 C 306.255 193.907,304.950 193.192,304.400 192.809 C 303.850 192.425,302.728 191.893,301.906 191.627 C 301.085 191.360,300.081 190.721,299.676 190.205 C 299.271 189.690,298.233 188.975,297.369 188.616 C 296.506 188.257,295.170 187.460,294.400 186.844 C 293.630 186.228,292.447 185.438,291.771 185.088 C 291.095 184.739,290.312 184.176,290.031 183.838 C 289.750 183.499,288.567 182.786,287.401 182.252 C 286.235 181.718,284.913 180.913,284.462 180.462 C 284.011 180.011,283.109 179.367,282.457 179.029 C 281.804 178.692,280.940 178.005,280.535 177.504 C 280.131 177.002,278.998 176.234,278.017 175.798 C 277.037 175.361,275.706 174.521,275.060 173.931 C 274.414 173.341,273.460 172.751,272.940 172.621 C 272.017 172.389,267.972 169.869,265.236 167.821 C 264.485 167.259,263.578 166.800,263.219 166.800 C 262.363 166.800,259.364 163.711,258.823 162.274 C 258.550 161.548,258.400 155.189,258.400 144.356 L 258.400 127.564 259.382 126.582 C 260.561 125.402,260.579 125.401,262.153 126.361 M134.164 128.180 C 135.269 130.510,135.316 161.073,134.218 163.600 C 133.413 165.452,132.201 166.763,131.272 166.787 C 130.688 166.801,125.594 169.820,123.083 171.638 C 122.202 172.277,121.265 172.800,121.002 172.800 C 120.739 172.800,120.181 173.185,119.762 173.656 C 119.343 174.127,117.959 175.008,116.688 175.614 C 115.416 176.220,113.906 177.185,113.333 177.758 C 112.760 178.331,112.046 178.800,111.747 178.800 C 111.447 178.800,110.498 179.437,109.637 180.215 C 107.952 181.736,105.995 182.930,102.200 184.748 C 100.880 185.380,99.350 186.388,98.800 186.988 C 98.250 187.587,97.158 188.407,96.373 188.810 C 95.589 189.212,94.710 189.827,94.420 190.175 C 94.131 190.524,93.153 191.163,92.247 191.596 C 87.395 193.914,85.081 195.477,84.139 197.072 L 83.173 198.708 85.353 199.939 C 86.553 200.616,87.646 201.352,87.784 201.574 C 87.921 201.796,88.790 202.182,89.713 202.430 C 90.637 202.679,91.924 203.269,92.574 203.741 C 94.249 204.958,97.762 206.951,100.800 208.407 C 102.230 209.092,103.760 209.979,104.200 210.377 C 104.640 210.776,105.675 211.318,106.500 211.582 C 107.326 211.846,108.501 212.562,109.112 213.173 C 109.722 213.784,111.117 214.738,112.211 215.294 C 116.862 217.656,119.039 218.883,119.795 219.570 C 120.238 219.972,121.306 220.528,122.168 220.804 C 123.031 221.081,124.399 221.982,125.208 222.808 C 126.408 224.032,127.074 224.363,128.831 224.604 C 131.213 224.932,133.077 226.486,134.346 229.200 C 135.381 231.415,135.127 262.719,134.057 264.788 C 132.893 267.037,130.248 267.052,127.926 264.822 C 126.998 263.930,126.009 263.200,125.729 263.200 C 125.448 263.200,124.913 262.734,124.540 262.164 C 124.167 261.595,122.887 260.698,121.697 260.171 C 120.506 259.645,118.994 258.761,118.335 258.207 C 117.677 257.653,116.927 257.200,116.668 257.200 C 116.409 257.200,115.362 256.606,114.340 255.879 C 113.318 255.153,111.765 254.235,110.887 253.839 C 110.010 253.444,109.074 252.711,108.806 252.211 C 108.539 251.712,107.654 251.103,106.841 250.860 C 106.028 250.616,104.746 249.866,103.993 249.194 C 103.240 248.521,102.168 247.864,101.612 247.733 C 101.055 247.602,99.993 247.043,99.251 246.490 C 98.509 245.937,97.079 245.047,96.073 244.512 C 95.066 243.977,93.725 243.103,93.091 242.570 C 92.457 242.036,91.628 241.600,91.247 241.600 C 90.867 241.600,89.408 240.792,88.006 239.804 C 86.603 238.816,85.155 237.913,84.788 237.796 C 84.421 237.680,83.938 237.182,83.714 236.689 C 83.444 236.097,82.687 235.629,81.475 235.305 C 80.469 235.035,79.026 234.272,78.270 233.608 C 77.513 232.943,76.707 232.400,76.478 232.400 C 76.249 232.400,75.282 231.807,74.331 231.082 C 73.379 230.357,71.760 229.358,70.733 228.862 C 69.706 228.366,68.577 227.520,68.224 226.980 C 67.871 226.441,67.342 226.000,67.050 226.000 C 66.758 226.000,65.285 225.190,63.778 224.200 C 62.271 223.210,60.818 222.400,60.549 222.400 C 60.281 222.400,59.553 221.974,58.931 221.454 C 58.309 220.933,56.900 220.053,55.800 219.497 C 54.700 218.941,53.457 218.107,53.038 217.643 C 52.619 217.179,51.958 216.800,51.569 216.800 C 51.180 216.800,50.082 216.215,49.131 215.500 C 48.179 214.785,46.715 213.840,45.878 213.400 C 42.123 211.427,41.632 209.747,41.572 198.677 L 41.525 189.953 42.568 188.377 C 43.142 187.509,43.753 186.800,43.925 186.800 C 44.098 186.800,44.988 186.080,45.904 185.200 C 46.820 184.320,47.821 183.600,48.130 183.600 C 48.438 183.600,49.313 183.105,50.075 182.500 C 50.837 181.895,52.166 181.040,53.030 180.600 C 53.893 180.160,54.839 179.479,55.132 179.087 C 55.424 178.695,56.445 178.007,57.400 177.558 C 58.355 177.109,59.232 176.493,59.349 176.189 C 59.466 175.885,60.273 175.273,61.144 174.829 C 62.015 174.384,63.546 173.341,64.548 172.510 C 67.275 170.248,69.048 168.973,72.800 166.576 C 74.670 165.382,76.740 163.864,77.400 163.202 C 78.060 162.541,78.804 161.999,79.054 162.000 C 79.304 162.000,80.492 161.190,81.695 160.200 C 82.897 159.210,84.071 158.400,84.303 158.400 C 84.535 158.400,85.478 157.770,86.400 157.000 C 87.322 156.230,88.214 155.600,88.383 155.600 C 88.552 155.600,89.356 155.070,90.171 154.423 C 90.985 153.776,92.495 152.844,93.526 152.352 C 94.557 151.860,95.545 151.217,95.722 150.924 C 95.900 150.631,96.935 149.940,98.022 149.389 C 99.110 148.837,100.000 148.224,100.000 148.026 C 100.000 147.633,106.043 142.912,107.031 142.533 C 107.365 142.404,108.156 141.782,108.789 141.150 C 109.421 140.517,110.182 140.000,110.480 140.000 C 110.778 140.000,111.619 139.454,112.350 138.787 C 113.080 138.120,114.560 137.127,115.639 136.580 C 116.717 136.034,117.600 135.443,117.600 135.267 C 117.600 135.091,118.365 134.518,119.300 133.993 C 120.235 133.468,122.053 132.220,123.341 131.219 C 128.164 127.470,128.951 127.015,131.000 126.786 C 133.444 126.513,133.354 126.474,134.164 128.180 " stroke="none" fill="#f47b23" fill-rule="evenodd"></path><path id="path1" d="M229.200 105.674 C 227.330 105.875,222.441 105.932,218.336 105.801 L 210.871 105.564 209.282 107.082 C 207.890 108.412,207.610 108.997,207.022 111.800 C 206.653 113.560,205.922 116.260,205.397 117.800 C 204.872 119.340,204.168 122.112,203.832 123.960 C 203.496 125.807,202.777 128.170,202.233 129.210 C 201.592 130.435,200.964 132.822,200.450 135.988 C 200.009 138.704,199.392 141.169,199.061 141.538 C 198.735 141.902,198.253 143.370,197.992 144.800 C 196.935 150.582,196.283 153.450,195.809 154.400 C 195.535 154.950,195.022 156.856,194.670 158.636 C 194.317 160.415,193.579 163.119,193.029 164.643 C 192.480 166.167,191.852 168.941,191.635 170.807 C 191.418 172.673,190.796 175.494,190.252 177.075 C 189.709 178.657,188.887 181.807,188.426 184.075 C 187.965 186.344,187.154 189.100,186.623 190.200 C 186.092 191.300,185.454 193.280,185.206 194.600 C 183.582 203.228,182.044 209.849,180.744 213.800 C 180.310 215.120,179.505 217.820,178.956 219.800 C 178.407 221.780,177.585 223.917,177.130 224.549 C 176.511 225.410,176.128 227.069,175.605 231.161 C 175.152 234.702,174.620 237.185,174.091 238.221 C 173.643 239.101,172.877 241.706,172.389 244.010 C 171.902 246.315,171.269 248.773,170.983 249.472 C 170.698 250.172,170.160 252.233,169.790 254.051 C 169.419 255.870,168.676 258.704,168.139 260.348 C 167.602 261.993,166.993 264.703,166.785 266.369 C 166.577 268.036,165.876 271.020,165.228 273.000 C 164.579 274.980,163.662 278.747,163.188 281.371 L 162.328 286.143 163.243 286.832 C 165.201 288.310,184.877 288.437,187.800 286.992 C 189.573 286.114,189.478 286.390,193.412 270.862 C 194.156 267.927,194.930 265.317,195.133 265.062 C 195.336 264.808,195.706 263.400,195.957 261.934 C 196.480 258.869,197.382 256.117,198.157 255.220 C 198.847 254.421,199.099 253.315,199.802 247.986 C 200.139 245.426,200.714 242.953,201.185 242.030 C 201.628 241.161,202.273 238.695,202.618 236.550 C 202.963 234.405,203.601 231.649,204.035 230.425 C 204.469 229.201,205.260 226.490,205.794 224.400 C 206.327 222.310,207.038 219.825,207.372 218.877 C 207.707 217.929,208.157 215.753,208.371 214.041 C 208.586 212.328,209.293 209.324,209.942 207.364 C 210.592 205.404,211.523 201.820,212.011 199.400 C 212.499 196.980,213.305 194.010,213.802 192.800 C 214.299 191.590,215.000 188.800,215.360 186.600 C 215.720 184.400,216.532 181.070,217.165 179.200 C 219.571 172.089,220.478 168.869,221.206 164.847 C 221.620 162.563,222.418 159.773,222.979 158.647 C 223.540 157.521,224.179 155.294,224.399 153.697 C 224.960 149.618,225.433 147.680,226.401 145.490 C 226.864 144.445,227.514 142.032,227.846 140.127 C 228.179 138.223,228.723 135.930,229.055 135.032 C 229.387 134.134,230.014 131.521,230.447 129.225 C 230.880 126.928,231.664 123.958,232.189 122.625 C 232.714 121.291,233.333 118.595,233.565 116.633 C 233.856 114.177,234.363 112.263,235.194 110.488 C 235.857 109.070,236.400 107.849,236.400 107.774 C 236.400 107.593,232.891 105.185,232.728 105.255 C 232.658 105.284,231.070 105.473,229.200 105.674 M129.301 130.387 C 129.030 130.820,128.222 131.478,127.504 131.849 C 126.154 132.547,124.535 133.783,121.147 136.700 C 120.062 137.635,119.006 138.400,118.801 138.400 C 118.596 138.400,117.819 138.935,117.074 139.588 C 116.330 140.242,114.929 141.140,113.961 141.584 C 112.182 142.399,109.194 144.389,107.014 146.209 C 106.362 146.754,105.616 147.200,105.356 147.200 C 105.097 147.200,104.292 147.753,103.568 148.430 C 102.844 149.106,101.483 150.069,100.543 150.569 C 99.603 151.069,98.326 152.001,97.704 152.639 C 97.082 153.278,96.039 154.112,95.387 154.494 C 94.734 154.875,92.680 156.263,90.822 157.577 C 88.964 158.892,86.939 160.177,86.322 160.432 C 85.705 160.688,85.200 161.049,85.200 161.234 C 85.200 161.419,84.075 162.327,82.700 163.252 C 81.325 164.177,79.691 165.354,79.069 165.867 C 78.447 166.380,77.613 166.800,77.215 166.800 C 76.817 166.800,76.199 167.248,75.840 167.795 C 75.482 168.342,74.516 169.163,73.694 169.619 C 71.590 170.786,68.376 172.977,67.234 174.021 C 66.703 174.507,65.623 175.278,64.834 175.734 C 64.045 176.190,63.266 176.779,63.102 177.042 C 62.938 177.306,61.948 178.018,60.902 178.625 C 59.856 179.232,58.858 179.966,58.684 180.256 C 58.511 180.547,57.521 181.272,56.484 181.868 C 55.448 182.463,54.091 183.367,53.469 183.875 C 52.847 184.384,52.093 184.800,51.792 184.800 C 51.040 184.800,46.486 189.074,45.777 190.445 C 45.329 191.311,45.200 193.404,45.200 199.796 L 45.200 208.031 46.740 209.634 C 47.587 210.515,48.982 211.607,49.840 212.061 C 50.698 212.514,51.760 213.204,52.200 213.595 C 52.640 213.986,53.630 214.622,54.400 215.008 C 55.170 215.394,56.456 216.225,57.258 216.855 C 58.059 217.485,58.847 218.000,59.009 218.000 C 59.171 218.000,60.323 218.696,61.569 219.547 C 62.816 220.398,64.228 221.218,64.707 221.371 C 65.187 221.523,65.916 222.076,66.328 222.600 C 66.741 223.124,68.095 224.034,69.339 224.623 C 70.582 225.212,71.600 225.855,71.600 226.052 C 71.600 226.249,72.583 226.876,73.783 227.444 C 74.984 228.013,76.169 228.721,76.416 229.019 C 76.663 229.317,77.705 229.956,78.732 230.440 C 79.760 230.924,81.140 231.717,81.800 232.202 C 82.460 232.688,83.450 233.227,84.000 233.401 C 85.282 233.806,87.654 235.301,88.355 236.146 C 88.654 236.506,89.140 236.800,89.435 236.800 C 89.730 236.800,90.563 237.309,91.286 237.931 C 92.009 238.553,93.647 239.678,94.926 240.431 C 96.206 241.184,98.186 242.378,99.326 243.085 C 100.467 243.792,102.277 244.872,103.348 245.485 C 104.419 246.098,106.095 247.275,107.072 248.100 C 108.049 248.925,109.088 249.600,109.379 249.600 C 109.671 249.600,110.826 250.230,111.945 251.000 C 113.065 251.770,114.130 252.400,114.312 252.400 C 114.494 252.400,115.534 252.976,116.622 253.680 C 117.710 254.383,119.410 255.348,120.400 255.823 C 121.390 256.298,122.543 257.072,122.962 257.543 C 123.381 258.014,123.978 258.400,124.289 258.400 C 124.777 258.400,127.422 260.138,128.000 260.838 C 128.687 261.671,130.022 261.993,130.791 261.513 C 131.677 260.959,131.738 260.555,131.797 254.800 C 131.818 252.710,131.987 247.400,132.173 243.000 C 132.682 230.891,131.465 227.766,125.415 225.639 C 124.123 225.185,122.686 224.456,122.222 224.020 C 121.757 223.584,120.580 222.946,119.606 222.602 C 118.631 222.258,117.001 221.442,115.982 220.788 C 114.963 220.135,113.939 219.600,113.705 219.600 C 113.472 219.600,112.344 218.970,111.200 218.200 C 110.056 217.430,108.976 216.800,108.800 216.800 C 108.624 216.800,107.517 216.151,106.340 215.358 C 105.163 214.565,103.522 213.644,102.693 213.312 C 101.863 212.979,100.860 212.294,100.463 211.790 C 100.066 211.285,98.585 210.323,97.171 209.652 C 95.757 208.981,93.520 207.798,92.200 207.025 C 90.880 206.251,88.514 204.997,86.942 204.238 C 85.369 203.479,83.962 202.663,83.815 202.424 C 83.668 202.186,82.589 201.378,81.418 200.629 C 78.667 198.869,78.677 198.895,79.826 196.574 C 80.795 194.615,83.385 192.680,88.348 190.203 C 89.089 189.833,90.550 188.916,91.595 188.165 C 92.641 187.414,93.699 186.800,93.947 186.800 C 94.195 186.800,95.094 186.171,95.945 185.402 C 96.796 184.633,98.102 183.748,98.846 183.436 C 100.602 182.699,104.721 180.242,106.000 179.168 C 107.708 177.734,112.327 174.905,113.399 174.636 C 113.961 174.495,115.091 173.780,115.910 173.047 C 117.489 171.635,119.778 170.044,122.596 168.400 C 123.538 167.850,124.774 166.935,125.342 166.367 C 125.910 165.799,127.103 165.116,127.994 164.849 C 131.636 163.758,132.617 160.348,132.154 150.400 C 131.965 146.330,131.808 140.570,131.805 137.600 C 131.800 132.503,131.745 132.127,130.825 130.900 C 129.671 129.361,129.894 129.437,129.301 130.387 M263.226 131.580 C 262.353 132.239,262.349 132.303,262.336 146.343 L 262.323 160.444 263.365 162.019 C 263.938 162.885,265.170 164.080,266.103 164.675 C 267.037 165.270,268.211 166.119,268.714 166.561 C 269.217 167.004,270.406 167.824,271.355 168.383 C 274.848 170.440,276.926 171.831,278.362 173.072 C 279.172 173.771,280.291 174.458,280.850 174.598 C 281.408 174.738,282.350 175.302,282.942 175.852 C 283.535 176.401,285.095 177.384,286.410 178.036 C 287.724 178.689,288.800 179.397,288.800 179.611 C 288.800 179.825,289.046 180.000,289.348 180.000 C 289.649 180.000,290.774 180.688,291.848 181.528 C 292.921 182.369,294.620 183.434,295.622 183.894 C 296.625 184.354,297.688 185.024,297.984 185.381 C 298.281 185.739,299.383 186.401,300.433 186.852 C 301.484 187.304,302.671 188.038,303.071 188.484 C 303.472 188.929,304.753 189.716,305.919 190.233 C 307.084 190.750,308.700 191.719,309.510 192.386 C 310.320 193.054,311.180 193.600,311.421 193.600 C 312.058 193.600,313.341 195.144,314.329 197.102 L 315.189 198.803 313.534 200.002 C 312.624 200.661,311.646 201.200,311.360 201.200 C 311.074 201.200,310.678 201.488,310.481 201.841 C 310.092 202.536,306.401 204.862,302.634 206.787 C 301.333 207.451,299.983 208.239,299.634 208.538 C 299.285 208.837,298.190 209.513,297.200 210.041 C 296.210 210.568,295.133 211.254,294.806 211.565 C 294.480 211.876,293.220 212.561,292.006 213.089 C 290.793 213.617,289.530 214.216,289.200 214.421 C 287.436 215.515,284.752 216.800,284.229 216.800 C 283.900 216.800,283.309 217.144,282.916 217.564 C 282.246 218.278,279.269 219.974,274.600 222.300 C 273.500 222.848,272.240 223.605,271.800 223.982 C 271.360 224.359,270.100 225.045,269.000 225.506 C 262.787 228.110,262.337 229.512,262.344 246.207 C 262.352 262.120,262.531 262.985,265.355 260.764 C 265.885 260.347,268.632 258.806,271.459 257.340 C 274.287 255.874,277.109 254.253,277.731 253.738 C 278.353 253.222,279.021 252.800,279.217 252.800 C 279.412 252.800,280.175 252.270,280.913 251.623 C 281.650 250.976,283.231 250.061,284.426 249.591 C 285.622 249.120,286.737 248.492,286.905 248.194 C 287.073 247.896,288.198 247.088,289.405 246.397 C 290.612 245.706,291.600 244.991,291.600 244.806 C 291.600 244.622,292.475 244.036,293.544 243.503 C 294.614 242.970,296.036 242.144,296.706 241.667 C 297.376 241.190,298.059 240.800,298.225 240.800 C 298.391 240.800,299.452 240.086,300.583 239.213 C 301.715 238.340,303.261 237.363,304.020 237.043 C 304.779 236.722,306.378 235.726,307.572 234.830 C 308.767 233.933,310.050 233.200,310.423 233.200 C 310.797 233.200,311.343 232.910,311.637 232.555 C 311.932 232.200,313.169 231.460,314.386 230.911 C 315.604 230.361,316.962 229.580,317.405 229.175 C 317.848 228.770,318.838 228.174,319.605 227.851 C 320.372 227.528,321.607 226.719,322.348 226.053 C 323.090 225.387,324.222 224.727,324.865 224.586 C 325.507 224.445,326.847 223.625,327.841 222.765 C 328.835 221.904,329.793 221.200,329.969 221.200 C 330.146 221.200,330.990 220.642,331.845 219.960 C 332.700 219.277,334.210 218.279,335.200 217.740 C 337.835 216.307,340.864 214.381,342.811 212.900 C 343.751 212.185,344.737 211.600,345.002 211.600 C 345.266 211.600,345.959 211.159,346.539 210.621 C 347.120 210.083,347.894 209.475,348.258 209.272 C 349.235 208.725,349.630 205.043,349.381 198.800 C 349.027 189.901,349.193 190.428,345.881 187.724 C 343.084 185.440,342.562 185.048,339.600 183.010 C 338.830 182.481,337.480 181.487,336.600 180.803 C 335.720 180.118,333.852 178.668,332.449 177.579 C 331.046 176.491,329.665 175.600,329.380 175.600 C 329.095 175.600,328.353 175.103,327.731 174.495 C 327.109 173.886,326.150 173.189,325.600 172.945 C 325.050 172.700,323.615 171.758,322.411 170.850 C 321.207 169.943,320.025 169.200,319.786 169.200 C 319.546 169.200,318.832 168.660,318.200 168.000 C 317.568 167.340,316.855 166.800,316.617 166.800 C 316.171 166.800,311.599 163.670,309.320 161.804 C 308.616 161.228,306.546 159.790,304.720 158.609 C 302.894 157.427,300.770 155.932,300.000 155.285 C 299.230 154.638,298.024 153.815,297.320 153.455 C 296.616 153.095,295.896 152.559,295.720 152.264 C 295.544 151.969,294.560 151.241,293.534 150.646 C 292.508 150.051,291.439 149.288,291.159 148.951 C 290.879 148.613,289.794 147.904,288.748 147.373 C 287.701 146.843,286.700 146.162,286.522 145.859 C 286.345 145.556,285.660 145.032,284.999 144.695 C 284.339 144.358,283.439 143.684,282.999 143.198 C 282.560 142.712,281.480 141.950,280.600 141.504 C 279.720 141.057,278.409 140.177,277.686 139.546 C 276.963 138.916,276.153 138.398,275.886 138.396 C 275.619 138.393,274.324 137.583,273.008 136.596 C 271.692 135.608,270.491 134.800,270.339 134.800 C 270.186 134.800,269.543 134.364,268.909 133.830 C 266.388 131.709,264.203 130.844,263.226 131.580 " stroke="none" fill="#fcf6f3" fill-rule="evenodd"></path><path id="path2" d="M208.347 103.426 C 205.558 104.285,204.071 107.437,202.990 114.780 C 202.208 120.097,202.075 120.622,200.959 122.800 C 200.306 124.073,199.852 126.109,199.407 129.755 C 198.876 134.103,198.624 135.093,197.799 136.074 C 196.703 137.377,196.198 138.967,195.648 142.859 C 195.441 144.322,195.097 145.852,194.884 146.259 C 194.670 146.667,194.104 148.602,193.626 150.560 C 193.147 152.518,192.324 155.398,191.797 156.960 C 191.269 158.522,190.552 161.510,190.204 163.600 C 189.856 165.690,189.245 168.030,188.847 168.800 C 187.671 171.075,187.207 172.845,186.624 177.285 C 186.321 179.594,185.718 182.275,185.284 183.242 C 184.280 185.480,183.985 186.442,183.395 189.400 C 182.864 192.065,180.413 201.860,179.191 206.200 C 178.758 207.740,178.052 210.958,177.623 213.352 C 177.077 216.394,176.597 217.964,176.029 218.570 C 175.384 219.256,175.078 220.552,174.556 224.818 C 174.011 229.271,173.696 230.558,172.734 232.273 C 172.044 233.504,171.348 235.617,171.021 237.473 C 170.718 239.193,170.117 241.500,169.685 242.600 C 169.254 243.700,168.614 245.860,168.265 247.400 C 167.915 248.940,167.193 251.460,166.660 253.000 C 166.128 254.540,165.574 256.880,165.429 258.200 C 164.980 262.291,164.338 264.954,163.525 266.102 C 162.462 267.599,162.106 268.998,161.587 273.714 C 161.237 276.903,160.859 278.328,159.772 280.569 C 157.896 284.437,157.740 289.423,159.454 290.771 C 160.837 291.859,187.914 292.079,189.964 291.019 C 191.165 290.398,193.202 285.302,194.815 278.880 C 195.219 277.274,195.818 275.114,196.146 274.080 C 196.474 273.046,197.126 269.860,197.595 267.001 C 198.175 263.462,198.679 261.546,199.174 261.001 C 200.022 260.066,200.655 257.367,200.974 253.325 C 201.222 250.189,201.559 249.139,202.826 247.565 C 203.387 246.868,203.894 245.169,204.377 242.365 C 204.771 240.074,205.311 237.660,205.577 237.000 C 205.842 236.340,206.418 234.270,206.856 232.400 C 207.294 230.530,208.075 227.920,208.591 226.600 C 209.108 225.280,209.734 222.490,209.983 220.400 C 210.312 217.639,210.772 215.910,211.662 214.078 C 212.440 212.479,213.142 210.064,213.582 207.478 C 213.964 205.235,214.593 202.680,214.981 201.800 C 215.935 199.634,216.789 196.452,216.795 195.042 C 216.803 193.037,219.652 181.944,221.326 177.400 C 221.651 176.520,222.199 173.861,222.546 171.492 C 222.985 168.488,223.475 166.671,224.165 165.492 C 224.974 164.106,225.270 162.715,225.801 157.800 C 226.300 153.169,226.606 151.663,227.141 151.200 C 228.454 150.064,228.790 149.323,229.372 146.281 C 229.693 144.603,230.137 142.892,230.358 142.478 C 230.580 142.064,231.223 139.672,231.787 137.163 C 232.351 134.653,233.076 132.042,233.397 131.359 C 233.719 130.677,234.257 128.337,234.593 126.159 C 235.420 120.805,235.764 119.477,236.725 117.921 C 237.465 116.724,239.203 109.564,239.198 107.737 C 239.191 105.635,238.328 103.929,236.985 103.368 C 235.018 102.546,211.047 102.595,208.347 103.426 M236.220 104.605 C 238.089 105.764,238.101 109.909,236.245 113.520 C 235.940 114.114,235.206 116.850,234.615 119.600 C 234.023 122.350,232.636 128.110,231.532 132.400 C 230.428 136.690,229.091 141.973,228.561 144.140 C 228.031 146.307,227.262 148.557,226.851 149.140 C 225.861 150.547,225.689 151.194,225.239 155.209 C 225.029 157.084,224.322 160.234,223.669 162.209 C 223.017 164.184,222.179 167.330,221.809 169.200 C 221.152 172.518,219.737 177.354,217.771 183.000 C 217.235 184.540,216.797 186.303,216.798 186.917 C 216.801 188.624,215.658 193.793,214.392 197.800 C 213.766 199.780,213.045 202.570,212.789 204.000 C 212.534 205.430,211.813 208.130,211.188 210.000 C 210.562 211.870,209.672 215.380,209.208 217.800 C 208.745 220.220,207.936 223.640,207.410 225.400 C 204.942 233.658,203.975 237.257,203.386 240.366 C 203.036 242.217,202.405 244.407,201.984 245.232 C 201.069 247.026,200.461 249.579,200.018 253.491 C 199.838 255.081,199.314 257.103,198.855 257.985 C 198.395 258.866,196.930 264.045,195.600 269.494 C 194.269 274.942,192.917 280.030,192.595 280.800 C 192.274 281.570,191.820 283.091,191.586 284.181 C 190.942 287.178,189.704 289.098,188.031 289.692 C 186.551 290.217,166.099 290.301,162.532 289.797 C 159.823 289.413,159.202 286.272,160.994 282.014 C 161.541 280.715,162.254 278.009,162.579 276.000 C 162.904 273.992,163.636 270.997,164.206 269.344 C 164.777 267.692,165.681 264.148,166.215 261.470 C 166.750 258.791,167.907 253.990,168.786 250.800 C 169.666 247.610,170.926 243.020,171.586 240.601 C 172.247 238.181,173.161 235.333,173.617 234.271 C 174.074 233.210,174.688 230.510,174.983 228.271 C 175.278 226.032,175.917 223.120,176.404 221.800 C 177.957 217.589,179.950 210.725,180.817 206.600 C 181.279 204.400,182.094 201.196,182.629 199.479 C 183.163 197.763,183.600 195.758,183.600 195.025 C 183.600 193.728,184.705 189.727,186.328 185.151 C 186.767 183.914,187.349 181.484,187.622 179.751 C 187.895 178.018,188.445 175.755,188.845 174.721 C 189.244 173.688,190.118 170.268,190.785 167.121 C 191.452 163.975,192.734 158.880,193.633 155.800 C 194.532 152.720,195.701 148.165,196.230 145.677 C 196.758 143.190,197.724 139.941,198.374 138.459 C 199.123 136.752,199.718 134.473,199.995 132.244 C 200.235 130.308,200.790 127.797,201.227 126.662 C 201.664 125.528,202.937 120.910,204.055 116.400 C 206.243 107.581,206.558 106.729,208.193 105.200 L 209.263 104.200 220.931 104.000 C 233.591 103.783,234.984 103.838,236.220 104.605 M259.382 126.582 L 258.400 127.564 258.400 144.356 C 258.400 155.189,258.550 161.548,258.823 162.274 C 259.364 163.711,262.363 166.800,263.219 166.800 C 263.578 166.800,264.485 167.259,265.236 167.821 C 267.972 169.869,272.017 172.389,272.940 172.621 C 273.460 172.751,274.414 173.341,275.060 173.931 C 275.706 174.521,277.037 175.361,278.017 175.798 C 278.998 176.234,280.131 177.002,280.535 177.504 C 280.940 178.005,281.804 178.692,282.457 179.029 C 283.109 179.367,284.011 180.011,284.462 180.462 C 284.913 180.913,286.235 181.718,287.401 182.252 C 288.567 182.786,289.750 183.499,290.031 183.838 C 290.312 184.176,291.095 184.739,291.771 185.088 C 292.447 185.438,293.630 186.228,294.400 186.844 C 295.170 187.460,296.506 188.257,297.369 188.616 C 298.233 188.975,299.271 189.690,299.676 190.205 C 300.081 190.721,301.085 191.360,301.906 191.627 C 302.728 191.893,303.850 192.425,304.400 192.809 C 304.950 193.192,306.255 193.907,307.300 194.397 C 308.345 194.887,309.200 195.465,309.200 195.682 C 309.200 195.899,309.596 196.632,310.080 197.312 C 310.563 197.991,310.784 198.605,310.570 198.677 C 310.356 198.748,309.286 199.430,308.191 200.192 C 307.096 200.954,305.390 201.955,304.400 202.417 C 303.410 202.878,301.669 203.874,300.532 204.628 C 299.395 205.383,298.295 206.000,298.087 206.000 C 297.880 206.000,297.031 206.540,296.200 207.200 C 295.369 207.860,294.436 208.400,294.125 208.400 C 293.408 208.400,291.243 209.487,290.200 210.372 C 289.760 210.745,288.363 211.364,287.096 211.747 C 285.519 212.224,284.524 212.806,283.943 213.592 C 283.476 214.223,282.640 214.854,282.086 214.993 C 281.531 215.132,280.340 215.745,279.439 216.355 C 278.537 216.964,276.945 217.870,275.900 218.367 C 274.855 218.865,274.000 219.418,274.000 219.598 C 274.000 219.778,272.828 220.473,271.395 221.144 C 269.962 221.814,268.686 222.632,268.560 222.960 C 268.434 223.288,267.124 224.018,265.649 224.581 C 263.642 225.348,262.416 226.163,260.783 227.817 L 258.600 230.027 258.484 247.164 L 258.368 264.302 259.562 265.307 C 261.447 266.893,267.142 264.975,269.800 261.859 C 270.240 261.343,271.635 260.501,272.900 259.987 C 274.165 259.473,275.200 258.919,275.200 258.755 C 275.200 258.592,276.161 258.004,277.335 257.448 C 278.510 256.892,279.712 256.147,280.006 255.792 C 280.301 255.438,281.061 254.879,281.695 254.551 C 282.329 254.223,283.513 253.354,284.326 252.619 C 285.139 251.884,286.556 251.081,287.474 250.834 C 288.392 250.587,289.893 249.758,290.809 248.992 C 291.726 248.227,292.702 247.600,292.979 247.600 C 293.256 247.600,293.976 247.143,294.579 246.585 C 295.182 246.026,296.513 245.183,297.537 244.712 C 298.562 244.240,299.991 243.347,300.714 242.727 C 301.437 242.107,302.251 241.600,302.524 241.600 C 303.220 241.600,308.752 238.144,310.200 236.804 C 310.860 236.194,312.090 235.474,312.934 235.205 C 313.778 234.936,315.038 234.219,315.734 233.612 C 316.430 233.005,317.450 232.370,318.000 232.201 C 318.550 232.032,319.630 231.402,320.400 230.801 C 321.170 230.201,322.371 229.418,323.068 229.061 C 323.766 228.704,324.707 227.893,325.159 227.258 C 325.623 226.606,326.501 226.000,327.176 225.865 C 327.833 225.733,329.435 224.900,330.734 224.013 C 332.034 223.126,333.286 222.400,333.518 222.400 C 333.749 222.400,334.447 221.974,335.069 221.454 C 335.691 220.933,337.190 220.013,338.400 219.410 C 339.610 218.806,340.960 217.992,341.400 217.602 C 341.840 217.211,342.650 216.757,343.200 216.593 C 343.750 216.428,344.836 215.793,345.614 215.181 C 346.392 214.570,347.693 213.752,348.506 213.364 C 350.820 212.261,351.000 211.280,351.000 199.800 C 351.000 194.300,350.855 189.281,350.679 188.646 C 350.314 187.337,346.785 183.600,345.913 183.600 C 345.367 183.600,342.213 181.393,339.200 178.901 C 338.430 178.265,337.228 177.515,336.529 177.235 C 335.830 176.956,335.158 176.468,335.037 176.153 C 334.916 175.837,333.970 175.216,332.934 174.772 C 331.898 174.328,330.279 173.253,329.334 172.382 C 328.390 171.512,327.399 170.800,327.131 170.800 C 326.863 170.800,326.094 170.243,325.422 169.562 C 324.750 168.882,322.557 167.269,320.550 165.980 C 318.542 164.690,316.789 163.349,316.655 162.999 C 316.521 162.650,315.737 162.082,314.912 161.738 C 314.088 161.393,313.204 160.812,312.948 160.447 C 312.692 160.082,311.674 159.379,310.685 158.885 C 309.697 158.392,308.654 157.706,308.369 157.363 C 308.084 157.019,307.018 156.316,306.000 155.800 C 304.982 155.284,303.902 154.564,303.599 154.199 C 303.296 153.833,302.002 153.007,300.724 152.362 C 299.446 151.716,298.400 151.015,298.400 150.802 C 298.400 150.590,297.635 150.026,296.700 149.549 C 295.765 149.072,294.550 148.240,294.000 147.701 C 292.771 146.494,287.004 142.400,286.534 142.400 C 286.346 142.400,285.970 142.044,285.699 141.609 C 285.427 141.175,284.493 140.456,283.624 140.012 C 282.754 139.569,281.898 138.970,281.721 138.683 C 281.545 138.395,280.500 137.644,279.400 137.013 C 278.300 136.381,276.609 135.265,275.642 134.533 C 274.676 133.800,273.650 133.200,273.362 133.200 C 273.075 133.200,272.696 132.957,272.520 132.661 C 272.344 132.364,271.390 131.599,270.400 130.961 C 269.410 130.322,268.177 129.418,267.659 128.951 C 267.142 128.484,265.972 127.882,265.059 127.612 C 264.147 127.343,262.839 126.780,262.153 126.361 C 260.579 125.401,260.561 125.402,259.382 126.582 M131.000 126.786 C 128.951 127.015,128.164 127.470,123.341 131.219 C 122.053 132.220,120.235 133.468,119.300 133.993 C 118.365 134.518,117.600 135.091,117.600 135.267 C 117.600 135.443,116.717 136.034,115.639 136.580 C 114.560 137.127,113.080 138.120,112.350 138.787 C 111.619 139.454,110.778 140.000,110.480 140.000 C 110.182 140.000,109.421 140.517,108.789 141.150 C 108.156 141.782,107.365 142.404,107.031 142.533 C 106.043 142.912,100.000 147.633,100.000 148.026 C 100.000 148.224,99.110 148.837,98.022 149.389 C 96.935 149.940,95.900 150.631,95.722 150.924 C 95.545 151.217,94.557 151.860,93.526 152.352 C 92.495 152.844,90.985 153.776,90.171 154.423 C 89.356 155.070,88.552 155.600,88.383 155.600 C 88.214 155.600,87.322 156.230,86.400 157.000 C 85.478 157.770,84.535 158.400,84.303 158.400 C 84.071 158.400,82.897 159.210,81.695 160.200 C 80.492 161.190,79.304 162.000,79.054 162.000 C 78.804 161.999,78.060 162.541,77.400 163.202 C 76.740 163.864,74.670 165.382,72.800 166.576 C 69.048 168.973,67.275 170.248,64.548 172.510 C 63.546 173.341,62.015 174.384,61.144 174.829 C 60.273 175.273,59.466 175.885,59.349 176.189 C 59.232 176.493,58.355 177.109,57.400 177.558 C 56.445 178.007,55.424 178.695,55.132 179.087 C 54.839 179.479,53.893 180.160,53.030 180.600 C 52.166 181.040,50.837 181.895,50.075 182.500 C 49.313 183.105,48.438 183.600,48.130 183.600 C 47.821 183.600,46.820 184.320,45.904 185.200 C 44.988 186.080,44.098 186.800,43.925 186.800 C 43.753 186.800,43.142 187.509,42.568 188.377 L 41.525 189.953 41.572 198.677 C 41.632 209.747,42.123 211.427,45.878 213.400 C 46.715 213.840,48.179 214.785,49.131 215.500 C 50.082 216.215,51.180 216.800,51.569 216.800 C 51.958 216.800,52.619 217.179,53.038 217.643 C 53.457 218.107,54.700 218.941,55.800 219.497 C 56.900 220.053,58.309 220.933,58.931 221.454 C 59.553 221.974,60.281 222.400,60.549 222.400 C 60.818 222.400,62.271 223.210,63.778 224.200 C 65.285 225.190,66.758 226.000,67.050 226.000 C 67.342 226.000,67.871 226.441,68.224 226.980 C 68.577 227.520,69.706 228.366,70.733 228.862 C 71.760 229.358,73.379 230.357,74.331 231.082 C 75.282 231.807,76.249 232.400,76.478 232.400 C 76.707 232.400,77.513 232.943,78.270 233.608 C 79.026 234.272,80.469 235.035,81.475 235.305 C 82.687 235.629,83.444 236.097,83.714 236.689 C 83.938 237.182,84.421 237.680,84.788 237.796 C 85.155 237.913,86.603 238.816,88.006 239.804 C 89.408 240.792,90.867 241.600,91.247 241.600 C 91.628 241.600,92.457 242.036,93.091 242.570 C 93.725 243.103,95.066 243.977,96.073 244.512 C 97.079 245.047,98.509 245.937,99.251 246.490 C 99.993 247.043,101.055 247.602,101.612 247.733 C 102.168 247.864,103.240 248.521,103.993 249.194 C 104.746 249.866,106.028 250.616,106.841 250.860 C 107.654 251.103,108.539 251.712,108.806 252.211 C 109.074 252.711,110.010 253.444,110.887 253.839 C 111.765 254.235,113.318 255.153,114.340 255.879 C 115.362 256.606,116.409 257.200,116.668 257.200 C 116.927 257.200,117.677 257.653,118.335 258.207 C 118.994 258.761,120.506 259.645,121.697 260.171 C 122.887 260.698,124.167 261.595,124.540 262.164 C 124.913 262.734,125.448 263.200,125.729 263.200 C 126.009 263.200,126.998 263.930,127.926 264.822 C 130.248 267.052,132.893 267.037,134.057 264.788 C 135.127 262.719,135.381 231.415,134.346 229.200 C 133.077 226.486,131.213 224.932,128.831 224.604 C 127.074 224.363,126.408 224.032,125.208 222.808 C 124.399 221.982,123.031 221.081,122.168 220.804 C 121.306 220.528,120.238 219.972,119.795 219.570 C 119.039 218.883,116.862 217.656,112.211 215.294 C 111.117 214.738,109.722 213.784,109.112 213.173 C 108.501 212.562,107.326 211.846,106.500 211.582 C 105.675 211.318,104.640 210.776,104.200 210.377 C 103.760 209.979,102.230 209.092,100.800 208.407 C 97.762 206.951,94.249 204.958,92.574 203.741 C 91.924 203.269,90.637 202.679,89.713 202.430 C 88.790 202.182,87.921 201.796,87.784 201.574 C 87.646 201.352,86.553 200.616,85.353 199.939 L 83.173 198.708 84.139 197.072 C 85.081 195.477,87.395 193.914,92.247 191.596 C 93.153 191.163,94.131 190.524,94.420 190.175 C 94.710 189.827,95.589 189.212,96.373 188.810 C 97.158 188.407,98.250 187.587,98.800 186.988 C 99.350 186.388,100.880 185.380,102.200 184.748 C 105.995 182.930,107.952 181.736,109.637 180.215 C 110.498 179.437,111.447 178.800,111.747 178.800 C 112.046 178.800,112.760 178.331,113.333 177.758 C 113.906 177.185,115.416 176.220,116.688 175.614 C 117.959 175.008,119.343 174.127,119.762 173.656 C 120.181 173.185,120.739 172.800,121.002 172.800 C 121.265 172.800,122.202 172.277,123.083 171.638 C 125.594 169.820,130.688 166.801,131.272 166.787 C 134.547 166.704,135.012 164.011,134.912 145.687 C 134.806 126.142,134.851 126.357,131.000 126.786 M132.700 129.057 C 133.406 129.498,133.598 129.982,133.589 131.309 C 133.583 132.239,133.687 138.310,133.820 144.800 C 134.188 162.795,133.503 165.379,128.024 166.663 C 127.461 166.795,126.550 167.302,126.000 167.790 C 125.450 168.278,123.650 169.559,122.000 170.638 C 120.350 171.717,118.221 173.185,117.269 173.900 C 116.318 174.615,115.328 175.202,115.069 175.203 C 114.811 175.205,113.160 176.207,111.400 177.430 C 105.827 181.303,103.064 183.065,100.800 184.191 C 99.590 184.793,98.150 185.694,97.600 186.194 C 96.515 187.178,91.617 190.267,86.289 193.327 C 83.481 194.939,82.794 195.539,82.083 197.003 L 81.234 198.752 83.246 200.076 C 84.352 200.804,86.582 202.120,88.201 203.000 C 89.819 203.880,92.371 205.296,93.872 206.147 C 95.372 206.997,97.320 208.052,98.200 208.492 C 99.080 208.931,100.340 209.695,101.000 210.189 C 101.660 210.683,103.370 211.673,104.800 212.389 C 106.230 213.104,107.713 213.966,108.096 214.303 C 108.856 214.974,115.652 218.825,120.371 221.261 C 122.006 222.105,123.727 223.156,124.196 223.597 C 124.666 224.038,125.986 224.677,127.131 225.016 C 129.454 225.706,131.511 227.319,132.885 229.528 L 133.800 231.000 133.717 246.000 C 133.617 264.013,133.693 263.377,131.547 263.922 C 129.874 264.347,127.521 263.183,125.088 260.727 C 124.697 260.332,123.797 259.716,123.088 259.358 C 121.046 258.327,113.251 253.650,110.395 251.741 C 108.962 250.783,107.595 250.000,107.357 250.000 C 107.119 250.000,106.581 249.620,106.162 249.156 C 105.743 248.692,104.320 247.772,103.000 247.111 C 101.680 246.451,100.268 245.617,99.863 245.260 C 99.105 244.590,96.900 243.263,93.400 241.371 C 92.300 240.776,90.950 239.950,90.400 239.535 C 88.839 238.358,82.846 234.400,82.624 234.400 C 82.165 234.400,75.200 230.259,75.200 229.986 C 75.200 229.822,74.345 229.290,73.300 228.804 C 72.255 228.318,70.483 227.218,69.363 226.360 C 68.243 225.502,67.174 224.800,66.989 224.800 C 66.803 224.800,66.280 224.458,65.826 224.039 C 65.372 223.621,63.999 222.741,62.775 222.085 C 61.551 221.428,59.211 220.023,57.575 218.961 C 55.939 217.900,53.790 216.593,52.800 216.057 C 51.810 215.522,50.550 214.742,50.000 214.324 C 49.450 213.907,48.104 212.988,47.009 212.283 C 43.481 210.011,43.214 209.132,43.209 199.800 C 43.203 188.489,43.290 188.333,53.061 182.079 C 55.227 180.692,58.080 178.753,59.400 177.770 C 60.720 176.787,62.325 175.672,62.966 175.291 C 63.607 174.911,64.777 174.060,65.566 173.400 C 67.070 172.142,68.160 171.351,72.328 168.498 C 73.721 167.544,75.702 166.145,76.730 165.388 C 77.759 164.631,79.590 163.355,80.800 162.552 C 82.010 161.749,83.540 160.651,84.200 160.111 C 84.860 159.572,86.855 158.201,88.633 157.065 C 94.097 153.574,96.212 152.109,96.786 151.417 C 97.089 151.051,98.038 150.414,98.893 150.001 C 99.748 149.588,101.112 148.689,101.924 148.004 C 104.355 145.954,110.064 141.840,112.161 140.628 C 113.814 139.673,116.811 137.600,123.189 133.000 C 123.799 132.560,125.515 131.257,127.002 130.106 C 129.859 127.891,130.611 127.753,132.700 129.057 M267.358 130.743 C 268.875 131.764,270.495 132.819,270.958 133.087 C 271.421 133.354,272.970 134.402,274.400 135.414 C 275.830 136.427,278.546 138.278,280.435 139.528 C 283.890 141.813,289.563 145.907,291.809 147.735 C 292.473 148.276,293.733 149.127,294.609 149.626 C 295.484 150.125,296.684 150.976,297.274 151.517 C 297.865 152.058,298.704 152.703,299.138 152.950 C 299.571 153.198,302.301 155.020,305.203 157.000 C 308.105 158.980,311.407 161.230,312.542 162.000 C 313.677 162.770,316.084 164.480,317.892 165.800 C 319.700 167.120,321.948 168.698,322.889 169.307 C 325.653 171.096,328.217 172.949,328.951 173.689 C 329.328 174.068,330.392 174.741,331.318 175.185 C 332.243 175.629,333.810 176.621,334.800 177.389 C 335.790 178.156,337.284 179.283,338.121 179.892 C 338.958 180.502,340.218 181.467,340.921 182.037 C 341.624 182.607,343.010 183.544,344.000 184.118 C 344.990 184.692,346.721 186.026,347.847 187.081 L 349.894 189.000 350.160 196.818 C 350.564 208.693,350.135 210.903,347.127 212.437 C 346.215 212.902,344.457 213.974,343.218 214.819 C 341.980 215.665,340.524 216.552,339.983 216.790 C 339.443 217.029,337.650 218.111,336.000 219.195 C 334.350 220.279,332.190 221.604,331.200 222.140 C 330.210 222.675,329.066 223.483,328.659 223.934 C 328.251 224.385,327.417 224.865,326.805 224.999 C 326.194 225.133,324.998 225.837,324.147 226.563 C 323.296 227.289,321.970 228.200,321.200 228.588 C 320.430 228.976,319.440 229.603,319.000 229.980 C 318.009 230.831,314.910 232.628,312.000 234.038 C 310.790 234.624,309.387 235.500,308.883 235.983 C 308.379 236.467,306.939 237.448,305.683 238.164 C 302.602 239.920,295.247 244.352,293.964 245.225 C 288.248 249.113,286.858 249.977,285.958 250.200 C 285.384 250.342,284.060 251.165,283.014 252.029 C 281.968 252.893,280.978 253.600,280.813 253.600 C 280.648 253.600,279.722 254.228,278.756 254.996 C 277.790 255.764,276.837 256.394,276.638 256.396 C 276.439 256.398,275.719 256.818,275.038 257.328 C 274.357 257.839,272.990 258.574,272.000 258.961 C 271.010 259.349,269.300 260.338,268.200 261.159 C 265.674 263.043,264.357 263.600,262.430 263.600 C 259.880 263.600,259.829 263.248,259.924 246.429 L 260.007 231.807 261.250 230.003 C 262.701 227.897,265.768 225.284,267.200 224.932 C 267.750 224.797,269.024 224.090,270.032 223.360 C 271.039 222.629,272.365 221.842,272.978 221.609 C 273.590 221.376,274.566 220.813,275.146 220.357 C 276.350 219.412,282.160 216.145,288.600 212.791 C 297.592 208.109,307.618 202.316,309.089 200.952 C 309.654 200.429,310.277 200.000,310.472 200.000 C 310.668 200.000,311.262 199.715,311.793 199.368 L 312.758 198.735 311.943 197.058 C 311.128 195.379,307.550 192.570,304.987 191.595 C 304.378 191.364,302.602 190.351,301.040 189.344 C 299.478 188.338,295.934 186.049,293.164 184.257 C 290.394 182.466,287.363 180.550,286.429 180.000 C 285.494 179.450,283.981 178.420,283.065 177.711 C 282.149 177.002,280.501 175.941,279.402 175.355 C 278.304 174.768,276.651 173.728,275.729 173.044 C 274.808 172.360,273.130 171.260,272.000 170.600 C 270.870 169.940,269.193 168.841,268.273 168.159 C 267.353 167.476,265.840 166.530,264.911 166.056 C 263.926 165.554,262.535 164.284,261.573 163.011 L 259.924 160.827 259.956 145.399 C 259.976 135.557,260.138 129.689,260.403 129.194 C 261.112 127.869,264.067 128.527,267.358 130.743 " stroke="none" fill="#fbab71" fill-rule="evenodd"></path><path id="path3" d="M220.400 104.364 C 206.154 104.681,207.276 103.640,203.537 120.000 C 203.110 121.870,202.241 124.930,201.606 126.800 C 200.972 128.670,200.266 131.567,200.039 133.238 C 199.811 134.909,199.093 137.609,198.442 139.238 C 197.791 140.867,196.992 143.730,196.666 145.600 C 196.341 147.470,195.794 149.720,195.452 150.600 C 195.110 151.480,194.370 154.090,193.807 156.400 C 193.244 158.710,192.597 161.035,192.370 161.566 C 192.143 162.098,191.500 164.877,190.942 167.743 C 190.384 170.609,189.606 173.774,189.213 174.777 C 188.820 175.779,188.281 177.950,188.015 179.600 C 187.483 182.902,186.932 184.887,185.463 188.800 C 184.926 190.230,184.189 193.272,183.825 195.559 C 183.462 197.847,183.014 200.007,182.830 200.359 C 182.645 200.712,182.003 203.160,181.401 205.800 C 180.146 211.311,178.150 218.139,176.608 222.200 C 176.005 223.788,175.385 226.518,175.175 228.507 C 174.972 230.435,174.431 233.045,173.974 234.307 C 172.819 237.492,171.068 243.494,169.171 250.768 C 168.287 254.161,167.478 257.074,167.373 257.243 C 167.269 257.412,166.818 259.584,166.370 262.070 C 165.922 264.556,165.101 267.942,164.544 269.595 C 163.987 271.248,163.271 274.130,162.954 276.000 C 162.636 277.870,161.904 280.755,161.326 282.410 C 158.938 289.266,159.474 289.554,174.866 289.686 C 190.042 289.817,189.689 289.955,191.595 283.150 C 192.792 278.877,195.958 266.731,196.848 263.000 C 197.268 261.240,198.066 258.771,198.622 257.513 C 199.221 256.158,199.790 253.845,200.018 251.836 C 200.230 249.971,200.933 247.008,201.581 245.252 C 202.228 243.496,203.038 240.585,203.380 238.782 C 203.722 236.979,204.554 233.681,205.230 231.452 C 207.864 222.769,208.365 220.871,208.993 217.200 C 209.350 215.110,210.157 211.870,210.786 210.000 C 211.415 208.130,212.059 205.790,212.216 204.800 C 212.373 203.810,213.269 200.300,214.207 197.000 C 215.144 193.700,216.127 189.560,216.391 187.800 C 216.655 186.040,217.291 183.340,217.805 181.800 C 219.902 175.520,220.803 172.408,221.611 168.662 C 222.078 166.495,222.990 163.117,223.637 161.154 C 224.284 159.190,224.963 156.102,225.147 154.292 C 225.351 152.281,225.818 150.340,226.347 149.304 C 227.557 146.932,232.278 129.142,234.212 119.664 C 234.766 116.950,235.506 114.070,235.856 113.264 C 237.316 109.905,237.619 108.357,237.134 106.737 C 236.315 104.005,236.350 104.010,220.400 104.364 M234.628 106.419 C 235.603 107.090,236.400 107.700,236.400 107.774 C 236.400 107.849,235.857 109.070,235.194 110.488 C 234.363 112.263,233.856 114.177,233.565 116.633 C 233.333 118.595,232.714 121.291,232.189 122.625 C 231.664 123.958,230.880 126.928,230.447 129.225 C 230.014 131.521,229.387 134.134,229.055 135.032 C 228.723 135.930,228.179 138.223,227.846 140.127 C 227.514 142.032,226.864 144.445,226.401 145.490 C 225.433 147.680,224.960 149.618,224.399 153.697 C 224.179 155.294,223.540 157.521,222.979 158.647 C 222.418 159.773,221.620 162.563,221.206 164.847 C 220.478 168.869,219.571 172.089,217.165 179.200 C 216.532 181.070,215.720 184.400,215.360 186.600 C 215.000 188.800,214.299 191.590,213.802 192.800 C 213.305 194.010,212.499 196.980,212.011 199.400 C 211.523 201.820,210.592 205.404,209.942 207.364 C 209.293 209.324,208.586 212.328,208.371 214.041 C 208.157 215.753,207.707 217.929,207.372 218.877 C 207.038 219.825,206.327 222.310,205.794 224.400 C 205.260 226.490,204.469 229.201,204.035 230.425 C 203.601 231.649,202.963 234.405,202.618 236.550 C 202.273 238.695,201.628 241.161,201.185 242.030 C 200.714 242.953,200.139 245.426,199.802 247.986 C 199.099 253.315,198.847 254.421,198.157 255.220 C 197.382 256.117,196.480 258.869,195.957 261.934 C 195.706 263.400,195.336 264.808,195.133 265.062 C 194.930 265.317,194.156 267.927,193.412 270.862 C 189.478 286.390,189.573 286.114,187.800 286.992 C 184.877 288.437,165.201 288.310,163.243 286.832 L 162.328 286.143 163.188 281.371 C 163.662 278.747,164.579 274.980,165.228 273.000 C 165.876 271.020,166.577 268.036,166.785 266.369 C 166.993 264.703,167.602 261.993,168.139 260.348 C 168.676 258.704,169.419 255.870,169.790 254.051 C 170.160 252.233,170.698 250.172,170.983 249.472 C 171.269 248.773,171.902 246.315,172.389 244.010 C 172.877 241.706,173.643 239.101,174.091 238.221 C 174.620 237.185,175.152 234.702,175.605 231.161 C 176.128 227.069,176.511 225.410,177.130 224.549 C 177.585 223.917,178.407 221.780,178.956 219.800 C 179.505 217.820,180.310 215.120,180.744 213.800 C 182.044 209.849,183.582 203.228,185.206 194.600 C 185.454 193.280,186.092 191.300,186.623 190.200 C 187.154 189.100,187.965 186.344,188.426 184.075 C 188.887 181.807,189.709 178.657,190.252 177.075 C 190.796 175.494,191.418 172.673,191.635 170.807 C 191.852 168.941,192.480 166.167,193.029 164.643 C 193.579 163.119,194.317 160.415,194.670 158.636 C 195.022 156.856,195.535 154.950,195.809 154.400 C 196.283 153.450,196.935 150.582,197.992 144.800 C 198.253 143.370,198.735 141.902,199.061 141.538 C 199.392 141.169,200.009 138.704,200.450 135.988 C 200.964 132.822,201.592 130.435,202.233 129.210 C 202.777 128.170,203.496 125.807,203.832 123.960 C 204.168 122.112,204.872 119.340,205.397 117.800 C 205.922 116.260,206.653 113.560,207.022 111.800 C 207.610 108.997,207.890 108.412,209.282 107.082 L 210.871 105.564 218.336 105.801 C 224.173 105.987,231.678 105.702,232.728 105.255 C 232.798 105.225,233.653 105.749,234.628 106.419 M127.550 130.100 C 119.275 136.395,117.459 137.720,114.600 139.551 C 112.840 140.678,111.255 141.600,111.079 141.600 C 110.902 141.600,109.552 142.548,108.079 143.707 C 105.453 145.772,104.227 146.659,100.200 149.402 C 99.100 150.152,97.688 151.178,97.063 151.683 C 95.409 153.017,94.128 153.920,90.153 156.552 C 85.160 159.858,83.861 160.742,80.849 162.884 C 77.193 165.484,76.855 165.722,71.181 169.667 C 68.421 171.587,65.828 173.527,65.419 173.979 C 65.011 174.430,64.475 174.800,64.229 174.800 C 63.983 174.800,63.074 175.385,62.209 176.100 C 60.431 177.568,59.480 178.230,53.350 182.259 C 43.474 188.751,43.605 188.516,43.602 199.765 C 43.600 209.081,43.960 210.231,47.511 212.256 C 48.550 212.848,49.760 213.637,50.200 214.010 C 50.640 214.382,51.990 215.198,53.200 215.823 C 54.410 216.448,55.760 217.257,56.200 217.621 C 56.640 217.986,58.710 219.286,60.800 220.510 C 62.890 221.735,65.165 223.201,65.855 223.769 C 66.545 224.336,67.278 224.800,67.483 224.800 C 67.688 224.800,68.778 225.488,69.905 226.329 C 71.032 227.170,72.684 228.187,73.577 228.590 C 74.470 228.992,75.200 229.461,75.200 229.631 C 75.200 229.923,76.202 230.526,82.400 233.959 C 83.830 234.752,85.720 235.902,86.600 236.516 C 89.404 238.473,92.261 240.324,93.651 241.084 C 95.105 241.880,97.642 243.478,100.200 245.209 C 101.080 245.805,102.187 246.413,102.659 246.560 C 103.132 246.708,104.302 247.407,105.259 248.114 C 107.030 249.423,108.673 250.456,112.393 252.600 C 113.538 253.260,115.043 254.194,115.738 254.675 C 116.432 255.156,118.685 256.484,120.745 257.626 C 122.804 258.768,125.054 260.181,125.745 260.764 C 126.435 261.348,127.644 262.300,128.430 262.880 L 129.860 263.934 131.472 263.213 C 133.638 262.243,133.588 262.631,133.595 246.646 C 133.601 228.901,133.170 227.499,127.000 225.224 C 125.680 224.737,124.060 223.932,123.400 223.434 C 122.740 222.936,121.120 221.992,119.800 221.336 C 116.215 219.555,109.167 215.584,107.800 214.575 C 107.140 214.088,105.610 213.194,104.400 212.588 C 103.190 211.982,101.660 211.087,101.000 210.598 C 99.879 209.767,95.225 207.153,88.189 203.400 C 84.877 201.634,80.796 198.913,80.807 198.479 C 80.841 197.018,82.920 194.894,86.200 192.969 C 92.818 189.085,94.856 187.809,96.534 186.499 C 97.450 185.783,99.190 184.692,100.400 184.075 C 103.226 182.633,104.919 181.601,107.400 179.807 C 111.205 177.055,112.208 176.402,114.035 175.488 C 115.044 174.983,116.574 174.029,117.435 173.367 C 118.296 172.706,120.575 171.131,122.500 169.868 C 124.425 168.605,126.000 167.398,126.000 167.186 C 126.000 166.974,126.225 166.798,126.500 166.796 C 128.138 166.783,131.234 164.744,132.375 162.926 L 133.585 161.000 133.588 146.800 C 133.592 129.674,133.612 129.852,131.543 129.024 C 130.686 128.681,129.939 128.400,129.884 128.400 C 129.829 128.400,128.779 129.165,127.550 130.100 M260.624 129.561 C 260.285 130.110,260.296 159.685,260.636 160.600 C 261.405 162.670,263.494 164.937,265.624 166.012 C 266.847 166.630,268.094 167.431,268.395 167.794 C 268.696 168.156,269.495 168.737,270.171 169.084 C 270.847 169.432,271.850 170.054,272.400 170.468 C 274.105 171.751,278.530 174.568,280.000 175.306 C 280.770 175.692,282.153 176.592,283.073 177.304 C 283.993 178.017,285.613 179.123,286.673 179.763 C 287.733 180.402,290.580 182.213,293.000 183.787 C 295.420 185.360,298.300 187.162,299.400 187.791 C 300.500 188.419,301.950 189.347,302.622 189.854 C 303.293 190.361,304.547 191.069,305.408 191.429 C 308.392 192.676,311.821 195.454,312.496 197.172 C 313.181 198.914,313.124 199.026,311.000 200.116 C 310.340 200.455,309.423 201.088,308.962 201.524 C 308.502 201.959,307.512 202.627,306.762 203.008 C 306.013 203.390,303.690 204.726,301.600 205.977 C 295.958 209.355,290.782 212.247,289.200 212.903 C 287.079 213.784,274.780 220.720,271.123 223.097 C 270.026 223.811,268.347 224.740,267.394 225.162 C 265.195 226.134,262.162 228.915,261.163 230.874 C 260.242 232.679,259.896 261.110,260.782 262.178 C 262.058 263.715,264.947 263.099,268.466 260.539 C 269.492 259.793,270.912 258.980,271.622 258.732 C 273.415 258.107,280.070 253.942,282.862 251.697 C 283.753 250.981,284.959 250.275,285.541 250.130 C 286.123 249.984,288.220 248.726,290.200 247.334 C 292.180 245.943,294.610 244.348,295.600 243.791 C 296.590 243.235,298.660 241.981,300.200 241.007 C 301.740 240.032,303.810 238.795,304.800 238.258 C 305.790 237.720,307.320 236.706,308.200 236.002 C 309.080 235.299,311.171 234.039,312.847 233.202 C 316.406 231.424,319.788 229.355,323.472 226.700 C 324.923 225.655,326.348 224.800,326.641 224.800 C 326.933 224.800,327.763 224.285,328.486 223.655 C 329.209 223.026,330.430 222.190,331.200 221.798 C 331.970 221.405,333.050 220.738,333.600 220.315 C 334.150 219.893,336.580 218.362,339.000 216.913 C 351.149 209.642,350.001 211.414,349.998 199.940 C 349.995 188.676,349.694 187.923,343.800 184.408 C 342.920 183.883,341.638 182.991,340.952 182.427 C 340.266 181.862,338.667 180.680,337.400 179.800 C 336.133 178.920,334.354 177.589,333.448 176.842 C 332.542 176.095,331.181 175.224,330.425 174.905 C 329.669 174.587,328.589 173.899,328.025 173.377 C 326.780 172.223,324.806 170.807,322.400 169.340 C 321.410 168.736,319.254 167.243,317.608 166.021 C 314.510 163.721,313.699 163.158,305.751 157.794 C 299.749 153.743,298.572 152.905,296.629 151.300 C 295.764 150.585,294.862 150.000,294.625 150.000 C 294.388 150.000,293.207 149.190,292.000 148.200 C 290.793 147.210,289.707 146.400,289.586 146.400 C 289.466 146.400,288.205 145.505,286.784 144.411 C 285.363 143.318,282.400 141.218,280.200 139.746 C 278.000 138.273,274.850 136.154,273.200 135.036 C 264.207 128.943,264.704 129.219,262.724 129.209 C 261.692 129.204,260.747 129.362,260.624 129.561 M130.825 130.900 C 131.745 132.127,131.800 132.503,131.805 137.600 C 131.808 140.570,131.965 146.330,132.154 150.400 C 132.617 160.348,131.636 163.758,127.994 164.849 C 127.103 165.116,125.910 165.799,125.342 166.367 C 124.774 166.935,123.538 167.850,122.596 168.400 C 119.778 170.044,117.489 171.635,115.910 173.047 C 115.091 173.780,113.961 174.495,113.399 174.636 C 112.327 174.905,107.708 177.734,106.000 179.168 C 104.721 180.242,100.602 182.699,98.846 183.436 C 98.102 183.748,96.796 184.633,95.945 185.402 C 95.094 186.171,94.195 186.800,93.947 186.800 C 93.699 186.800,92.641 187.414,91.595 188.165 C 90.550 188.916,89.089 189.833,88.348 190.203 C 83.385 192.680,80.795 194.615,79.826 196.574 C 78.677 198.895,78.667 198.869,81.418 200.629 C 82.589 201.378,83.668 202.186,83.815 202.424 C 83.962 202.663,85.369 203.479,86.942 204.238 C 88.514 204.997,90.880 206.251,92.200 207.025 C 93.520 207.798,95.757 208.981,97.171 209.652 C 98.585 210.323,100.066 211.285,100.463 211.790 C 100.860 212.294,101.863 212.979,102.693 213.312 C 103.522 213.644,105.163 214.565,106.340 215.358 C 107.517 216.151,108.624 216.800,108.800 216.800 C 108.976 216.800,110.056 217.430,111.200 218.200 C 112.344 218.970,113.472 219.600,113.705 219.600 C 113.939 219.600,114.963 220.135,115.982 220.788 C 117.001 221.442,118.631 222.258,119.606 222.602 C 120.580 222.946,121.757 223.584,122.222 224.020 C 122.686 224.456,124.123 225.185,125.415 225.639 C 131.465 227.766,132.682 230.891,132.173 243.000 C 131.987 247.400,131.818 252.710,131.797 254.800 C 131.738 260.555,131.677 260.959,130.791 261.513 C 130.022 261.993,128.687 261.671,128.000 260.838 C 127.422 260.138,124.777 258.400,124.289 258.400 C 123.978 258.400,123.381 258.014,122.962 257.543 C 122.543 257.072,121.390 256.298,120.400 255.823 C 119.410 255.348,117.710 254.383,116.622 253.680 C 115.534 252.976,114.494 252.400,114.312 252.400 C 114.130 252.400,113.065 251.770,111.945 251.000 C 110.826 250.230,109.671 249.600,109.379 249.600 C 109.088 249.600,108.049 248.925,107.072 248.100 C 106.095 247.275,104.419 246.098,103.348 245.485 C 102.277 244.872,100.467 243.792,99.326 243.085 C 98.186 242.378,96.206 241.184,94.926 240.431 C 93.647 239.678,92.009 238.553,91.286 237.931 C 90.563 237.309,89.730 236.800,89.435 236.800 C 89.140 236.800,88.654 236.506,88.355 236.146 C 87.654 235.301,85.282 233.806,84.000 233.401 C 83.450 233.227,82.460 232.688,81.800 232.202 C 81.140 231.717,79.760 230.924,78.732 230.440 C 77.705 229.956,76.663 229.317,76.416 229.019 C 76.169 228.721,74.984 228.013,73.783 227.444 C 72.583 226.876,71.600 226.249,71.600 226.052 C 71.600 225.855,70.582 225.212,69.339 224.623 C 68.095 224.034,66.741 223.124,66.328 222.600 C 65.916 222.076,65.187 221.523,64.707 221.371 C 64.228 221.218,62.816 220.398,61.569 219.547 C 60.323 218.696,59.171 218.000,59.009 218.000 C 58.847 218.000,58.059 217.485,57.258 216.855 C 56.456 216.225,55.170 215.394,54.400 215.008 C 53.630 214.622,52.640 213.986,52.200 213.595 C 51.760 213.204,50.698 212.514,49.840 212.061 C 48.982 211.607,47.587 210.515,46.740 209.634 L 45.200 208.031 45.200 199.796 C 45.200 193.404,45.329 191.311,45.777 190.445 C 46.486 189.074,51.040 184.800,51.792 184.800 C 52.093 184.800,52.847 184.384,53.469 183.875 C 54.091 183.367,55.448 182.463,56.484 181.868 C 57.521 181.272,58.511 180.547,58.684 180.256 C 58.858 179.966,59.856 179.232,60.902 178.625 C 61.948 178.018,62.938 177.306,63.102 177.042 C 63.266 176.779,64.045 176.190,64.834 175.734 C 65.623 175.278,66.703 174.507,67.234 174.021 C 68.376 172.977,71.590 170.786,73.694 169.619 C 74.516 169.163,75.482 168.342,75.840 167.795 C 76.199 167.248,76.817 166.800,77.215 166.800 C 77.613 166.800,78.447 166.380,79.069 165.867 C 79.691 165.354,81.325 164.177,82.700 163.252 C 84.075 162.327,85.200 161.419,85.200 161.234 C 85.200 161.049,85.705 160.688,86.322 160.432 C 86.939 160.177,88.964 158.892,90.822 157.577 C 92.680 156.263,94.734 154.875,95.387 154.494 C 96.039 154.112,97.082 153.278,97.704 152.639 C 98.326 152.001,99.603 151.069,100.543 150.569 C 101.483 150.069,102.844 149.106,103.568 148.430 C 104.292 147.753,105.097 147.200,105.356 147.200 C 105.616 147.200,106.362 146.754,107.014 146.209 C 109.194 144.389,112.182 142.399,113.961 141.584 C 114.929 141.140,116.330 140.242,117.074 139.588 C 117.819 138.935,118.596 138.400,118.801 138.400 C 119.006 138.400,120.062 137.635,121.147 136.700 C 124.535 133.783,126.154 132.547,127.504 131.849 C 128.222 131.478,129.030 130.820,129.301 130.387 C 129.894 129.437,129.671 129.361,130.825 130.900 M268.909 133.830 C 269.543 134.364,270.186 134.800,270.339 134.800 C 270.491 134.800,271.692 135.608,273.008 136.596 C 274.324 137.583,275.619 138.393,275.886 138.396 C 276.153 138.398,276.963 138.916,277.686 139.546 C 278.409 140.177,279.720 141.057,280.600 141.504 C 281.480 141.950,282.560 142.712,282.999 143.198 C 283.439 143.684,284.339 144.358,284.999 144.695 C 285.660 145.032,286.345 145.556,286.522 145.859 C 286.700 146.162,287.701 146.843,288.748 147.373 C 289.794 147.904,290.879 148.613,291.159 148.951 C 291.439 149.288,292.508 150.051,293.534 150.646 C 294.560 151.241,295.544 151.969,295.720 152.264 C 295.896 152.559,296.616 153.095,297.320 153.455 C 298.024 153.815,299.230 154.638,300.000 155.285 C 300.770 155.932,302.894 157.427,304.720 158.609 C 306.546 159.790,308.616 161.228,309.320 161.804 C 311.599 163.670,316.171 166.800,316.617 166.800 C 316.855 166.800,317.568 167.340,318.200 168.000 C 318.832 168.660,319.546 169.200,319.786 169.200 C 320.025 169.200,321.207 169.943,322.411 170.850 C 323.615 171.758,325.050 172.700,325.600 172.945 C 326.150 173.189,327.109 173.886,327.731 174.495 C 328.353 175.103,329.095 175.600,329.380 175.600 C 329.665 175.600,331.046 176.491,332.449 177.579 C 333.852 178.668,335.720 180.118,336.600 180.803 C 337.480 181.487,338.830 182.481,339.600 183.010 C 349.295 189.680,348.999 189.203,349.381 198.800 C 349.630 205.043,349.235 208.725,348.258 209.272 C 347.894 209.475,347.120 210.083,346.539 210.621 C 345.959 211.159,345.266 211.600,345.002 211.600 C 344.737 211.600,343.751 212.185,342.811 212.900 C 340.864 214.381,337.835 216.307,335.200 217.740 C 334.210 218.279,332.700 219.277,331.845 219.960 C 330.990 220.642,330.146 221.200,329.969 221.200 C 329.793 221.200,328.835 221.904,327.841 222.765 C 326.847 223.625,325.507 224.445,324.865 224.586 C 324.222 224.727,323.090 225.387,322.348 226.053 C 321.607 226.719,320.372 227.528,319.605 227.851 C 318.838 228.174,317.848 228.770,317.405 229.175 C 316.962 229.580,315.604 230.361,314.386 230.911 C 313.169 231.460,311.932 232.200,311.637 232.555 C 311.343 232.910,310.797 233.200,310.423 233.200 C 310.050 233.200,308.767 233.933,307.572 234.830 C 306.378 235.726,304.779 236.722,304.020 237.043 C 303.261 237.363,301.715 238.340,300.583 239.213 C 299.452 240.086,298.391 240.800,298.225 240.800 C 298.059 240.800,297.376 241.190,296.706 241.667 C 296.036 242.144,294.614 242.970,293.544 243.503 C 292.475 244.036,291.600 244.622,291.600 244.806 C 291.600 244.991,290.612 245.706,289.405 246.397 C 288.198 247.088,287.073 247.896,286.905 248.194 C 286.737 248.492,285.622 249.120,284.426 249.591 C 283.231 250.061,281.650 250.976,280.913 251.623 C 280.175 252.270,279.412 252.800,279.217 252.800 C 279.021 252.800,278.353 253.222,277.731 253.738 C 277.109 254.253,274.287 255.874,271.459 257.340 C 268.632 258.806,265.885 260.347,265.355 260.764 C 262.531 262.985,262.352 262.120,262.344 246.207 C 262.337 229.512,262.787 228.110,269.000 225.506 C 270.100 225.045,271.360 224.359,271.800 223.982 C 272.240 223.605,273.500 222.848,274.600 222.300 C 279.269 219.974,282.246 218.278,282.916 217.564 C 283.309 217.144,283.900 216.800,284.229 216.800 C 284.752 216.800,287.436 215.515,289.200 214.421 C 289.530 214.216,290.793 213.617,292.006 213.089 C 293.220 212.561,294.480 211.876,294.806 211.565 C 295.133 211.254,296.210 210.568,297.200 210.041 C 298.190 209.513,299.285 208.837,299.634 208.538 C 299.983 208.239,301.333 207.451,302.634 206.787 C 306.401 204.862,310.092 202.536,310.481 201.841 C 310.678 201.488,311.074 201.200,311.360 201.200 C 311.646 201.200,312.624 200.661,313.534 200.002 L 315.189 198.803 314.329 197.102 C 313.341 195.144,312.058 193.600,311.421 193.600 C 311.180 193.600,310.320 193.054,309.510 192.386 C 308.700 191.719,307.084 190.750,305.919 190.233 C 304.753 189.716,303.472 188.929,303.071 188.484 C 302.671 188.038,301.484 187.304,300.433 186.852 C 299.383 186.401,298.281 185.739,297.984 185.381 C 297.688 185.024,296.625 184.354,295.622 183.894 C 294.620 183.434,292.921 182.369,291.848 181.528 C 290.774 180.688,289.649 180.000,289.348 180.000 C 289.046 180.000,288.800 179.825,288.800 179.611 C 288.800 179.397,287.724 178.689,286.410 178.036 C 285.095 177.384,283.535 176.401,282.942 175.852 C 282.350 175.302,281.408 174.738,280.850 174.598 C 280.291 174.458,279.172 173.771,278.362 173.072 C 276.926 171.831,274.848 170.440,271.355 168.383 C 270.406 167.824,269.217 167.004,268.714 166.561 C 268.211 166.119,267.037 165.270,266.103 164.675 C 265.170 164.080,263.938 162.885,263.365 162.019 L 262.323 160.444 262.336 146.343 C 262.352 129.060,262.624 128.542,268.909 133.830 " stroke="none" fill="#fcbc94" fill-rule="evenodd"></path><path id="path4" d="M209.400 104.382 C 207.702 105.084,205.557 108.441,205.627 110.287 C 205.641 110.679,205.880 110.276,206.158 109.392 C 207.626 104.707,207.816 104.640,220.400 104.387 L 231.000 104.174 220.600 104.112 C 214.880 104.079,209.840 104.200,209.400 104.382 M236.270 104.800 C 236.504 105.130,236.917 106.087,237.188 106.927 C 237.458 107.767,237.753 108.381,237.842 108.292 C 238.130 108.004,237.114 105.418,236.469 104.800 C 235.913 104.267,235.891 104.267,236.270 104.800 M236.677 110.925 C 235.372 114.670,234.505 117.789,234.263 119.609 C 234.132 120.594,234.450 119.780,234.969 117.800 C 235.488 115.820,236.301 113.231,236.775 112.046 C 237.250 110.861,237.584 109.657,237.519 109.371 C 237.454 109.085,237.075 109.784,236.677 110.925 M204.682 113.882 C 204.301 115.335,204.060 116.593,204.146 116.679 C 204.231 116.765,204.621 115.655,205.012 114.212 C 205.402 112.769,205.644 111.510,205.548 111.415 C 205.453 111.320,205.063 112.430,204.682 113.882 M202.839 121.400 C 202.809 121.840,202.248 123.721,201.592 125.581 C 200.936 127.440,200.405 129.240,200.412 129.581 C 200.418 129.921,201.057 128.329,201.830 126.042 C 202.603 123.754,203.159 121.594,203.064 121.242 C 202.938 120.768,202.879 120.810,202.839 121.400 M232.085 128.913 C 231.378 131.663,230.814 134.158,230.831 134.457 C 230.848 134.756,231.479 132.664,232.234 129.808 C 232.988 126.953,233.553 124.458,233.488 124.264 C 233.423 124.070,232.792 126.162,232.085 128.913 M127.002 130.106 C 123.965 132.459,123.643 132.695,118.172 136.600 C 116.014 138.140,113.427 139.892,112.424 140.493 C 111.421 141.094,110.780 141.589,111.000 141.593 C 111.220 141.597,112.840 140.678,114.600 139.551 C 117.459 137.720,119.275 136.395,127.550 130.100 C 128.779 129.165,129.829 128.400,129.884 128.400 C 131.049 128.400,133.181 129.850,133.317 130.734 L 133.480 131.800 133.540 130.709 C 133.605 129.536,132.645 128.690,130.752 128.253 C 129.905 128.057,129.188 128.412,127.002 130.106 M260.403 129.194 C 260.138 129.689,259.976 135.557,259.956 145.399 L 259.924 160.827 261.573 163.011 C 262.528 164.275,263.927 165.555,264.896 166.049 C 265.817 166.519,267.297 167.428,268.185 168.069 C 271.124 170.191,272.999 171.321,272.416 170.619 C 272.107 170.247,271.199 169.608,270.400 169.200 C 269.601 168.792,268.699 168.161,268.397 167.797 C 268.095 167.433,266.847 166.630,265.624 166.012 C 263.494 164.937,261.405 162.670,260.636 160.600 C 260.296 159.685,260.285 130.110,260.624 129.561 C 261.311 128.449,264.622 129.234,267.542 131.201 C 269.160 132.291,270.275 132.932,270.020 132.624 C 267.766 129.908,261.262 127.588,260.403 129.194 M271.020 133.529 C 271.628 134.056,275.342 136.611,276.000 136.955 C 276.827 137.388,274.958 135.825,272.928 134.385 C 271.419 133.316,270.080 132.715,271.020 133.529 M229.850 137.650 C 229.475 138.998,229.240 140.174,229.328 140.262 C 229.416 140.350,229.797 139.321,230.175 137.975 C 230.553 136.629,230.787 135.454,230.697 135.363 C 230.606 135.273,230.225 136.302,229.850 137.650 M198.045 139.183 C 197.571 140.287,197.090 141.777,196.977 142.495 C 196.855 143.273,197.072 142.912,197.515 141.600 C 197.923 140.390,198.484 138.980,198.761 138.466 C 199.038 137.952,199.185 137.451,199.087 137.354 C 198.989 137.256,198.520 138.079,198.045 139.183 M277.600 137.751 C 277.600 137.860,279.085 138.954,280.900 140.182 C 282.715 141.411,285.363 143.312,286.784 144.408 C 288.205 145.504,289.465 146.394,289.584 146.387 C 289.703 146.380,289.525 146.155,289.189 145.887 C 286.997 144.137,283.452 141.522,281.030 139.866 C 277.490 137.446,277.600 137.514,277.600 137.751 M107.429 143.822 C 104.499 146.134,103.817 146.747,104.800 146.185 C 105.680 145.681,110.400 141.955,110.400 141.763 C 110.400 141.487,110.284 141.568,107.429 143.822 M228.217 143.881 C 228.063 144.717,227.508 146.480,226.982 147.800 C 226.166 149.849,226.139 150.054,226.793 149.200 C 227.562 148.196,229.070 142.937,228.696 142.562 C 228.586 142.453,228.370 143.046,228.217 143.881 M133.765 152.200 C 133.766 156.160,133.826 157.726,133.898 155.680 C 133.971 153.634,133.971 150.394,133.898 148.480 C 133.824 146.566,133.765 148.240,133.765 152.200 M102.276 147.700 C 101.030 148.933,101.025 148.949,102.181 148.003 C 102.852 147.455,103.571 146.870,103.780 146.703 C 103.989 146.536,104.031 146.400,103.874 146.400 C 103.717 146.400,102.998 146.985,102.276 147.700 M196.049 147.000 C 196.016 147.440,195.896 148.250,195.783 148.800 L 195.577 149.800 196.006 148.819 C 196.242 148.279,196.361 147.469,196.272 147.019 C 196.113 146.221,196.107 146.221,196.049 147.000 M290.000 146.479 C 290.571 147.165,294.237 150.000,294.553 150.000 C 294.755 150.000,294.147 149.415,293.201 148.700 C 291.064 147.084,289.737 146.163,290.000 146.479 M96.901 151.314 C 95.265 152.746,93.597 153.908,88.641 157.065 C 86.859 158.201,84.860 159.572,84.200 160.111 C 83.540 160.651,82.010 161.753,80.800 162.561 C 76.207 165.628,73.712 167.622,76.501 165.995 C 77.327 165.513,78.101 164.961,78.221 164.767 C 78.341 164.572,79.645 163.604,81.119 162.614 C 82.594 161.625,84.430 160.385,85.200 159.859 C 85.970 159.334,88.130 157.890,90.000 156.652 C 95.196 153.212,95.318 153.126,96.600 151.979 C 97.260 151.388,98.160 150.707,98.600 150.465 C 99.040 150.223,99.176 150.019,98.901 150.012 C 98.627 150.005,97.727 150.591,96.901 151.314 M295.400 150.254 C 295.620 150.448,296.429 151.145,297.199 151.803 L 298.597 153.000 297.599 151.863 C 297.049 151.238,296.240 150.541,295.800 150.314 C 295.360 150.088,295.180 150.061,295.400 150.254 M300.442 154.132 C 302.582 155.754,306.800 158.459,306.800 158.209 C 306.800 158.109,305.276 157.024,303.413 155.797 C 301.551 154.571,299.920 153.395,299.790 153.184 C 299.659 152.973,299.358 152.800,299.119 152.800 C 298.880 152.800,299.476 153.400,300.442 154.132 M193.026 157.697 C 191.543 163.224,191.468 163.591,192.110 162.200 C 192.751 160.810,194.507 153.973,194.280 153.747 C 194.196 153.663,193.632 155.440,193.026 157.697 M307.200 158.474 C 307.200 158.559,308.464 159.521,310.009 160.614 C 311.554 161.706,314.730 163.995,317.068 165.700 C 319.405 167.405,321.457 168.800,321.628 168.800 C 321.799 168.800,322.808 169.457,323.869 170.261 C 324.931 171.064,325.440 171.315,325.000 170.819 C 324.561 170.323,323.391 169.451,322.400 168.882 C 321.410 168.312,318.851 166.576,316.714 165.023 C 310.157 160.260,307.200 158.224,307.200 158.474 M223.457 161.657 C 223.063 162.766,222.810 163.743,222.895 163.828 C 222.979 163.913,223.374 163.077,223.771 161.971 C 224.169 160.866,224.422 159.889,224.334 159.801 C 224.246 159.712,223.851 160.548,223.457 161.657 M132.284 163.038 C 131.471 164.384,130.667 165.085,129.098 165.815 C 127.944 166.353,127.234 166.794,127.520 166.796 C 129.046 166.808,132.092 164.538,133.068 162.663 C 134.029 160.815,133.463 161.086,132.284 163.038 M126.000 167.188 C 126.000 167.401,123.947 168.936,121.439 170.600 C 118.930 172.264,116.635 173.929,116.339 174.301 C 116.003 174.723,116.253 174.640,117.000 174.083 C 117.660 173.591,119.910 172.048,122.001 170.654 C 125.799 168.123,127.325 166.800,126.449 166.800 C 126.202 166.800,126.000 166.974,126.000 167.188 M70.665 169.622 C 69.419 170.514,68.400 171.339,68.400 171.456 C 68.400 171.643,71.982 169.199,72.980 168.331 C 74.002 167.441,72.681 168.178,70.665 169.622 M190.038 170.600 C 190.008 171.040,189.538 172.660,188.993 174.200 C 188.449 175.740,188.024 177.360,188.048 177.800 L 188.093 178.600 188.277 177.800 C 188.378 177.360,188.907 175.680,189.453 174.067 C 189.999 172.453,190.366 170.833,190.269 170.467 C 190.131 169.943,190.081 169.971,190.038 170.600 M65.800 173.200 C 64.783 174.080,64.097 174.793,64.276 174.784 C 64.645 174.765,68.224 171.600,67.876 171.600 C 67.751 171.600,66.817 172.320,65.800 173.200 M219.865 175.266 C 219.240 177.244,218.799 178.933,218.885 179.018 C 218.970 179.103,219.554 177.558,220.183 175.583 C 220.812 173.609,221.253 171.921,221.163 171.831 C 221.074 171.742,220.489 173.288,219.865 175.266 M275.800 172.988 C 277.008 174.046,278.400 174.953,278.400 174.682 C 278.400 174.601,277.545 173.951,276.500 173.236 C 275.062 172.252,274.892 172.192,275.800 172.988 M328.122 173.334 C 328.960 174.140,329.749 174.800,329.877 174.800 C 330.168 174.800,328.471 173.174,327.400 172.426 C 326.960 172.119,327.285 172.527,328.122 173.334 M61.655 176.100 C 60.763 176.815,59.621 177.719,59.117 178.108 C 58.240 178.786,58.253 178.786,59.425 178.108 C 60.804 177.311,63.919 174.800,63.529 174.800 C 63.390 174.800,62.546 175.385,61.655 176.100 M280.052 175.707 C 280.851 176.198,282.237 177.140,283.132 177.800 C 284.026 178.460,285.517 179.450,286.443 180.000 C 287.370 180.550,290.394 182.466,293.164 184.257 C 303.072 190.666,303.907 191.189,304.649 191.456 C 305.547 191.779,301.745 189.146,299.200 187.683 C 298.210 187.114,295.330 185.305,292.800 183.664 C 290.270 182.022,287.570 180.287,286.800 179.808 C 285.017 178.697,282.580 177.054,280.841 175.789 C 280.093 175.245,279.283 174.803,279.041 174.807 C 278.798 174.810,279.254 175.215,280.052 175.707 M332.600 176.151 C 333.260 176.739,334.790 177.931,336.000 178.800 C 337.210 179.669,338.920 180.923,339.800 181.587 C 340.680 182.251,342.189 183.291,343.154 183.897 C 346.218 185.824,348.984 188.364,349.477 189.703 C 349.903 190.859,349.957 190.894,349.977 190.024 C 350.004 188.885,346.855 185.774,344.000 184.118 C 343.010 183.544,341.624 182.607,340.921 182.037 C 339.678 181.029,338.485 180.135,334.841 177.481 C 332.014 175.421,331.316 175.008,332.600 176.151 M112.122 176.629 L 111.000 177.658 112.300 176.754 C 113.015 176.257,113.600 175.793,113.600 175.725 C 113.600 175.409,113.158 175.680,112.122 176.629 M108.708 178.812 C 107.702 179.478,106.636 180.328,106.339 180.701 C 106.022 181.099,106.294 181.002,107.000 180.465 C 107.660 179.964,108.785 179.186,109.500 178.737 C 110.648 178.016,111.076 177.600,110.669 177.600 C 110.596 177.600,109.714 178.145,108.708 178.812 M55.233 180.633 C 52.810 182.277,50.982 183.786,52.400 182.973 C 54.025 182.042,57.576 179.562,57.797 179.205 C 58.132 178.663,58.164 178.645,55.233 180.633 M217.644 182.244 C 217.131 183.675,216.789 184.923,216.884 185.017 C 216.978 185.112,217.471 184.014,217.978 182.578 C 218.485 181.141,218.827 179.894,218.738 179.805 C 218.650 179.716,218.157 180.814,217.644 182.244 M104.100 181.996 C 103.385 182.432,102.800 182.875,102.800 182.981 C 102.800 183.086,103.430 182.801,104.200 182.347 C 104.970 181.893,105.600 181.449,105.600 181.360 C 105.600 181.105,105.474 181.158,104.100 181.996 M186.900 183.248 C 186.624 184.431,185.954 186.480,185.409 187.800 C 184.865 189.120,184.424 190.470,184.430 190.800 C 184.443 191.448,186.060 187.407,187.043 184.272 C 187.376 183.211,187.592 182.063,187.524 181.719 C 187.456 181.376,187.175 182.064,186.900 183.248 M49.972 184.112 C 43.675 188.026,43.205 189.108,43.202 199.716 C 43.199 209.806,43.372 210.217,49.060 213.698 C 49.687 214.081,51.077 214.944,52.149 215.615 C 53.222 216.286,54.184 216.749,54.288 216.645 C 54.392 216.541,53.695 216.063,52.739 215.583 C 51.782 215.103,50.640 214.400,50.200 214.021 C 49.760 213.643,48.550 212.848,47.511 212.256 C 43.960 210.231,43.600 209.081,43.602 199.765 C 43.605 189.196,44.059 188.127,50.100 184.448 C 50.925 183.946,51.600 183.459,51.600 183.367 C 51.600 183.115,51.514 183.154,49.972 184.112 M99.943 184.309 C 98.921 184.909,97.355 185.940,96.462 186.600 C 94.754 187.863,92.149 189.479,86.200 192.967 C 81.306 195.837,79.693 198.464,82.122 199.609 L 83.000 200.023 82.122 199.377 L 81.244 198.731 82.088 196.993 C 82.794 195.541,83.488 194.935,86.289 193.327 C 91.614 190.269,96.514 187.179,97.600 186.194 C 98.150 185.695,99.500 184.826,100.600 184.262 C 101.700 183.698,102.420 183.233,102.200 183.228 C 101.980 183.223,100.964 183.709,99.943 184.309 M216.046 189.868 C 216.021 190.345,215.370 192.925,214.600 195.600 C 213.051 200.981,212.847 202.155,214.043 198.800 C 215.225 195.482,216.463 190.391,216.267 189.654 C 216.146 189.200,216.079 189.266,216.046 189.868 M183.869 192.756 C 183.721 193.495,183.620 194.483,183.644 194.950 C 183.668 195.418,183.847 194.990,184.042 194.000 C 184.237 193.010,184.338 192.023,184.267 191.806 C 184.196 191.590,184.017 192.017,183.869 192.756 M308.259 193.432 C 310.356 194.846,311.337 195.809,311.937 197.046 L 312.756 198.731 311.878 199.384 C 311.395 199.743,311.270 199.911,311.600 199.756 C 313.047 199.079,313.140 198.811,312.496 197.172 C 311.893 195.637,308.114 192.421,306.123 191.748 C 305.725 191.614,306.687 192.371,308.259 193.432 M182.833 198.672 C 181.549 203.186,180.815 206.252,180.840 207.000 C 180.855 207.440,181.124 206.720,181.439 205.400 C 181.754 204.080,182.384 201.785,182.839 200.300 C 183.294 198.815,183.602 197.407,183.524 197.172 C 183.445 196.936,183.134 197.611,182.833 198.672 M350.146 202.600 C 350.147 204.800,350.214 205.649,350.295 204.487 C 350.376 203.324,350.376 201.524,350.293 200.487 C 350.211 199.449,350.145 200.400,350.146 202.600 M84.200 201.001 C 85.520 202.148,88.382 203.752,88.643 203.490 C 88.734 203.400,88.085 202.999,87.202 202.601 C 86.318 202.202,85.386 201.624,85.131 201.316 C 84.875 201.008,84.291 200.577,83.833 200.357 C 83.299 200.101,83.430 200.332,84.200 201.001 M309.200 200.800 C 308.650 201.230,308.352 201.586,308.537 201.591 C 308.722 201.596,309.331 201.240,309.891 200.800 C 310.450 200.360,310.749 200.004,310.554 200.009 C 310.359 200.014,309.750 200.370,309.200 200.800 M212.408 203.882 C 212.138 205.377,211.408 208.130,210.786 210.000 C 210.163 211.870,209.551 214.120,209.425 215.000 C 209.299 215.880,209.620 215.160,210.137 213.400 C 210.655 211.640,211.298 209.662,211.566 209.004 C 212.145 207.583,213.323 201.590,213.072 201.339 C 212.976 201.243,212.677 202.387,212.408 203.882 M306.700 202.629 C 305.149 203.470,305.325 203.761,306.900 202.959 C 308.408 202.193,308.675 201.994,308.167 202.016 C 307.965 202.025,307.305 202.301,306.700 202.629 M90.444 204.514 C 92.317 205.776,97.585 208.571,96.600 207.779 C 96.160 207.425,94.900 206.676,93.800 206.114 C 92.700 205.552,91.371 204.756,90.846 204.346 C 90.321 203.936,89.711 203.600,89.490 203.600 C 89.269 203.600,89.698 204.011,90.444 204.514 M301.285 205.753 C 299.682 206.697,298.152 207.712,297.885 208.008 C 297.618 208.304,297.917 208.225,298.548 207.833 C 299.180 207.440,300.755 206.498,302.048 205.740 C 303.342 204.982,304.400 204.280,304.400 204.181 C 304.400 203.915,304.440 203.895,301.285 205.753 M99.618 209.777 C 100.818 210.535,102.880 211.724,104.200 212.421 C 105.520 213.118,107.140 214.088,107.800 214.577 C 108.460 215.067,110.620 216.343,112.600 217.413 C 114.580 218.484,117.000 219.864,117.978 220.480 C 118.956 221.096,119.936 221.600,120.155 221.600 C 120.662 221.600,116.867 219.305,112.103 216.732 C 110.070 215.633,108.302 214.565,108.174 214.357 C 108.045 214.150,106.739 213.374,105.270 212.633 C 103.802 211.892,101.637 210.637,100.460 209.843 C 99.283 209.049,98.121 208.400,97.877 208.400 C 97.634 208.400,98.417 209.020,99.618 209.777 M294.176 209.841 C 292.869 210.633,290.360 211.976,288.600 212.826 C 284.193 214.952,276.412 219.348,275.200 220.396 L 274.200 221.261 275.200 220.605 C 277.113 219.350,286.218 214.348,289.000 213.023 C 292.320 211.442,297.564 208.400,296.970 208.400 C 296.741 208.400,295.484 209.048,294.176 209.841 M179.475 212.075 C 179.083 213.406,178.832 214.565,178.917 214.650 C 179.002 214.735,179.399 213.723,179.800 212.400 C 180.201 211.077,180.452 209.918,180.358 209.825 C 180.265 209.731,179.867 210.744,179.475 212.075 M348.920 210.556 C 348.744 210.862,347.700 211.644,346.600 212.294 C 343.155 214.327,339.459 216.800,339.864 216.800 C 340.077 216.800,341.450 215.996,342.914 215.014 C 344.379 214.031,346.297 212.861,347.176 212.412 C 348.054 211.964,348.966 211.238,349.201 210.799 C 349.679 209.906,349.422 209.684,348.920 210.556 M54.979 217.165 C 55.272 217.640,62.972 222.401,63.442 222.398 C 63.639 222.396,62.215 221.426,60.279 220.240 C 58.342 219.055,56.438 217.796,56.047 217.443 C 55.278 216.747,54.613 216.574,54.979 217.165 M336.800 218.211 C 335.590 218.942,334.150 219.887,333.600 220.312 C 333.050 220.737,331.970 221.405,331.200 221.798 C 329.771 222.526,326.938 224.800,327.460 224.800 C 327.619 224.800,328.171 224.403,328.688 223.917 C 329.206 223.431,330.419 222.576,331.385 222.017 C 335.504 219.633,338.777 217.561,339.004 217.194 C 339.320 216.682,339.362 216.663,336.800 218.211 M176.847 220.447 C 176.335 221.768,175.999 222.932,176.101 223.034 C 176.203 223.136,176.687 222.120,177.176 220.776 C 177.666 219.433,178.002 218.269,177.923 218.189 C 177.843 218.110,177.359 219.126,176.847 220.447 M122.244 222.646 C 123.100 223.221,124.025 223.873,124.300 224.095 C 124.575 224.316,124.800 224.387,124.800 224.251 C 124.800 223.907,121.567 221.600,121.084 221.600 C 120.866 221.600,121.388 222.071,122.244 222.646 M270.760 222.851 C 268.996 224.105,267.774 225.155,268.637 224.674 C 270.042 223.892,273.220 221.600,272.900 221.600 C 272.691 221.600,271.728 222.163,270.760 222.851 M207.469 223.779 C 206.552 226.471,206.659 227.058,207.618 224.600 C 208.048 223.500,208.341 222.423,208.269 222.207 C 208.197 221.992,207.837 222.699,207.469 223.779 M64.200 222.657 C 66.237 224.464,66.987 224.991,66.202 224.063 C 65.766 223.548,65.047 222.941,64.604 222.714 C 64.162 222.487,63.980 222.462,64.200 222.657 M68.400 225.593 C 69.884 226.872,72.895 228.802,73.378 228.784 C 73.610 228.775,73.260 228.480,72.600 228.127 C 71.940 227.775,70.770 227.003,70.000 226.411 C 68.211 225.035,67.087 224.461,68.400 225.593 M265.360 225.941 C 259.884 229.944,260.020 229.431,259.924 246.467 C 259.829 263.208,259.886 263.600,262.400 263.600 C 264.255 263.600,266.292 262.776,268.010 261.331 C 268.728 260.726,270.145 259.811,271.158 259.298 C 272.171 258.784,272.550 258.476,272.000 258.613 C 271.450 258.749,270.010 259.540,268.800 260.371 C 264.768 263.138,262.081 263.744,260.782 262.178 C 259.896 261.110,260.241 232.675,261.162 230.891 C 262.045 229.182,264.359 226.862,266.400 225.641 C 267.170 225.180,267.602 224.802,267.360 224.801 C 267.118 224.801,266.218 225.313,265.360 225.941 M128.884 226.019 C 130.592 226.921,132.381 229.007,133.066 230.896 C 133.434 231.910,133.546 232.007,133.570 231.331 C 133.627 229.698,129.371 225.156,127.841 225.218 C 127.598 225.227,128.068 225.588,128.884 226.019 M322.800 227.260 C 322.030 227.935,321.762 228.305,322.204 228.081 C 322.935 227.711,324.747 225.978,324.362 226.016 C 324.273 226.025,323.570 226.585,322.800 227.260 M318.018 230.250 C 316.136 231.586,315.971 231.818,317.429 231.077 C 318.105 230.734,318.892 230.171,319.178 229.826 C 319.860 229.005,319.677 229.072,318.018 230.250 M75.400 230.292 C 75.620 230.500,76.880 231.247,78.200 231.952 C 79.520 232.658,80.240 232.942,79.800 232.585 C 78.896 231.852,74.781 229.707,75.400 230.292 M204.842 232.842 C 204.342 234.395,204.004 235.737,204.091 235.824 C 204.177 235.911,204.658 234.711,205.158 233.158 C 205.658 231.605,205.996 230.263,205.909 230.176 C 205.823 230.089,205.342 231.289,204.842 232.842 M314.700 232.229 C 314.095 232.557,313.600 232.910,313.600 233.013 C 313.600 233.399,314.232 233.157,315.200 232.400 C 316.389 231.470,316.211 231.409,314.700 232.229 M133.769 241.000 C 133.770 245.620,133.828 247.455,133.899 245.078 C 133.970 242.701,133.969 238.921,133.898 236.678 C 133.827 234.435,133.769 236.380,133.769 241.000 M173.300 235.012 C 172.069 238.030,172.188 238.769,173.438 235.863 C 173.990 234.578,174.388 233.364,174.321 233.166 C 174.255 232.968,173.795 233.798,173.300 235.012 M310.800 234.235 C 309.810 234.798,308.640 235.593,308.200 236.001 C 307.760 236.409,306.320 237.375,305.000 238.148 C 302.619 239.543,299.371 241.493,295.590 243.800 C 292.797 245.503,286.800 249.639,286.800 249.861 C 286.800 250.090,287.119 249.894,290.395 247.654 C 291.828 246.674,293.450 245.568,294.000 245.196 C 295.277 244.332,302.701 239.864,305.683 238.164 C 306.939 237.448,308.379 236.473,308.883 235.996 C 309.387 235.520,310.610 234.704,311.600 234.184 C 312.590 233.663,313.220 233.231,313.000 233.223 C 312.780 233.216,311.790 233.671,310.800 234.235 M83.400 234.705 C 83.620 234.926,85.060 235.933,86.600 236.943 C 88.140 237.953,89.850 239.118,90.400 239.532 C 91.477 240.343,94.000 241.709,94.000 241.482 C 94.000 241.406,92.724 240.546,91.164 239.572 C 89.604 238.597,87.557 237.233,86.614 236.541 C 84.806 235.213,82.721 234.022,83.400 234.705 M203.232 239.464 C 203.205 240.200,202.524 242.588,201.426 245.800 C 201.276 246.240,201.499 245.970,201.923 245.200 C 202.823 243.563,203.766 239.850,203.469 239.111 C 203.356 238.830,203.249 238.989,203.232 239.464 M95.600 242.600 C 96.345 243.150,97.055 243.599,97.178 243.598 C 97.555 243.595,95.024 241.630,94.622 241.614 C 94.415 241.606,94.855 242.050,95.600 242.600 M99.567 244.945 C 100.100 245.601,101.600 246.593,101.600 246.289 C 101.600 246.213,101.015 245.722,100.300 245.199 C 99.496 244.610,99.216 244.513,99.567 244.945 M102.033 246.549 C 102.445 246.917,104.800 248.000,104.800 247.821 C 104.800 247.590,102.582 246.400,102.153 246.400 C 101.996 246.400,101.942 246.467,102.033 246.549 M106.088 249.013 C 106.686 249.643,107.247 250.077,107.335 249.979 C 107.423 249.880,106.933 249.365,106.247 248.834 L 105.000 247.869 106.088 249.013 M109.600 251.177 C 110.150 251.643,111.410 252.494,112.400 253.068 C 113.390 253.643,114.920 254.568,115.800 255.124 C 116.871 255.801,117.210 255.905,116.825 255.437 C 116.509 255.052,115.339 254.282,114.225 253.724 C 113.111 253.167,111.660 252.313,111.000 251.827 C 109.315 250.586,108.401 250.162,109.600 251.177 M282.800 251.800 C 281.878 252.570,280.994 253.200,280.834 253.200 C 280.675 253.200,279.579 253.920,278.400 254.800 C 277.221 255.680,276.427 256.400,276.637 256.400 C 276.846 256.400,277.644 255.886,278.409 255.258 C 279.174 254.630,280.340 253.823,281.000 253.463 C 282.258 252.778,285.149 250.400,284.723 250.400 C 284.587 250.400,283.722 251.030,282.800 251.800 M167.676 254.876 C 167.179 256.652,166.842 258.175,166.928 258.261 C 167.014 258.347,167.496 256.969,168.000 255.200 C 168.504 253.431,168.841 251.907,168.748 251.815 C 168.656 251.723,168.174 253.100,167.676 254.876 M199.596 254.700 C 199.594 255.085,199.144 256.363,198.596 257.540 C 198.048 258.717,197.602 259.887,197.605 260.140 C 197.607 260.393,198.060 259.664,198.611 258.520 C 199.640 256.381,200.293 254.000,199.850 254.000 C 199.713 254.000,199.598 254.315,199.596 254.700 M118.400 256.570 C 118.400 256.685,119.767 257.529,121.437 258.446 C 123.107 259.363,124.772 260.413,125.137 260.779 C 127.523 263.177,129.889 264.343,131.524 263.928 C 133.036 263.544,134.140 262.007,133.419 261.286 C 133.299 261.165,133.200 261.375,133.200 261.753 C 133.200 262.171,132.553 262.729,131.542 263.181 L 129.884 263.924 128.198 262.662 C 127.270 261.968,125.901 260.933,125.155 260.362 C 123.608 259.178,118.400 256.254,118.400 256.570 M274.500 257.246 C 273.217 258.067,272.913 258.414,273.500 258.386 C 273.831 258.370,276.321 256.401,276.000 256.409 C 275.890 256.411,275.215 256.788,274.500 257.246 M164.067 269.766 C 163.335 272.058,162.816 274.354,162.913 274.867 C 163.081 275.748,163.094 275.741,163.146 274.753 C 163.175 274.177,163.748 272.042,164.418 270.008 C 165.089 267.975,165.584 266.151,165.518 265.954 C 165.453 265.758,164.800 267.473,164.067 269.766 M196.000 266.075 C 196.000 266.372,192.526 280.038,192.206 281.000 C 191.948 281.773,191.956 281.774,192.426 281.035 C 193.006 280.122,196.474 266.341,196.194 266.061 C 196.087 265.954,196.000 265.960,196.000 266.075 M162.032 278.912 C 162.014 279.304,161.550 280.693,161.000 282.000 C 159.202 286.272,159.819 289.413,162.532 289.797 C 166.175 290.312,186.553 290.217,188.076 289.677 C 189.548 289.155,191.620 286.055,191.588 284.421 C 191.581 284.080,191.176 284.790,190.688 286.000 C 189.173 289.755,188.890 289.821,174.866 289.693 C 159.431 289.551,158.911 289.267,161.377 282.326 C 161.982 280.623,162.384 278.999,162.270 278.715 C 162.141 278.394,162.051 278.468,162.032 278.912 " stroke="none" fill="#fcbc88" fill-rule="evenodd"></path></g></svg>