<svg width="400" height="400" viewBox="0 0 400 400" xmlns="http://www.w3.org/2000/svg" display="block"><g fill-rule="evenodd"><path d="M0 200v200h400V0H0v200m236.985-96.632c1.343.561 2.206 2.267 2.213 4.369.005 1.827-1.733 8.987-2.473 10.184-.961 1.556-1.305 2.884-2.132 8.238-.336 2.178-.874 4.518-1.196 5.2-.321.683-1.046 3.294-1.61 5.804-.564 2.509-1.207 4.901-1.429 5.315-.221.414-.665 2.125-.986 3.803-.582 3.042-.918 3.783-2.231 4.919-.535.463-.841 1.969-1.34 6.6-.531 4.915-.827 6.306-1.636 7.692-.69 1.179-1.18 2.996-1.619 6-.347 2.369-.895 5.028-1.22 5.908-1.674 4.544-4.523 15.637-4.531 17.642-.006 1.41-.86 4.592-1.814 6.758-.388.88-1.017 3.435-1.399 5.678-.44 2.586-1.142 5.001-1.92 6.6-.89 1.832-1.35 3.561-1.679 6.322-.249 2.09-.875 4.88-1.392 6.2-.516 1.32-1.297 3.93-1.735 5.8-.438 1.87-1.014 3.94-1.279 4.6-.266.66-.806 3.074-1.2 5.365-.483 2.804-.99 4.503-1.551 5.2-1.267 1.574-1.604 2.624-1.852 5.76-.319 4.042-.952 6.741-1.8 7.676-.495.545-.999 2.461-1.579 6-.469 2.859-1.121 6.045-1.449 7.079-.328 1.034-.927 3.194-1.331 4.8-1.613 6.422-3.65 11.518-4.851 12.139-2.05 1.06-29.127.84-30.51-.248-1.714-1.348-1.558-6.334.318-10.202 1.087-2.241 1.465-3.666 1.815-6.855.519-4.716.875-6.115 1.938-7.612.813-1.148 1.455-3.811 1.904-7.902.145-1.32.699-3.66 1.231-5.2.533-1.54 1.255-4.06 1.605-5.6.349-1.54.989-3.7 1.42-4.8.432-1.1 1.033-3.407 1.336-5.127.327-1.856 1.023-3.969 1.713-5.2.962-1.715 1.277-3.002 1.822-7.455.522-4.266.828-5.562 1.473-6.248.568-.606 1.048-2.176 1.594-5.218.429-2.394 1.135-5.612 1.568-7.152 1.222-4.34 3.673-14.135 4.204-16.8.59-2.958.885-3.92 1.889-6.158.434-.967 1.037-3.648 1.34-5.957.583-4.44 1.047-6.21 2.223-8.485.398-.77 1.009-3.11 1.357-5.2.348-2.09 1.065-5.078 1.593-6.64.527-1.562 1.35-4.442 1.829-6.4.478-1.958 1.044-3.893 1.258-4.301.213-.407.557-1.937.764-3.4.55-3.892 1.055-5.482 2.151-6.785.825-.981 1.077-1.971 1.608-6.319.445-3.646.899-5.682 1.552-6.955 1.116-2.178 1.249-2.703 2.031-8.02 1.081-7.343 2.568-10.495 5.357-11.354 2.7-.831 26.671-.88 28.638-.058m25.168 22.993c.686.419 1.994.982 2.906 1.251.913.27 2.083.872 2.6 1.339.518.467 1.751 1.371 2.741 2.01.99.638 1.944 1.403 2.12 1.7.176.296.555.539.842.539.288 0 1.314.6 2.28 1.333a43.145 43.145 0 0 0 3.758 2.48c1.1.631 2.145 1.382 2.321 1.67.177.287 1.033.886 1.903 1.329.869.444 1.803 1.163 2.075 1.597.271.435.647.791.835.791.47 0 6.237 4.094 7.466 5.301.55.539 1.765 1.371 2.7 1.848.935.477 1.7 1.041 1.7 1.253 0 .213 1.046.914 2.324 1.56 1.278.645 2.572 1.471 2.875 1.837.303.365 1.383 1.085 2.401 1.601 1.018.516 2.084 1.219 2.369 1.563.285.343 1.328 1.029 2.316 1.522.989.494 2.007 1.197 2.263 1.562.256.365 1.14.946 1.964 1.291.825.344 1.609.912 1.743 1.261.134.35 1.887 1.691 3.895 2.981 2.007 1.289 4.2 2.902 4.872 3.582.672.681 1.441 1.238 1.709 1.238s1.259.712 2.203 1.582c.945.871 2.564 1.946 3.6 2.39 1.036.444 1.982 1.065 2.103 1.381.121.315.793.803 1.492 1.082.699.28 1.901 1.03 2.671 1.666 3.013 2.492 6.167 4.699 6.713 4.699.872 0 4.401 3.737 4.766 5.046.176.635.321 5.654.321 11.154 0 11.48-.18 12.461-2.494 13.564-.813.388-2.114 1.206-2.892 1.817-.778.612-1.864 1.247-2.414 1.412-.55.164-1.36.618-1.8 1.009-.44.39-1.79 1.204-3 1.808-1.21.603-2.709 1.523-3.331 2.044-.622.52-1.32.946-1.551.946-.232 0-1.484.726-2.784 1.613-1.299.887-2.901 1.72-3.558 1.852-.675.135-1.553.741-2.017 1.393-.452.635-1.393 1.446-2.091 1.803-.697.357-1.898 1.14-2.668 1.74-.77.601-1.85 1.231-2.4 1.4-.55.169-1.57.804-2.266 1.411s-1.956 1.324-2.8 1.593c-.844.269-2.074.989-2.734 1.599-1.448 1.34-6.98 4.796-7.676 4.796-.273 0-1.087.507-1.81 1.127-.723.62-2.152 1.513-3.177 1.985-1.024.471-2.355 1.314-2.958 1.873-.603.558-1.323 1.015-1.6 1.015-.277 0-1.253.627-2.17 1.392-.916.766-2.417 1.595-3.335 1.842-.918.247-2.335 1.05-3.148 1.785-.813.735-1.997 1.604-2.631 1.932-.634.328-1.394.887-1.689 1.241-.294.355-1.496 1.1-2.671 1.656-1.174.556-2.135 1.144-2.135 1.307 0 .164-1.035.718-2.3 1.232s-2.66 1.356-3.1 1.872c-2.658 3.116-8.353 5.034-10.238 3.448l-1.194-1.005.116-17.138.116-17.137 2.183-2.21c1.633-1.654 2.859-2.469 4.866-3.236 1.475-.563 2.785-1.293 2.911-1.621.126-.328 1.402-1.146 2.835-1.816 1.433-.671 2.605-1.366 2.605-1.546 0-.18.855-.733 1.9-1.231 1.045-.497 2.637-1.403 3.539-2.012.901-.61 2.092-1.223 2.647-1.362.554-.139 1.39-.77 1.857-1.401.581-.786 1.576-1.368 3.153-1.845 1.267-.383 2.664-1.002 3.104-1.375 1.043-.885 3.208-1.972 3.925-1.972.311 0 1.244-.54 2.075-1.2.831-.66 1.68-1.2 1.887-1.2.208 0 1.308-.617 2.445-1.372 1.137-.754 2.878-1.75 3.868-2.211.99-.462 2.696-1.463 3.791-2.225 1.095-.762 2.165-1.444 2.379-1.515.214-.072-.007-.686-.49-1.365-.484-.68-.88-1.413-.88-1.63 0-.217-.855-.795-1.9-1.285-1.045-.49-2.35-1.205-2.9-1.588-.55-.384-1.672-.916-2.494-1.182-.821-.267-1.825-.906-2.23-1.422-.405-.515-1.443-1.23-2.307-1.589-.863-.359-2.199-1.156-2.969-1.772-.77-.616-1.953-1.406-2.629-1.756-.676-.349-1.459-.912-1.74-1.25-.281-.339-1.464-1.052-2.63-1.586s-2.488-1.339-2.939-1.79c-.451-.451-1.353-1.095-2.005-1.433-.653-.337-1.517-1.024-1.922-1.525-.404-.502-1.537-1.27-2.518-1.706-.98-.437-2.311-1.277-2.957-1.867-.646-.59-1.6-1.18-2.12-1.31-.923-.232-4.968-2.752-7.704-4.8-.751-.562-1.658-1.021-2.017-1.021-.856 0-3.855-3.089-4.396-4.526-.273-.726-.423-7.085-.423-17.918v-16.792l.982-.982c1.179-1.18 1.197-1.181 2.771-.221m-127.989 1.819c1.105 2.33 1.152 32.893.054 35.42-.805 1.852-2.017 3.163-2.946 3.187-.584.014-5.678 3.033-8.189 4.851-.881.639-1.818 1.162-2.081 1.162-.263 0-.821.385-1.24.856-.419.471-1.803 1.352-3.074 1.958-1.272.606-2.782 1.571-3.355 2.144-.573.573-1.287 1.042-1.586 1.042-.3 0-1.249.637-2.11 1.415-1.685 1.521-3.642 2.715-7.437 4.533-1.32.632-2.85 1.64-3.4 2.24-.55.599-1.642 1.419-2.427 1.822-.784.402-1.663 1.017-1.953 1.365-.289.349-1.267.988-2.173 1.421-4.852 2.318-7.166 3.881-8.108 5.476l-.966 1.636 2.18 1.231c1.2.677 2.293 1.413 2.431 1.635.137.222 1.006.608 1.929.856.924.249 2.211.839 2.861 1.311 1.675 1.217 5.188 3.21 8.226 4.666 1.43.685 2.96 1.572 3.4 1.97.44.399 1.475.941 2.3 1.205.826.264 2.001.98 2.612 1.591.61.611 2.005 1.565 3.099 2.121 4.651 2.362 6.828 3.589 7.584 4.276.443.402 1.511.958 2.373 1.234.863.277 2.231 1.178 3.04 2.004 1.2 1.224 1.866 1.555 3.623 1.796 2.382.328 4.246 1.882 5.515 4.596 1.035 2.215.781 33.519-.289 35.588-1.164 2.249-3.809 2.264-6.131.034-.928-.892-1.917-1.622-2.197-1.622-.281 0-.816-.466-1.189-1.036-.373-.569-1.653-1.466-2.843-1.993-1.191-.526-2.703-1.41-3.362-1.964-.658-.554-1.408-1.007-1.667-1.007-.259 0-1.306-.594-2.328-1.321-1.022-.726-2.575-1.644-3.453-2.04-.877-.395-1.813-1.128-2.081-1.628-.267-.499-1.152-1.108-1.965-1.351-.813-.244-2.095-.994-2.848-1.666-.753-.673-1.825-1.33-2.381-1.461-.557-.131-1.619-.69-2.361-1.243-.742-.553-2.172-1.443-3.178-1.978-1.007-.535-2.348-1.409-2.982-1.942-.634-.534-1.463-.97-1.844-.97-.38 0-1.839-.808-3.241-1.796-1.403-.988-2.851-1.891-3.218-2.008-.367-.116-.85-.614-1.074-1.107-.27-.592-1.027-1.06-2.239-1.384-1.006-.27-2.449-1.033-3.205-1.697-.757-.665-1.563-1.208-1.792-1.208-.229 0-1.196-.593-2.147-1.318-.952-.725-2.571-1.724-3.598-2.22-1.027-.496-2.156-1.342-2.509-1.882-.353-.539-.882-.98-1.174-.98-.292 0-1.765-.81-3.272-1.8s-2.96-1.8-3.229-1.8c-.268 0-.996-.426-1.618-.946-.622-.521-2.031-1.401-3.131-1.957-1.1-.556-2.343-1.39-2.762-1.854-.419-.464-1.08-.843-1.469-.843s-1.487-.585-2.438-1.3c-.952-.715-2.416-1.66-3.253-2.1-3.755-1.973-4.246-3.653-4.306-14.723l-.047-8.724 1.043-1.576c.574-.868 1.185-1.577 1.357-1.577.173 0 1.063-.72 1.979-1.6.916-.88 1.917-1.6 2.226-1.6.308 0 1.183-.495 1.945-1.1.762-.605 2.091-1.46 2.955-1.9.863-.44 1.809-1.121 2.102-1.513.292-.392 1.313-1.08 2.268-1.529.955-.449 1.832-1.065 1.949-1.369.117-.304.924-.916 1.795-1.36.871-.445 2.402-1.488 3.404-2.319 2.727-2.262 4.5-3.537 8.252-5.934 1.87-1.194 3.94-2.712 4.6-3.374.66-.661 1.404-1.203 1.654-1.202.25 0 1.438-.81 2.641-1.8 1.202-.99 2.376-1.8 2.608-1.8.232 0 1.175-.63 2.097-1.4.922-.77 1.814-1.4 1.983-1.4.169 0 .973-.53 1.788-1.177.814-.647 2.324-1.579 3.355-2.071 1.031-.492 2.019-1.135 2.196-1.428.178-.293 1.213-.984 2.3-1.535 1.088-.552 1.978-1.165 1.978-1.363 0-.393 6.043-5.114 7.031-5.493.334-.129 1.125-.751 1.758-1.383.632-.633 1.393-1.15 1.691-1.15.298 0 1.139-.546 1.87-1.213.73-.667 2.21-1.66 3.289-2.207 1.078-.546 1.961-1.137 1.961-1.313 0-.176.765-.749 1.7-1.274.935-.525 2.753-1.773 4.041-2.774 4.823-3.749 5.61-4.204 7.659-4.433 2.444-.273 2.354-.312 3.164 1.394" fill="#f47b23"/><path d="M229.2 105.674c-1.87.201-6.759.258-10.864.127l-7.465-.237-1.589 1.518c-1.392 1.33-1.672 1.915-2.26 4.718-.369 1.76-1.1 4.46-1.625 6-.525 1.54-1.229 4.312-1.565 6.16-.336 1.847-1.055 4.21-1.599 5.25-.641 1.225-1.269 3.612-1.783 6.778-.441 2.716-1.058 5.181-1.389 5.55-.326.364-.808 1.832-1.069 3.262-1.057 5.782-1.709 8.65-2.183 9.6-.274.55-.787 2.456-1.139 4.236-.353 1.779-1.091 4.483-1.641 6.007-.549 1.524-1.177 4.298-1.394 6.164-.217 1.866-.839 4.687-1.383 6.268-.543 1.582-1.365 4.732-1.826 7-.461 2.269-1.272 5.025-1.803 6.125-.531 1.1-1.169 3.08-1.417 4.4-1.624 8.628-3.162 15.249-4.462 19.2-.434 1.32-1.239 4.02-1.788 6-.549 1.98-1.371 4.117-1.826 4.749-.619.861-1.002 2.52-1.525 6.612-.453 3.541-.985 6.024-1.514 7.06-.448.88-1.214 3.485-1.702 5.789-.487 2.305-1.12 4.763-1.406 5.462-.285.7-.823 2.761-1.193 4.579-.371 1.819-1.114 4.653-1.651 6.297-.537 1.645-1.146 4.355-1.354 6.021-.208 1.667-.909 4.651-1.557 6.631-.649 1.98-1.566 5.747-2.04 8.371l-.86 4.772.915.689c1.958 1.478 21.634 1.605 24.557.16 1.773-.878 1.678-.602 5.612-16.13.744-2.935 1.518-5.545 1.721-5.8.203-.254.573-1.662.824-3.128.523-3.065 1.425-5.817 2.2-6.714.69-.799.942-1.905 1.645-7.234.337-2.56.912-5.033 1.383-5.956.443-.869 1.088-3.335 1.433-5.48.345-2.145.983-4.901 1.417-6.125.434-1.224 1.225-3.935 1.759-6.025.533-2.09 1.244-4.575 1.578-5.523.335-.948.785-3.124.999-4.836.215-1.713.922-4.717 1.571-6.677.65-1.96 1.581-5.544 2.069-7.964.488-2.42 1.294-5.39 1.791-6.6.497-1.21 1.198-4 1.558-6.2.36-2.2 1.172-5.53 1.805-7.4 2.406-7.111 3.313-10.331 4.041-14.353.414-2.284 1.212-5.074 1.773-6.2.561-1.126 1.2-3.353 1.42-4.95.561-4.079 1.034-6.017 2.002-8.207.463-1.045 1.113-3.458 1.445-5.363.333-1.904.877-4.197 1.209-5.095.332-.898.959-3.511 1.392-5.807.433-2.297 1.217-5.267 1.742-6.6.525-1.334 1.144-4.03 1.376-5.992.291-2.456.798-4.37 1.629-6.145.663-1.418 1.206-2.639 1.206-2.714 0-.181-3.509-2.589-3.672-2.519-.07.029-1.658.218-3.528.419m-99.899 24.713c-.271.433-1.079 1.091-1.797 1.462-1.35.698-2.969 1.934-6.357 4.851-1.085.935-2.141 1.7-2.346 1.7-.205 0-.982.535-1.727 1.188-.744.654-2.145 1.552-3.113 1.996-1.779.815-4.767 2.805-6.947 4.625-.652.545-1.398.991-1.658.991-.259 0-1.064.553-1.788 1.23-.724.676-2.085 1.639-3.025 2.139-.94.5-2.217 1.432-2.839 2.07-.622.639-1.665 1.473-2.317 1.855-.653.381-2.707 1.769-4.565 3.083-1.858 1.315-3.883 2.6-4.5 2.855-.617.256-1.122.617-1.122.802 0 .185-1.125 1.093-2.5 2.018-1.375.925-3.009 2.102-3.631 2.615-.622.513-1.456.933-1.854.933-.398 0-1.016.448-1.375.995-.358.547-1.324 1.368-2.146 1.824-2.104 1.167-5.318 3.358-6.46 4.402-.531.486-1.611 1.257-2.4 1.713-.789.456-1.568 1.045-1.732 1.308-.164.264-1.154.976-2.2 1.583-1.046.607-2.044 1.341-2.218 1.631-.173.291-1.163 1.016-2.2 1.612-1.036.595-2.393 1.499-3.015 2.007-.622.509-1.376.925-1.677.925-.752 0-5.306 4.274-6.015 5.645-.448.866-.577 2.959-.577 9.351v8.235l1.54 1.603c.847.881 2.242 1.973 3.1 2.427.858.453 1.92 1.143 2.36 1.534.44.391 1.43 1.027 2.2 1.413.77.386 2.056 1.217 2.858 1.847.801.63 1.589 1.145 1.751 1.145.162 0 1.314.696 2.56 1.547 1.247.851 2.659 1.671 3.138 1.824.48.152 1.209.705 1.621 1.229.413.524 1.767 1.434 3.011 2.023 1.243.589 2.261 1.232 2.261 1.429 0 .197.983.824 2.183 1.392 1.201.569 2.386 1.277 2.633 1.575.247.298 1.289.937 2.316 1.421 1.028.484 2.408 1.277 3.068 1.762.66.486 1.65 1.025 2.2 1.199 1.282.405 3.654 1.9 4.355 2.745.299.36.785.654 1.08.654.295 0 1.128.509 1.851 1.131.723.622 2.361 1.747 3.64 2.5 1.28.753 3.26 1.947 4.4 2.654a162.99 162.99 0 0 0 4.022 2.4c1.071.613 2.747 1.79 3.724 2.615.977.825 2.016 1.5 2.307 1.5.292 0 1.447.63 2.566 1.4 1.12.77 2.185 1.4 2.367 1.4.182 0 1.222.576 2.31 1.28 1.088.703 2.788 1.668 3.778 2.143.99.475 2.143 1.249 2.562 1.72.419.471 1.016.857 1.327.857.488 0 3.133 1.738 3.711 2.438.687.833 2.022 1.155 2.791.675.886-.554.947-.958 1.006-6.713.021-2.09.19-7.4.376-11.8.509-12.109-.708-15.234-6.758-17.361-1.292-.454-2.729-1.183-3.193-1.619-.465-.436-1.642-1.074-2.616-1.418-.975-.344-2.605-1.16-3.624-1.814-1.019-.653-2.043-1.188-2.277-1.188-.233 0-1.361-.63-2.505-1.4-1.144-.77-2.224-1.4-2.4-1.4-.176 0-1.283-.649-2.46-1.442-1.177-.793-2.818-1.714-3.647-2.046-.83-.333-1.833-1.018-2.23-1.522-.397-.505-1.878-1.467-3.292-2.138a78.6 78.6 0 0 1-4.971-2.627c-1.32-.774-3.686-2.028-5.258-2.787-1.573-.759-2.98-1.575-3.127-1.814-.147-.238-1.226-1.046-2.397-1.795-2.751-1.76-2.741-1.734-1.592-4.055.969-1.959 3.559-3.894 8.522-6.371.741-.37 2.202-1.287 3.247-2.038 1.046-.751 2.104-1.365 2.352-1.365.248 0 1.147-.629 1.998-1.398.851-.769 2.157-1.654 2.901-1.966 1.756-.737 5.875-3.194 7.154-4.268 1.708-1.434 6.327-4.263 7.399-4.532.562-.141 1.692-.856 2.511-1.589 1.579-1.412 3.868-3.003 6.686-4.647.942-.55 2.178-1.465 2.746-2.033.568-.568 1.761-1.251 2.652-1.518 3.642-1.091 4.623-4.501 4.16-14.449-.189-4.07-.346-9.83-.349-12.8-.005-5.097-.06-5.473-.98-6.7-1.154-1.539-.931-1.463-1.524-.513m133.925 1.193c-.873.659-.877.723-.89 14.763l-.013 14.101 1.042 1.575c.573.866 1.805 2.061 2.738 2.656.934.595 2.108 1.444 2.611 1.886.503.443 1.692 1.263 2.641 1.822 3.493 2.057 5.571 3.448 7.007 4.689.81.699 1.929 1.386 2.488 1.526.558.14 1.5.704 2.092 1.254.593.549 2.153 1.532 3.468 2.184 1.314.653 2.39 1.361 2.39 1.575 0 .214.246.389.548.389.301 0 1.426.688 2.5 1.528 1.073.841 2.772 1.906 3.774 2.366 1.003.46 2.066 1.13 2.362 1.487.297.358 1.399 1.02 2.449 1.471 1.051.452 2.238 1.186 2.638 1.632.401.445 1.682 1.232 2.848 1.749 1.165.517 2.781 1.486 3.591 2.153.81.668 1.67 1.214 1.911 1.214.637 0 1.92 1.544 2.908 3.502l.86 1.701-1.655 1.199c-.91.659-1.888 1.198-2.174 1.198-.286 0-.682.288-.879.641-.389.695-4.08 3.021-7.847 4.946-1.301.664-2.651 1.452-3 1.751-.349.299-1.444.975-2.434 1.503-.99.527-2.067 1.213-2.394 1.524-.326.311-1.586.996-2.8 1.524-1.213.528-2.476 1.127-2.806 1.332-1.764 1.094-4.448 2.379-4.971 2.379-.329 0-.92.344-1.313.764-.67.714-3.647 2.41-8.316 4.736-1.1.548-2.36 1.305-2.8 1.682-.44.377-1.7 1.063-2.8 1.524-6.213 2.604-6.663 4.006-6.656 20.701.008 15.913.187 16.778 3.011 14.557.53-.417 3.277-1.958 6.104-3.424 2.828-1.466 5.65-3.087 6.272-3.602.622-.516 1.29-.938 1.486-.938.195 0 .958-.53 1.696-1.177.737-.647 2.318-1.562 3.513-2.032 1.196-.471 2.311-1.099 2.479-1.397.168-.298 1.293-1.106 2.5-1.797 1.207-.691 2.195-1.406 2.195-1.591 0-.184.875-.77 1.944-1.303 1.07-.533 2.492-1.359 3.162-1.836.67-.477 1.353-.867 1.519-.867.166 0 1.227-.714 2.358-1.587 1.132-.873 2.678-1.85 3.437-2.17.759-.321 2.358-1.317 3.552-2.213 1.195-.897 2.478-1.63 2.851-1.63.374 0 .92-.29 1.214-.645.295-.355 1.532-1.095 2.749-1.644 1.218-.55 2.576-1.331 3.019-1.736.443-.405 1.433-1.001 2.2-1.324.767-.323 2.002-1.132 2.743-1.798.742-.666 1.874-1.326 2.517-1.467.642-.141 1.982-.961 2.976-1.821.994-.861 1.952-1.565 2.128-1.565.177 0 1.021-.558 1.876-1.24.855-.683 2.365-1.681 3.355-2.22 2.635-1.433 5.664-3.359 7.611-4.84.94-.715 1.926-1.3 2.191-1.3.264 0 .957-.441 1.537-.979.581-.538 1.355-1.146 1.719-1.349.977-.547 1.372-4.229 1.123-10.472-.354-8.899-.188-8.372-3.5-11.076-2.797-2.284-3.319-2.676-6.281-4.714a77.396 77.396 0 0 1-3-2.207c-.88-.685-2.748-2.135-4.151-3.224-1.403-1.088-2.784-1.979-3.069-1.979-.285 0-1.027-.497-1.649-1.105-.622-.609-1.581-1.306-2.131-1.55-.55-.245-1.985-1.187-3.189-2.095-1.204-.907-2.386-1.65-2.625-1.65-.24 0-.954-.54-1.586-1.2-.632-.66-1.345-1.2-1.583-1.2-.446 0-5.018-3.13-7.297-4.996-.704-.576-2.774-2.014-4.6-3.195-1.826-1.182-3.95-2.677-4.72-3.324-.77-.647-1.976-1.47-2.68-1.83-.704-.36-1.424-.896-1.6-1.191-.176-.295-1.16-1.023-2.186-1.618-1.026-.595-2.095-1.358-2.375-1.695-.28-.338-1.365-1.047-2.411-1.578-1.047-.53-2.048-1.211-2.226-1.514-.177-.303-.862-.827-1.523-1.164-.66-.337-1.56-1.011-2-1.497-.439-.486-1.519-1.248-2.399-1.694-.88-.447-2.191-1.327-2.914-1.958-.723-.63-1.533-1.148-1.8-1.15-.267-.003-1.562-.813-2.878-1.8-1.316-.988-2.517-1.796-2.669-1.796-.153 0-.796-.436-1.43-.97-2.521-2.121-4.706-2.986-5.683-2.25" fill="#fcf6f3"/><path d="M208.347 103.426c-2.789.859-4.276 4.011-5.357 11.354-.782 5.317-.915 5.842-2.031 8.02-.653 1.273-1.107 3.309-1.552 6.955-.531 4.348-.783 5.338-1.608 6.319-1.096 1.303-1.601 2.893-2.151 6.785-.207 1.463-.551 2.993-.764 3.4-.214.408-.78 2.343-1.258 4.301-.479 1.958-1.302 4.838-1.829 6.4-.528 1.562-1.245 4.55-1.593 6.64-.348 2.09-.959 4.43-1.357 5.2-1.176 2.275-1.64 4.045-2.223 8.485-.303 2.309-.906 4.99-1.34 5.957-1.004 2.238-1.299 3.2-1.889 6.158-.531 2.665-2.982 12.46-4.204 16.8-.433 1.54-1.139 4.758-1.568 7.152-.546 3.042-1.026 4.612-1.594 5.218-.645.686-.951 1.982-1.473 6.248-.545 4.453-.86 5.74-1.822 7.455-.69 1.231-1.386 3.344-1.713 5.2-.303 1.72-.904 4.027-1.336 5.127-.431 1.1-1.071 3.26-1.42 4.8-.35 1.54-1.072 4.06-1.605 5.6-.532 1.54-1.086 3.88-1.231 5.2-.449 4.091-1.091 6.754-1.904 7.902-1.063 1.497-1.419 2.896-1.938 7.612-.35 3.189-.728 4.614-1.815 6.855-1.876 3.868-2.032 8.854-.318 10.202 1.383 1.088 28.46 1.308 30.51.248 1.201-.621 3.238-5.717 4.851-12.139.404-1.606 1.003-3.766 1.331-4.8.328-1.034.98-4.22 1.449-7.079.58-3.539 1.084-5.455 1.579-6 .848-.935 1.481-3.634 1.8-7.676.248-3.136.585-4.186 1.852-5.76.561-.697 1.068-2.396 1.551-5.2.394-2.291.934-4.705 1.2-5.365.265-.66.841-2.73 1.279-4.6.438-1.87 1.219-4.48 1.735-5.8.517-1.32 1.143-4.11 1.392-6.2.329-2.761.789-4.49 1.679-6.322.778-1.599 1.48-4.014 1.92-6.6.382-2.243 1.011-4.798 1.399-5.678.954-2.166 1.808-5.348 1.814-6.758.008-2.005 2.857-13.098 4.531-17.642.325-.88.873-3.539 1.22-5.908.439-3.004.929-4.821 1.619-6 .809-1.386 1.105-2.777 1.636-7.692.499-4.631.805-6.137 1.34-6.6 1.313-1.136 1.649-1.877 2.231-4.919.321-1.678.765-3.389.986-3.803.222-.414.865-2.806 1.429-5.315.564-2.51 1.289-5.121 1.61-5.804.322-.682.86-3.022 1.196-5.2.827-5.354 1.171-6.682 2.132-8.238.74-1.197 2.478-8.357 2.473-10.184-.007-2.102-.87-3.808-2.213-4.369-1.967-.822-25.938-.773-28.638.058m27.873 1.179c1.869 1.159 1.881 5.304.025 8.915-.305.594-1.039 3.33-1.63 6.08-.592 2.75-1.979 8.51-3.083 12.8a1347.06 1347.06 0 0 0-2.971 11.74c-.53 2.167-1.299 4.417-1.71 5-.99 1.407-1.162 2.054-1.612 6.069-.21 1.875-.917 5.025-1.57 7-.652 1.975-1.49 5.121-1.86 6.991-.657 3.318-2.072 8.154-4.038 13.8-.536 1.54-.974 3.303-.973 3.917.003 1.707-1.14 6.876-2.406 10.883-.626 1.98-1.347 4.77-1.603 6.2-.255 1.43-.976 4.13-1.601 6-.626 1.87-1.516 5.38-1.98 7.8-.463 2.42-1.272 5.84-1.798 7.6-2.468 8.258-3.435 11.857-4.024 14.966-.35 1.851-.981 4.041-1.402 4.866-.915 1.794-1.523 4.347-1.966 8.259-.18 1.59-.704 3.612-1.163 4.494-.46.881-1.925 6.06-3.255 11.509-1.331 5.448-2.683 10.536-3.005 11.306-.321.77-.775 2.291-1.009 3.381-.644 2.997-1.882 4.917-3.555 5.511-1.48.525-21.932.609-25.499.105-2.709-.384-3.33-3.525-1.538-7.783.547-1.299 1.26-4.005 1.585-6.014.325-2.008 1.057-5.003 1.627-6.656.571-1.652 1.475-5.196 2.009-7.874.535-2.679 1.692-7.48 2.571-10.67.88-3.19 2.14-7.78 2.8-10.199.661-2.42 1.575-5.268 2.031-6.33.457-1.061 1.071-3.761 1.366-6 .295-2.239.934-5.151 1.421-6.471 1.553-4.211 3.546-11.075 4.413-15.2.462-2.2 1.277-5.404 1.812-7.121.534-1.716.971-3.721.971-4.454 0-1.297 1.105-5.298 2.728-9.874.439-1.237 1.021-3.667 1.294-5.4.273-1.733.823-3.996 1.223-5.03.399-1.033 1.273-4.453 1.94-7.6.667-3.146 1.949-8.241 2.848-11.321.899-3.08 2.068-7.635 2.597-10.123.528-2.487 1.494-5.736 2.144-7.218.749-1.707 1.344-3.986 1.621-6.215.24-1.936.795-4.447 1.232-5.582.437-1.134 1.71-5.752 2.828-10.262 2.188-8.819 2.503-9.671 4.138-11.2l1.07-1 11.668-.2c12.66-.217 14.053-.162 15.289.605m23.162 21.977l-.982.982v16.792c0 10.833.15 17.192.423 17.918.541 1.437 3.54 4.526 4.396 4.526.359 0 1.266.459 2.017 1.021 2.736 2.048 6.781 4.568 7.704 4.8.52.13 1.474.72 2.12 1.31.646.59 1.977 1.43 2.957 1.867.981.436 2.114 1.204 2.518 1.706.405.501 1.269 1.188 1.922 1.525.652.338 1.554.982 2.005 1.433.451.451 1.773 1.256 2.939 1.79 1.166.534 2.349 1.247 2.63 1.586.281.338 1.064.901 1.74 1.25.676.35 1.859 1.14 2.629 1.756.77.616 2.106 1.413 2.969 1.772.864.359 1.902 1.074 2.307 1.589.405.516 1.409 1.155 2.23 1.422.822.266 1.944.798 2.494 1.182.55.383 1.855 1.098 2.9 1.588s1.9 1.068 1.9 1.285c0 .217.396.95.88 1.63.483.679.704 1.293.49 1.365-.214.071-1.284.753-2.379 1.515-1.095.762-2.801 1.763-3.791 2.225-.99.461-2.731 1.457-3.868 2.211-1.137.755-2.237 1.372-2.445 1.372-.207 0-1.056.54-1.887 1.2-.831.66-1.764 1.2-2.075 1.2-.717 0-2.882 1.087-3.925 1.972-.44.373-1.837.992-3.104 1.375-1.577.477-2.572 1.059-3.153 1.845-.467.631-1.303 1.262-1.857 1.401-.555.139-1.746.752-2.647 1.362-.902.609-2.494 1.515-3.539 2.012-1.045.498-1.9 1.051-1.9 1.231 0 .18-1.172.875-2.605 1.546-1.433.67-2.709 1.488-2.835 1.816-.126.328-1.436 1.058-2.911 1.621-2.007.767-3.233 1.582-4.866 3.236l-2.183 2.21-.116 17.137-.116 17.138 1.194 1.005c1.885 1.586 7.58-.332 10.238-3.448.44-.516 1.835-1.358 3.1-1.872 1.265-.514 2.3-1.068 2.3-1.232 0-.163.961-.751 2.135-1.307 1.175-.556 2.377-1.301 2.671-1.656.295-.354 1.055-.913 1.689-1.241.634-.328 1.818-1.197 2.631-1.932.813-.735 2.23-1.538 3.148-1.785.918-.247 2.419-1.076 3.335-1.842.917-.765 1.893-1.392 2.17-1.392.277 0 .997-.457 1.6-1.015.603-.559 1.934-1.402 2.958-1.873 1.025-.472 2.454-1.365 3.177-1.985.723-.62 1.537-1.127 1.81-1.127.696 0 6.228-3.456 7.676-4.796.66-.61 1.89-1.33 2.734-1.599.844-.269 2.104-.986 2.8-1.593.696-.607 1.716-1.242 2.266-1.411.55-.169 1.63-.799 2.4-1.4.77-.6 1.971-1.383 2.668-1.74.698-.357 1.639-1.168 2.091-1.803.464-.652 1.342-1.258 2.017-1.393.657-.132 2.259-.965 3.558-1.852 1.3-.887 2.552-1.613 2.784-1.613.231 0 .929-.426 1.551-.946.622-.521 2.121-1.441 3.331-2.044 1.21-.604 2.56-1.418 3-1.808.44-.391 1.25-.845 1.8-1.009.55-.165 1.636-.8 2.414-1.412.778-.611 2.079-1.429 2.892-1.817C350.82 212.261 351 211.28 351 199.8c0-5.5-.145-10.519-.321-11.154-.365-1.309-3.894-5.046-4.766-5.046-.546 0-3.7-2.207-6.713-4.699-.77-.636-1.972-1.386-2.671-1.666-.699-.279-1.371-.767-1.492-1.082-.121-.316-1.067-.937-2.103-1.381-1.036-.444-2.655-1.519-3.6-2.39-.944-.87-1.935-1.582-2.203-1.582-.268 0-1.037-.557-1.709-1.238-.672-.68-2.865-2.293-4.872-3.582-2.008-1.29-3.761-2.631-3.895-2.981-.134-.349-.918-.917-1.743-1.261-.824-.345-1.708-.926-1.964-1.291-.256-.365-1.274-1.068-2.263-1.562-.988-.493-2.031-1.179-2.316-1.522-.285-.344-1.351-1.047-2.369-1.563-1.018-.516-2.098-1.236-2.401-1.601-.303-.366-1.597-1.192-2.875-1.837-1.278-.646-2.324-1.347-2.324-1.56 0-.212-.765-.776-1.7-1.253-.935-.477-2.15-1.309-2.7-1.848-1.229-1.207-6.996-5.301-7.466-5.301-.188 0-.564-.356-.835-.791-.272-.434-1.206-1.153-2.075-1.597-.87-.443-1.726-1.042-1.903-1.329-.176-.288-1.221-1.039-2.321-1.67a43.145 43.145 0 0 1-3.758-2.48c-.966-.733-1.992-1.333-2.28-1.333-.287 0-.666-.243-.842-.539-.176-.297-1.13-1.062-2.12-1.7-.99-.639-2.223-1.543-2.741-2.01-.517-.467-1.687-1.069-2.6-1.339-.912-.269-2.22-.832-2.906-1.251-1.574-.96-1.592-.959-2.771.221M131 126.786c-2.049.229-2.836.684-7.659 4.433-1.288 1.001-3.106 2.249-4.041 2.774-.935.525-1.7 1.098-1.7 1.274 0 .176-.883.767-1.961 1.313-1.079.547-2.559 1.54-3.289 2.207-.731.667-1.572 1.213-1.87 1.213-.298 0-1.059.517-1.691 1.15-.633.632-1.424 1.254-1.758 1.383-.988.379-7.031 5.1-7.031 5.493 0 .198-.89.811-1.978 1.363-1.087.551-2.122 1.242-2.3 1.535-.177.293-1.165.936-2.196 1.428-1.031.492-2.541 1.424-3.355 2.071-.815.647-1.619 1.177-1.788 1.177-.169 0-1.061.63-1.983 1.4-.922.77-1.865 1.4-2.097 1.4-.232 0-1.406.81-2.608 1.8-1.203.99-2.391 1.8-2.641 1.8-.25-.001-.994.541-1.654 1.202-.66.662-2.73 2.18-4.6 3.374-3.752 2.397-5.525 3.672-8.252 5.934-1.002.831-2.533 1.874-3.404 2.319-.871.444-1.678 1.056-1.795 1.36-.117.304-.994.92-1.949 1.369-.955.449-1.976 1.137-2.268 1.529-.293.392-1.239 1.073-2.102 1.513-.864.44-2.193 1.295-2.955 1.9s-1.637 1.1-1.945 1.1c-.309 0-1.31.72-2.226 1.6-.916.88-1.806 1.6-1.979 1.6-.172 0-.783.709-1.357 1.577l-1.043 1.576.047 8.724c.06 11.07.551 12.75 4.306 14.723.837.44 2.301 1.385 3.253 2.1.951.715 2.049 1.3 2.438 1.3.389 0 1.05.379 1.469.843.419.464 1.662 1.298 2.762 1.854s2.509 1.436 3.131 1.957c.622.52 1.35.946 1.618.946.269 0 1.722.81 3.229 1.8 1.507.99 2.98 1.8 3.272 1.8.292 0 .821.441 1.174.98.353.54 1.482 1.386 2.509 1.882s2.646 1.495 3.598 2.22c.951.725 1.918 1.318 2.147 1.318.229 0 1.035.543 1.792 1.208.756.664 2.199 1.427 3.205 1.697 1.212.324 1.969.792 2.239 1.384.224.493.707.991 1.074 1.107.367.117 1.815 1.02 3.218 2.008 1.402.988 2.861 1.796 3.241 1.796.381 0 1.21.436 1.844.97.634.533 1.975 1.407 2.982 1.942 1.006.535 2.436 1.425 3.178 1.978.742.553 1.804 1.112 2.361 1.243.556.131 1.628.788 2.381 1.461.753.672 2.035 1.422 2.848 1.666.813.243 1.698.852 1.965 1.351.268.5 1.204 1.233 2.081 1.628.878.396 2.431 1.314 3.453 2.04 1.022.727 2.069 1.321 2.328 1.321.259 0 1.009.453 1.667 1.007.659.554 2.171 1.438 3.362 1.964 1.19.527 2.47 1.424 2.843 1.993.373.57.908 1.036 1.189 1.036.28 0 1.269.73 2.197 1.622 2.322 2.23 4.967 2.215 6.131-.034 1.07-2.069 1.324-33.373.289-35.588-1.269-2.714-3.133-4.268-5.515-4.596-1.757-.241-2.423-.572-3.623-1.796-.809-.826-2.177-1.727-3.04-2.004-.862-.276-1.93-.832-2.373-1.234-.756-.687-2.933-1.914-7.584-4.276-1.094-.556-2.489-1.51-3.099-2.121-.611-.611-1.786-1.327-2.612-1.591-.825-.264-1.86-.806-2.3-1.205-.44-.398-1.97-1.285-3.4-1.97-3.038-1.456-6.551-3.449-8.226-4.666-.65-.472-1.937-1.062-2.861-1.311-.923-.248-1.792-.634-1.929-.856-.138-.222-1.231-.958-2.431-1.635l-2.18-1.231.966-1.636c.942-1.595 3.256-3.158 8.108-5.476.906-.433 1.884-1.072 2.173-1.421.29-.348 1.169-.963 1.953-1.365.785-.403 1.877-1.223 2.427-1.822.55-.6 2.08-1.608 3.4-2.24 3.795-1.818 5.752-3.012 7.437-4.533.861-.778 1.81-1.415 2.11-1.415.299 0 1.013-.469 1.586-1.042.573-.573 2.083-1.538 3.355-2.144 1.271-.606 2.655-1.487 3.074-1.958.419-.471.977-.856 1.24-.856s1.2-.523 2.081-1.162c2.511-1.818 7.605-4.837 8.189-4.851 3.275-.083 3.74-2.776 3.64-21.1-.106-19.545-.061-19.33-3.912-18.901m1.7 2.271c.706.441.898.925.889 2.252-.006.93.098 7.001.231 13.491.368 17.995-.317 20.579-5.796 21.863-.563.132-1.474.639-2.024 1.127s-2.35 1.769-4 2.848-3.779 2.547-4.731 3.262c-.951.715-1.941 1.302-2.2 1.303-.258.002-1.909 1.004-3.669 2.227-5.573 3.873-8.336 5.635-10.6 6.761-1.21.602-2.65 1.503-3.2 2.003-1.085.984-5.983 4.073-11.311 7.133-2.808 1.612-3.495 2.212-4.206 3.676l-.849 1.749 2.012 1.324c1.106.728 3.336 2.044 4.955 2.924 1.618.88 4.17 2.296 5.671 3.147 1.5.85 3.448 1.905 4.328 2.345.88.439 2.14 1.203 2.8 1.697.66.494 2.37 1.484 3.8 2.2 1.43.715 2.913 1.577 3.296 1.914.76.671 7.556 4.522 12.275 6.958 1.635.844 3.356 1.895 3.825 2.336.47.441 1.79 1.08 2.935 1.419 2.323.69 4.38 2.303 5.754 4.512L133.8 231l-.083 15c-.1 18.013-.024 17.377-2.17 17.922-1.673.425-4.026-.739-6.459-3.195-.391-.395-1.291-1.011-2-1.369-2.042-1.031-9.837-5.708-12.693-7.617-1.433-.958-2.8-1.741-3.038-1.741s-.776-.38-1.195-.844c-.419-.464-1.842-1.384-3.162-2.045-1.32-.66-2.732-1.494-3.137-1.851-.758-.67-2.963-1.997-6.463-3.889-1.1-.595-2.45-1.421-3-1.836-1.561-1.177-7.554-5.135-7.776-5.135-.459 0-7.424-4.141-7.424-4.414 0-.164-.855-.696-1.9-1.182s-2.817-1.586-3.937-2.444c-1.12-.858-2.189-1.56-2.374-1.56-.186 0-.709-.342-1.163-.761-.454-.418-1.827-1.298-3.051-1.954-1.224-.657-3.564-2.062-5.2-3.124-1.636-1.061-3.785-2.368-4.775-2.904-.99-.535-2.25-1.315-2.8-1.733-.55-.417-1.896-1.336-2.991-2.041-3.528-2.272-3.795-3.151-3.8-12.483-.006-11.311.081-11.467 9.852-17.721 2.166-1.387 5.019-3.326 6.339-4.309 1.32-.983 2.925-2.098 3.566-2.479.641-.38 1.811-1.231 2.6-1.891 1.504-1.258 2.594-2.049 6.762-4.902a194.142 194.142 0 0 0 4.402-3.11c1.029-.757 2.86-2.033 4.07-2.836 1.21-.803 2.74-1.901 3.4-2.441.66-.539 2.655-1.91 4.433-3.046 5.464-3.491 7.579-4.956 8.153-5.648.303-.366 1.252-1.003 2.107-1.416.855-.413 2.219-1.312 3.031-1.997 2.431-2.05 8.14-6.164 10.237-7.376 1.653-.955 4.65-3.028 11.028-7.628.61-.44 2.326-1.743 3.813-2.894 2.857-2.215 3.609-2.353 5.698-1.049m134.658 1.686c1.517 1.021 3.137 2.076 3.6 2.344.463.267 2.012 1.315 3.442 2.327a282.782 282.782 0 0 0 6.035 4.114c3.455 2.285 9.128 6.379 11.374 8.207.664.541 1.924 1.392 2.8 1.891.875.499 2.075 1.35 2.665 1.891.591.541 1.43 1.186 1.864 1.433.433.248 3.163 2.07 6.065 4.05 2.902 1.98 6.204 4.23 7.339 5 1.135.77 3.542 2.48 5.35 3.8 1.808 1.32 4.056 2.898 4.997 3.507 2.764 1.789 5.328 3.642 6.062 4.382.377.379 1.441 1.052 2.367 1.496.925.444 2.492 1.436 3.482 2.204.99.767 2.484 1.894 3.321 2.503.837.61 2.097 1.575 2.8 2.145.703.57 2.089 1.507 3.079 2.081.99.574 2.721 1.908 3.847 2.963l2.047 1.919.266 7.818c.404 11.875-.025 14.085-3.033 15.619-.912.465-2.67 1.537-3.909 2.382-1.238.846-2.694 1.733-3.235 1.971-.54.239-2.333 1.321-3.983 2.405-1.65 1.084-3.81 2.409-4.8 2.945-.99.535-2.134 1.343-2.541 1.794-.408.451-1.242.931-1.854 1.065-.611.134-1.807.838-2.658 1.564-.851.726-2.177 1.637-2.947 2.025-.77.388-1.76 1.015-2.2 1.392-.991.851-4.09 2.648-7 4.058-1.21.586-2.613 1.462-3.117 1.945-.504.484-1.944 1.465-3.2 2.181-3.081 1.756-10.436 6.188-11.719 7.061-5.716 3.888-7.106 4.752-8.006 4.975-.574.142-1.898.965-2.944 1.829s-2.036 1.571-2.201 1.571c-.165 0-1.091.628-2.057 1.396-.966.768-1.919 1.398-2.118 1.4-.199.002-.919.422-1.6.932-.681.511-2.048 1.246-3.038 1.633-.99.388-2.7 1.377-3.8 2.198-2.526 1.884-3.843 2.441-5.77 2.441-2.55 0-2.601-.352-2.506-17.171l.083-14.622 1.243-1.804c1.451-2.106 4.518-4.719 5.95-5.071.55-.135 1.824-.842 2.832-1.572 1.007-.731 2.333-1.518 2.946-1.751.612-.233 1.588-.796 2.168-1.252 1.204-.945 7.014-4.212 13.454-7.566 8.992-4.682 19.018-10.475 20.489-11.839.565-.523 1.188-.952 1.383-.952.196 0 .79-.285 1.321-.632l.965-.633-.815-1.677c-.815-1.679-4.393-4.488-6.956-5.463-.609-.231-2.385-1.244-3.947-2.251a5965.949 5965.949 0 0 1-7.876-5.087c-2.77-1.791-5.801-3.707-6.735-4.257a38.844 38.844 0 0 1-3.364-2.289c-.916-.709-2.564-1.77-3.663-2.356-1.098-.587-2.751-1.627-3.673-2.311-.921-.684-2.599-1.784-3.729-2.444-1.13-.66-2.807-1.759-3.727-2.441-.92-.683-2.433-1.629-3.362-2.103-.985-.502-2.376-1.772-3.338-3.045l-1.649-2.184.032-15.428c.02-9.842.182-15.71.447-16.205.709-1.325 3.664-.667 6.955 1.549" fill="#fbab71"/><path d="M220.4 104.364c-14.246.317-13.124-.724-16.863 15.636-.427 1.87-1.296 4.93-1.931 6.8-.634 1.87-1.34 4.767-1.567 6.438-.228 1.671-.946 4.371-1.597 6-.651 1.629-1.45 4.492-1.776 6.362-.325 1.87-.872 4.12-1.214 5-.342.88-1.082 3.49-1.645 5.8-.563 2.31-1.21 4.635-1.437 5.166-.227.532-.87 3.311-1.428 6.177-.558 2.866-1.336 6.031-1.729 7.034-.393 1.002-.932 3.173-1.198 4.823-.532 3.302-1.083 5.287-2.552 9.2-.537 1.43-1.274 4.472-1.638 6.759-.363 2.288-.811 4.448-.995 4.8-.185.353-.827 2.801-1.429 5.441-1.255 5.511-3.251 12.339-4.793 16.4-.603 1.588-1.223 4.318-1.433 6.307-.203 1.928-.744 4.538-1.201 5.8-1.155 3.185-2.906 9.187-4.803 16.461-.884 3.393-1.693 6.306-1.798 6.475-.104.169-.555 2.341-1.003 4.827-.448 2.486-1.269 5.872-1.826 7.525-.557 1.653-1.273 4.535-1.59 6.405-.318 1.87-1.05 4.755-1.628 6.41-2.388 6.856-1.852 7.144 13.54 7.276 15.176.131 14.823.269 16.729-6.536 1.197-4.273 4.363-16.419 5.253-20.15.42-1.76 1.218-4.229 1.774-5.487.599-1.355 1.168-3.668 1.396-5.677.212-1.865.915-4.828 1.563-6.584.647-1.756 1.457-4.667 1.799-6.47.342-1.803 1.174-5.101 1.85-7.33 2.634-8.683 3.135-10.581 3.763-14.252.357-2.09 1.164-5.33 1.793-7.2s1.273-4.21 1.43-5.2c.157-.99 1.053-4.5 1.991-7.8.937-3.3 1.92-7.44 2.184-9.2.264-1.76.9-4.46 1.414-6 2.097-6.28 2.998-9.392 3.806-13.138.467-2.167 1.379-5.545 2.026-7.508.647-1.964 1.326-5.052 1.51-6.862.204-2.011.671-3.952 1.2-4.988 1.21-2.372 5.931-20.162 7.865-29.64.554-2.714 1.294-5.594 1.644-6.4 1.46-3.359 1.763-4.907 1.278-6.527-.819-2.732-.784-2.727-16.734-2.373m14.228 2.055c.975.671 1.772 1.281 1.772 1.355 0 .075-.543 1.296-1.206 2.714-.831 1.775-1.338 3.689-1.629 6.145-.232 1.962-.851 4.658-1.376 5.992-.525 1.333-1.309 4.303-1.742 6.6-.433 2.296-1.06 4.909-1.392 5.807-.332.898-.876 3.191-1.209 5.095-.332 1.905-.982 4.318-1.445 5.363-.968 2.19-1.441 4.128-2.002 8.207-.22 1.597-.859 3.824-1.42 4.95-.561 1.126-1.359 3.916-1.773 6.2-.728 4.022-1.635 7.242-4.041 14.353-.633 1.87-1.445 5.2-1.805 7.4-.36 2.2-1.061 4.99-1.558 6.2-.497 1.21-1.303 4.18-1.791 6.6s-1.419 6.004-2.069 7.964c-.649 1.96-1.356 4.964-1.571 6.677-.214 1.712-.664 3.888-.999 4.836-.334.948-1.045 3.433-1.578 5.523-.534 2.09-1.325 4.801-1.759 6.025-.434 1.224-1.072 3.98-1.417 6.125s-.99 4.611-1.433 5.48c-.471.923-1.046 3.396-1.383 5.956-.703 5.329-.955 6.435-1.645 7.234-.775.897-1.677 3.649-2.2 6.714-.251 1.466-.621 2.874-.824 3.128-.203.255-.977 2.865-1.721 5.8-3.934 15.528-3.839 15.252-5.612 16.13-2.923 1.445-22.599 1.318-24.557-.16l-.915-.689.86-4.772c.474-2.624 1.391-6.391 2.04-8.371.648-1.98 1.349-4.964 1.557-6.631.208-1.666.817-4.376 1.354-6.021.537-1.644 1.28-4.478 1.651-6.297.37-1.818.908-3.879 1.193-4.579.286-.699.919-3.157 1.406-5.462.488-2.304 1.254-4.909 1.702-5.789.529-1.036 1.061-3.519 1.514-7.06.523-4.092.906-5.751 1.525-6.612.455-.632 1.277-2.769 1.826-4.749.549-1.98 1.354-4.68 1.788-6 1.3-3.951 2.838-10.572 4.462-19.2.248-1.32.886-3.3 1.417-4.4.531-1.1 1.342-3.856 1.803-6.125.461-2.268 1.283-5.418 1.826-7 .544-1.581 1.166-4.402 1.383-6.268.217-1.866.845-4.64 1.394-6.164.55-1.524 1.288-4.228 1.641-6.007.352-1.78.865-3.686 1.139-4.236.474-.95 1.126-3.818 2.183-9.6.261-1.43.743-2.898 1.069-3.262.331-.369.948-2.834 1.389-5.55.514-3.166 1.142-5.553 1.783-6.778.544-1.04 1.263-3.403 1.599-5.25.336-1.848 1.04-4.62 1.565-6.16.525-1.54 1.256-4.24 1.625-6 .588-2.803.868-3.388 2.26-4.718l1.589-1.518 7.465.237c5.837.186 13.342-.099 14.392-.546.07-.03.925.494 1.9 1.164M127.55 130.1c-8.275 6.295-10.091 7.62-12.95 9.451-1.76 1.127-3.345 2.049-3.521 2.049-.177 0-1.527.948-3 2.107-2.626 2.065-3.852 2.952-7.879 5.695-1.1.75-2.512 1.776-3.137 2.281-1.654 1.334-2.935 2.237-6.91 4.869-4.993 3.306-6.292 4.19-9.304 6.332-3.656 2.6-3.994 2.838-9.668 6.783-2.76 1.92-5.353 3.86-5.762 4.312-.408.451-.944.821-1.19.821s-1.155.585-2.02 1.3c-1.778 1.468-2.729 2.13-8.859 6.159-9.876 6.492-9.745 6.257-9.748 17.506-.002 9.316.358 10.466 3.909 12.491 1.039.592 2.249 1.381 2.689 1.754.44.372 1.79 1.188 3 1.813s2.56 1.434 3 1.798c.44.365 2.51 1.665 4.6 2.889 2.09 1.225 4.365 2.691 5.055 3.259.69.567 1.423 1.031 1.628 1.031.205 0 1.295.688 2.422 1.529 1.127.841 2.779 1.858 3.672 2.261.893.402 1.623.871 1.623 1.041 0 .292 1.002.895 7.2 4.328 1.43.793 3.32 1.943 4.2 2.557 2.804 1.957 5.661 3.808 7.051 4.568 1.454.796 3.991 2.394 6.549 4.125.88.596 1.987 1.204 2.459 1.351.473.148 1.643.847 2.6 1.554 1.771 1.309 3.414 2.342 7.134 4.486 1.145.66 2.65 1.594 3.345 2.075.694.481 2.947 1.809 5.007 2.951 2.059 1.142 4.309 2.555 5 3.138.69.584 1.899 1.536 2.685 2.116l1.43 1.054 1.612-.721c2.166-.97 2.116-.582 2.123-16.567.006-17.745-.425-19.147-6.595-21.422-1.32-.487-2.94-1.292-3.6-1.79-.66-.498-2.28-1.442-3.6-2.098-3.585-1.781-10.633-5.752-12-6.761-.66-.487-2.19-1.381-3.4-1.987-1.21-.606-2.74-1.501-3.4-1.99-1.121-.831-5.775-3.445-12.811-7.198-3.312-1.766-7.393-4.487-7.382-4.921.034-1.461 2.113-3.585 5.393-5.51 6.618-3.884 8.656-5.16 10.334-6.47.916-.716 2.656-1.807 3.866-2.424 2.826-1.442 4.519-2.474 7-4.268 3.805-2.752 4.808-3.405 6.635-4.319 1.009-.505 2.539-1.459 3.4-2.121.861-.661 3.14-2.236 5.065-3.499 1.925-1.263 3.5-2.47 3.5-2.682 0-.212.225-.388.5-.39 1.638-.013 4.734-2.052 5.875-3.87l1.21-1.926.003-14.2c.004-17.126.024-16.948-2.045-17.776-.857-.343-1.604-.624-1.659-.624-.055 0-1.105.765-2.334 1.7m133.074-.539c-.339.549-.328 30.124.012 31.039.769 2.07 2.858 4.337 4.988 5.412 1.223.618 2.47 1.419 2.771 1.782.301.362 1.1.943 1.776 1.29.676.348 1.679.97 2.229 1.384 1.705 1.283 6.13 4.1 7.6 4.838.77.386 2.153 1.286 3.073 1.998.92.713 2.54 1.819 3.6 2.459 1.06.639 3.907 2.45 6.327 4.024 2.42 1.573 5.3 3.375 6.4 4.004 1.1.628 2.55 1.556 3.222 2.063.671.507 1.925 1.215 2.786 1.575 2.984 1.247 6.413 4.025 7.088 5.743.685 1.742.628 1.854-1.496 2.944-.66.339-1.577.972-2.038 1.408-.46.435-1.45 1.103-2.2 1.484-.749.382-3.072 1.718-5.162 2.969-5.642 3.378-10.818 6.27-12.4 6.926-2.121.881-14.42 7.817-18.077 10.194-1.097.714-2.776 1.643-3.729 2.065-2.199.972-5.232 3.753-6.231 5.712-.921 1.805-1.267 30.236-.381 31.304 1.276 1.537 4.165.921 7.684-1.639 1.026-.746 2.446-1.559 3.156-1.807 1.793-.625 8.448-4.79 11.24-7.035.891-.716 2.097-1.422 2.679-1.567.582-.146 2.679-1.404 4.659-2.796 1.98-1.391 4.41-2.986 5.4-3.543.99-.556 3.06-1.81 4.6-2.784 1.54-.975 3.61-2.212 4.6-2.749.99-.538 2.52-1.552 3.4-2.256.88-.703 2.971-1.963 4.647-2.8 3.559-1.778 6.941-3.847 10.625-6.502 1.451-1.045 2.876-1.9 3.169-1.9.292 0 1.122-.515 1.845-1.145.723-.629 1.944-1.465 2.714-1.857.77-.393 1.85-1.06 2.4-1.483.55-.422 2.98-1.953 5.4-3.402 12.149-7.271 11.001-5.499 10.998-16.973-.003-11.264-.304-12.017-6.198-15.532-.88-.525-2.162-1.417-2.848-1.981-.686-.565-2.285-1.747-3.552-2.627-1.267-.88-3.046-2.211-3.952-2.958-.906-.747-2.267-1.618-3.023-1.937-.756-.318-1.836-1.006-2.4-1.528-1.245-1.154-3.219-2.57-5.625-4.037-.99-.604-3.146-2.097-4.792-3.319-3.098-2.3-3.909-2.863-11.857-8.227-6.002-4.051-7.179-4.889-9.122-6.494-.865-.715-1.767-1.3-2.004-1.3-.237 0-1.418-.81-2.625-1.8s-2.293-1.8-2.414-1.8c-.12 0-1.381-.895-2.802-1.989-1.421-1.093-4.384-3.193-6.584-4.665-2.2-1.473-5.35-3.592-7-4.71-8.993-6.093-8.496-5.817-10.476-5.827-1.032-.005-1.977.153-2.1.352M130.825 130.9c.92 1.227.975 1.603.98 6.7.003 2.97.16 8.73.349 12.8.463 9.948-.518 13.358-4.16 14.449-.891.267-2.084.95-2.652 1.518-.568.568-1.804 1.483-2.746 2.033-2.818 1.644-5.107 3.235-6.686 4.647-.819.733-1.949 1.448-2.511 1.589-1.072.269-5.691 3.098-7.399 4.532-1.279 1.074-5.398 3.531-7.154 4.268-.744.312-2.05 1.197-2.901 1.966-.851.769-1.75 1.398-1.998 1.398s-1.306.614-2.352 1.365c-1.045.751-2.506 1.668-3.247 2.038-4.963 2.477-7.553 4.412-8.522 6.371-1.149 2.321-1.159 2.295 1.592 4.055 1.171.749 2.25 1.557 2.397 1.795.147.239 1.554 1.055 3.127 1.814 1.572.759 3.938 2.013 5.258 2.787a78.6 78.6 0 0 0 4.971 2.627c1.414.671 2.895 1.633 3.292 2.138.397.504 1.4 1.189 2.23 1.522.829.332 2.47 1.253 3.647 2.046 1.177.793 2.284 1.442 2.46 1.442.176 0 1.256.63 2.4 1.4 1.144.77 2.272 1.4 2.505 1.4.234 0 1.258.535 2.277 1.188 1.019.654 2.649 1.47 3.624 1.814.974.344 2.151.982 2.616 1.418.464.436 1.901 1.165 3.193 1.619 6.05 2.127 7.267 5.252 6.758 17.361-.186 4.4-.355 9.71-.376 11.8-.059 5.755-.12 6.159-1.006 6.713-.769.48-2.104.158-2.791-.675-.578-.7-3.223-2.438-3.711-2.438-.311 0-.908-.386-1.327-.857-.419-.471-1.572-1.245-2.562-1.72-.99-.475-2.69-1.44-3.778-2.143-1.088-.704-2.128-1.28-2.31-1.28-.182 0-1.247-.63-2.367-1.4-1.119-.77-2.274-1.4-2.566-1.4-.291 0-1.33-.675-2.307-1.5-.977-.825-2.653-2.002-3.724-2.615a162.99 162.99 0 0 1-4.022-2.4c-1.14-.707-3.12-1.901-4.4-2.654-1.279-.753-2.917-1.878-3.64-2.5-.723-.622-1.556-1.131-1.851-1.131-.295 0-.781-.294-1.08-.654-.701-.845-3.073-2.34-4.355-2.745-.55-.174-1.54-.713-2.2-1.199-.66-.485-2.04-1.278-3.068-1.762-1.027-.484-2.069-1.123-2.316-1.421-.247-.298-1.432-1.006-2.633-1.575-1.2-.568-2.183-1.195-2.183-1.392 0-.197-1.018-.84-2.261-1.429-1.244-.589-2.598-1.499-3.011-2.023-.412-.524-1.141-1.077-1.621-1.229-.479-.153-1.891-.973-3.138-1.824-1.246-.851-2.398-1.547-2.56-1.547-.162 0-.95-.515-1.751-1.145-.802-.63-2.088-1.461-2.858-1.847-.77-.386-1.76-1.022-2.2-1.413-.44-.391-1.502-1.081-2.36-1.534-.858-.454-2.253-1.546-3.1-2.427l-1.54-1.603v-8.235c0-6.392.129-8.485.577-9.351.709-1.371 5.263-5.645 6.015-5.645.301 0 1.055-.416 1.677-.925.622-.508 1.979-1.412 3.015-2.007 1.037-.596 2.027-1.321 2.2-1.612.174-.29 1.172-1.024 2.218-1.631s2.036-1.319 2.2-1.583c.164-.263.943-.852 1.732-1.308.789-.456 1.869-1.227 2.4-1.713 1.142-1.044 4.356-3.235 6.46-4.402.822-.456 1.788-1.277 2.146-1.824.359-.547.977-.995 1.375-.995s1.232-.42 1.854-.933c.622-.513 2.256-1.69 3.631-2.615 1.375-.925 2.5-1.833 2.5-2.018 0-.185.505-.546 1.122-.802.617-.255 2.642-1.54 4.5-2.855 1.858-1.314 3.912-2.702 4.565-3.083.652-.382 1.695-1.216 2.317-1.855.622-.638 1.899-1.57 2.839-2.07.94-.5 2.301-1.463 3.025-2.139.724-.677 1.529-1.23 1.788-1.23.26 0 1.006-.446 1.658-.991 2.18-1.82 5.168-3.81 6.947-4.625.968-.444 2.369-1.342 3.113-1.996.745-.653 1.522-1.188 1.727-1.188.205 0 1.261-.765 2.346-1.7 3.388-2.917 5.007-4.153 6.357-4.851.718-.371 1.526-1.029 1.797-1.462.593-.95.37-1.026 1.524.513m138.084 2.93c.634.534 1.277.97 1.43.97.152 0 1.353.808 2.669 1.796 1.316.987 2.611 1.797 2.878 1.8.267.002 1.077.52 1.8 1.15.723.631 2.034 1.511 2.914 1.958.88.446 1.96 1.208 2.399 1.694.44.486 1.34 1.16 2 1.497.661.337 1.346.861 1.523 1.164.178.303 1.179.984 2.226 1.514 1.046.531 2.131 1.24 2.411 1.578.28.337 1.349 1.1 2.375 1.695s2.01 1.323 2.186 1.618c.176.295.896.831 1.6 1.191.704.36 1.91 1.183 2.68 1.83.77.647 2.894 2.142 4.72 3.324 1.826 1.181 3.896 2.619 4.6 3.195 2.279 1.866 6.851 4.996 7.297 4.996.238 0 .951.54 1.583 1.2.632.66 1.346 1.2 1.586 1.2.239 0 1.421.743 2.625 1.65 1.204.908 2.639 1.85 3.189 2.095.55.244 1.509.941 2.131 1.55.622.608 1.364 1.105 1.649 1.105.285 0 1.666.891 3.069 1.979 1.403 1.089 3.271 2.539 4.151 3.224.88.684 2.23 1.678 3 2.207 9.695 6.67 9.399 6.193 9.781 15.79.249 6.243-.146 9.925-1.123 10.472-.364.203-1.138.811-1.719 1.349-.58.538-1.273.979-1.537.979-.265 0-1.251.585-2.191 1.3-1.947 1.481-4.976 3.407-7.611 4.84-.99.539-2.5 1.537-3.355 2.22-.855.682-1.699 1.24-1.876 1.24-.176 0-1.134.704-2.128 1.565-.994.86-2.334 1.68-2.976 1.821-.643.141-1.775.801-2.517 1.467-.741.666-1.976 1.475-2.743 1.798-.767.323-1.757.919-2.2 1.324-.443.405-1.801 1.186-3.019 1.736-1.217.549-2.454 1.289-2.749 1.644-.294.355-.84.645-1.214.645-.373 0-1.656.733-2.851 1.63-1.194.896-2.793 1.892-3.552 2.213-.759.32-2.305 1.297-3.437 2.17-1.131.873-2.192 1.587-2.358 1.587-.166 0-.849.39-1.519.867-.67.477-2.092 1.303-3.162 1.836-1.069.533-1.944 1.119-1.944 1.303 0 .185-.988.9-2.195 1.591-1.207.691-2.332 1.499-2.5 1.797-.168.298-1.283.926-2.479 1.397-1.195.47-2.776 1.385-3.513 2.032-.738.647-1.501 1.177-1.696 1.177-.196 0-.864.422-1.486.938-.622.515-3.444 2.136-6.272 3.602-2.827 1.466-5.574 3.007-6.104 3.424-2.824 2.221-3.003 1.356-3.011-14.557-.007-16.695.443-18.097 6.656-20.701 1.1-.461 2.36-1.147 2.8-1.524.44-.377 1.7-1.134 2.8-1.682 4.669-2.326 7.646-4.022 8.316-4.736.393-.42.984-.764 1.313-.764.523 0 3.207-1.285 4.971-2.379.33-.205 1.593-.804 2.806-1.332 1.214-.528 2.474-1.213 2.8-1.524.327-.311 1.404-.997 2.394-1.524.99-.528 2.085-1.204 2.434-1.503.349-.299 1.699-1.087 3-1.751 3.767-1.925 7.458-4.251 7.847-4.946.197-.353.593-.641.879-.641.286 0 1.264-.539 2.174-1.198l1.655-1.199-.86-1.701c-.988-1.958-2.271-3.502-2.908-3.502-.241 0-1.101-.546-1.911-1.214-.81-.667-2.426-1.636-3.591-2.153-1.166-.517-2.447-1.304-2.848-1.749-.4-.446-1.587-1.18-2.638-1.632-1.05-.451-2.152-1.113-2.449-1.471-.296-.357-1.359-1.027-2.362-1.487-1.002-.46-2.701-1.525-3.774-2.366-1.074-.84-2.199-1.528-2.5-1.528-.302 0-.548-.175-.548-.389 0-.214-1.076-.922-2.39-1.575-1.315-.652-2.875-1.635-3.468-2.184-.592-.55-1.534-1.114-2.092-1.254-.559-.14-1.678-.827-2.488-1.526-1.436-1.241-3.514-2.632-7.007-4.689-.949-.559-2.138-1.379-2.641-1.822-.503-.442-1.677-1.291-2.611-1.886-.933-.595-2.165-1.79-2.738-2.656l-1.042-1.575.013-14.101c.016-17.283.288-17.801 6.573-12.513" fill="#fcbc94"/><path d="M209.4 104.382c-1.698.702-3.843 4.059-3.773 5.905.014.392.253-.011.531-.895 1.468-4.685 1.658-4.752 14.242-5.005l10.6-.213-10.4-.062c-5.72-.033-10.76.088-11.2.27m26.87.418c.234.33.647 1.287.918 2.127.27.84.565 1.454.654 1.365.288-.288-.728-2.874-1.373-3.492-.556-.533-.578-.533-.199 0m.407 6.125c-1.305 3.745-2.172 6.864-2.414 8.684-.131.985.187.171.706-1.809.519-1.98 1.332-4.569 1.806-5.754.475-1.185.809-2.389.744-2.675-.065-.286-.444.413-.842 1.554m-31.995 2.957c-.381 1.453-.622 2.711-.536 2.797.085.086.475-1.024.866-2.467.39-1.443.632-2.702.536-2.797-.095-.095-.485 1.015-.866 2.467m-1.843 7.518c-.03.44-.591 2.321-1.247 4.181-.656 1.859-1.187 3.659-1.18 4 .006.34.645-1.252 1.418-3.539.773-2.288 1.329-4.448 1.234-4.8-.126-.474-.185-.432-.225.158m29.246 7.513c-.707 2.75-1.271 5.245-1.254 5.544.017.299.648-1.793 1.403-4.649.754-2.855 1.319-5.35 1.254-5.544-.065-.194-.696 1.898-1.403 4.649m-105.083 1.193c-3.037 2.353-3.359 2.589-8.83 6.494-2.158 1.54-4.745 3.292-5.748 3.893-1.003.601-1.644 1.096-1.424 1.1.22.004 1.84-.915 3.6-2.042 2.859-1.831 4.675-3.156 12.95-9.451 1.229-.935 2.279-1.7 2.334-1.7 1.165 0 3.297 1.45 3.433 2.334l.163 1.066.06-1.091c.065-1.173-.895-2.019-2.788-2.456-.847-.196-1.564.159-3.75 1.853m133.401-.912c-.265.495-.427 6.363-.447 16.205l-.032 15.428 1.649 2.184c.955 1.264 2.354 2.544 3.323 3.038.921.47 2.401 1.379 3.289 2.02 2.939 2.122 4.814 3.252 4.231 2.55-.309-.372-1.217-1.011-2.016-1.419-.799-.408-1.701-1.039-2.003-1.403-.302-.364-1.55-1.167-2.773-1.785-2.13-1.075-4.219-3.342-4.988-5.412-.34-.915-.351-30.49-.012-31.039.687-1.112 3.998-.327 6.918 1.64 1.618 1.09 2.733 1.731 2.478 1.423-2.254-2.716-8.758-5.036-9.617-3.43m10.617 4.335c.608.527 4.322 3.082 4.98 3.426.827.433-1.042-1.13-3.072-2.57-1.509-1.069-2.848-1.67-1.908-.856m-41.17 4.121c-.375 1.348-.61 2.524-.522 2.612.088.088.469-.941.847-2.287s.612-2.521.522-2.612c-.091-.09-.472.939-.847 2.287m-31.805 1.533c-.474 1.104-.955 2.594-1.068 3.312-.122.778.095.417.538-.895.408-1.21.969-2.62 1.246-3.134.277-.514.424-1.015.326-1.112-.098-.098-.567.725-1.042 1.829m79.555-1.432c0 .109 1.485 1.203 3.3 2.431 1.815 1.229 4.463 3.13 5.884 4.226 1.421 1.096 2.681 1.986 2.8 1.979.119-.007-.059-.232-.395-.5-2.192-1.75-5.737-4.365-8.159-6.021-3.54-2.42-3.43-2.352-3.43-2.115m-170.171 6.071c-2.93 2.312-3.612 2.925-2.629 2.363.88-.504 5.6-4.23 5.6-4.422 0-.276-.116-.195-2.971 2.059m120.788.059c-.154.836-.709 2.599-1.235 3.919-.816 2.049-.843 2.254-.189 1.4.769-1.004 2.277-6.263 1.903-6.638-.11-.109-.326.484-.479 1.319m-94.452 8.319c.001 3.96.061 5.526.133 3.48.073-2.046.073-5.286 0-7.2-.074-1.914-.133-.24-.133 3.72m-31.489-4.5c-1.246 1.233-1.251 1.249-.095.303a322.39 322.39 0 0 1 1.599-1.3c.209-.167.251-.303.094-.303s-.876.585-1.598 1.3m93.773-.7a17.47 17.47 0 0 1-.266 1.8l-.206 1 .429-.981c.236-.54.355-1.35.266-1.8-.159-.798-.165-.798-.223-.019m93.951-.521c.571.686 4.237 3.521 4.553 3.521.202 0-.406-.585-1.352-1.3-2.137-1.616-3.464-2.537-3.201-2.221m-193.099 4.835c-1.636 1.432-3.304 2.594-8.26 5.751-1.782 1.136-3.781 2.507-4.441 3.046-.66.54-2.19 1.642-3.4 2.45-4.593 3.067-7.088 5.061-4.299 3.434.826-.482 1.6-1.034 1.72-1.228.12-.195 1.424-1.163 2.898-2.153a741.604 741.604 0 0 0 4.081-2.755c.77-.525 2.93-1.969 4.8-3.207 5.196-3.44 5.318-3.526 6.6-4.673.66-.591 1.56-1.272 2-1.514.44-.242.576-.446.301-.453-.274-.007-1.174.579-2 1.302m198.499-1.06c.22.194 1.029.891 1.799 1.549l1.398 1.197-.998-1.137c-.55-.625-1.359-1.322-1.799-1.549-.44-.226-.62-.253-.4-.06m5.042 3.878c2.14 1.622 6.358 4.327 6.358 4.077 0-.1-1.524-1.185-3.387-2.412-1.862-1.226-3.493-2.402-3.623-2.613-.131-.211-.432-.384-.671-.384-.239 0 .357.6 1.323 1.332m-107.416 3.565c-1.483 5.527-1.558 5.894-.916 4.503.641-1.39 2.397-8.227 2.17-8.453-.084-.084-.648 1.693-1.254 3.95m114.174.777c0 .085 1.264 1.047 2.809 2.14a741.22 741.22 0 0 1 7.059 5.086c2.337 1.705 4.389 3.1 4.56 3.1.171 0 1.18.657 2.241 1.461 1.062.803 1.571 1.054 1.131.558-.439-.496-1.609-1.368-2.6-1.937-.99-.57-3.549-2.306-5.686-3.859-6.557-4.763-9.514-6.799-9.514-6.549m-83.743 3.183c-.394 1.109-.647 2.086-.562 2.171.084.085.479-.751.876-1.857.398-1.105.651-2.082.563-2.17-.088-.089-.483.747-.877 1.856m-91.173 1.381c-.813 1.346-1.617 2.047-3.186 2.777-1.154.538-1.864.979-1.578.981 1.526.012 4.572-2.258 5.548-4.133.961-1.848.395-1.577-.784.375m-6.284 4.15c0 .213-2.053 1.748-4.561 3.412-2.509 1.664-4.804 3.329-5.1 3.701-.336.422-.086.339.661-.218.66-.492 2.91-2.035 5.001-3.429 3.798-2.531 5.324-3.854 4.448-3.854-.247 0-.449.174-.449.388m-55.335 2.434c-1.246.892-2.265 1.717-2.265 1.834 0 .187 3.582-2.257 4.58-3.125 1.022-.89-.299-.153-2.315 1.291m119.373.978c-.03.44-.5 2.06-1.045 3.6-.544 1.54-.969 3.16-.945 3.6l.045.8.184-.8c.101-.44.63-2.12 1.176-3.733.546-1.614.913-3.234.816-3.6-.138-.524-.188-.496-.231.133M65.8 173.2c-1.017.88-1.703 1.593-1.524 1.584.369-.019 3.948-3.184 3.6-3.184-.125 0-1.059.72-2.076 1.6m154.065 2.066c-.625 1.978-1.066 3.667-.98 3.752.085.085.669-1.46 1.298-3.435.629-1.974 1.07-3.662.98-3.752-.089-.089-.674 1.457-1.298 3.435m55.935-2.278c1.208 1.058 2.6 1.965 2.6 1.694 0-.081-.855-.731-1.9-1.446-1.438-.984-1.608-1.044-.7-.248m52.322.346c.838.806 1.627 1.466 1.755 1.466.291 0-1.406-1.626-2.477-2.374-.44-.307-.115.101.722.908M61.655 176.1c-.892.715-2.034 1.619-2.538 2.008-.877.678-.864.678.308 0 1.379-.797 4.494-3.308 4.104-3.308-.139 0-.983.585-1.874 1.3m218.397-.393a53.809 53.809 0 0 1 3.08 2.093 48.2 48.2 0 0 0 3.311 2.2c.927.55 3.951 2.466 6.721 4.257 9.908 6.409 10.743 6.932 11.485 7.199.898.323-2.904-2.31-5.449-3.773-.99-.569-3.87-2.378-6.4-4.019a600.641 600.641 0 0 0-6-3.856 113.112 113.112 0 0 1-5.959-4.019c-.748-.544-1.558-.986-1.8-.982-.243.003.213.408 1.011.9m52.548.444c.66.588 2.19 1.78 3.4 2.649s2.92 2.123 3.8 2.787c.88.664 2.389 1.704 3.354 2.31 3.064 1.927 5.83 4.467 6.323 5.806.426 1.156.48 1.191.5.321.027-1.139-3.122-4.25-5.977-5.906-.99-.574-2.376-1.511-3.079-2.081-1.243-1.008-2.436-1.902-6.08-4.556-2.827-2.06-3.525-2.473-2.241-1.33m-220.478.478L111 177.658l1.3-.904c.715-.497 1.3-.961 1.3-1.029 0-.316-.442-.045-1.478.904m-3.414 2.183c-1.006.666-2.072 1.516-2.369 1.889-.317.398-.045.301.661-.236a41.59 41.59 0 0 1 2.5-1.728c1.148-.721 1.576-1.137 1.169-1.137-.073 0-.955.545-1.961 1.212m-53.475 1.821c-2.423 1.644-4.251 3.153-2.833 2.34 1.625-.931 5.176-3.411 5.397-3.768.335-.542.367-.56-2.564 1.428m162.411 1.611c-.513 1.431-.855 2.679-.76 2.773.094.095.587-1.003 1.094-2.439.507-1.437.849-2.684.76-2.773-.088-.089-.581 1.009-1.094 2.439m-113.544-.248c-.715.436-1.3.879-1.3.985 0 .105.63-.18 1.4-.634.77-.454 1.4-.898 1.4-.987 0-.255-.126-.202-1.5.636m82.8 1.252c-.276 1.183-.946 3.232-1.491 4.552-.544 1.32-.985 2.67-.979 3 .013.648 1.63-3.393 2.613-6.528.333-1.061.549-2.209.481-2.553-.068-.343-.349.345-.624 1.529m-136.928.864c-6.297 3.914-6.767 4.996-6.77 15.604-.003 10.09.17 10.501 5.858 13.982.627.383 2.017 1.246 3.089 1.917 1.073.671 2.035 1.134 2.139 1.03.104-.104-.593-.582-1.549-1.062-.957-.48-2.099-1.183-2.539-1.562-.44-.378-1.65-1.173-2.689-1.765-3.551-2.025-3.911-3.175-3.909-12.491.003-10.569.457-11.638 6.498-15.317.825-.502 1.5-.989 1.5-1.081 0-.252-.086-.213-1.628.745m49.971.197a47.84 47.84 0 0 0-3.481 2.291c-1.708 1.263-4.313 2.879-10.262 6.367-4.894 2.87-6.507 5.497-4.078 6.642l.878.414-.878-.646-.878-.646.844-1.738c.706-1.452 1.4-2.058 4.201-3.666 5.325-3.058 10.225-6.148 11.311-7.133.55-.499 1.9-1.368 3-1.932 1.1-.564 1.82-1.029 1.6-1.034-.22-.005-1.236.481-2.257 1.081m116.103 5.559c-.025.477-.676 3.057-1.446 5.732-1.549 5.381-1.753 6.555-.557 3.2 1.182-3.318 2.42-8.409 2.224-9.146-.121-.454-.188-.388-.221.214m-32.177 2.888c-.148.739-.249 1.727-.225 2.194.024.468.203.04.398-.95s.296-1.977.225-2.194c-.071-.216-.25.211-.398.95m124.39.676c2.097 1.414 3.078 2.377 3.678 3.614l.819 1.685-.878.653c-.483.359-.608.527-.278.372 1.447-.677 1.54-.945.896-2.584-.603-1.535-4.382-4.751-6.373-5.424-.398-.134.564.623 2.136 1.684m-125.426 5.24c-1.284 4.514-2.018 7.58-1.993 8.328.015.44.284-.28.599-1.6s.945-3.615 1.4-5.1c.455-1.485.763-2.893.685-3.128-.079-.236-.39.439-.691 1.5m167.313 3.928c.001 2.2.068 3.049.149 1.887.081-1.163.081-2.963-.002-4-.082-1.038-.148-.087-.147 2.113M84.2 201.001c1.32 1.147 4.182 2.751 4.443 2.489.091-.09-.558-.491-1.441-.889-.884-.399-1.816-.977-2.071-1.285-.256-.308-.84-.739-1.298-.959-.534-.256-.403-.025.367.644m225-.201c-.55.43-.848.786-.663.791.185.005.794-.351 1.354-.791.559-.44.858-.796.663-.791-.195.005-.804.361-1.354.791m-96.792 3.082c-.27 1.495-1 4.248-1.622 6.118-.623 1.87-1.235 4.12-1.361 5-.126.88.195.16.712-1.6.518-1.76 1.161-3.738 1.429-4.396.579-1.421 1.757-7.414 1.506-7.665-.096-.096-.395 1.048-.664 2.543m94.292-1.253c-1.551.841-1.375 1.132.2.33 1.508-.766 1.775-.965 1.267-.943-.202.009-.862.285-1.467.613m-216.256 1.885c1.873 1.262 7.141 4.057 6.156 3.265-.44-.354-1.7-1.103-2.8-1.665-1.1-.562-2.429-1.358-2.954-1.768-.525-.41-1.135-.746-1.356-.746-.221 0 .208.411.954.914m210.841 1.239c-1.603.944-3.133 1.959-3.4 2.255-.267.296.032.217.663-.175.632-.393 2.207-1.335 3.5-2.093 1.294-.758 2.352-1.46 2.352-1.559 0-.266.04-.286-3.115 1.572m-201.667 4.024c1.2.758 3.262 1.947 4.582 2.644 1.32.697 2.94 1.667 3.6 2.156.66.49 2.82 1.766 4.8 2.836 1.98 1.071 4.4 2.451 5.378 3.067.978.616 1.958 1.12 2.177 1.12.507 0-3.288-2.295-8.052-4.868-2.033-1.099-3.801-2.167-3.929-2.375-.129-.207-1.435-.983-2.904-1.724-1.468-.741-3.633-1.996-4.81-2.79-1.177-.794-2.339-1.443-2.583-1.443-.243 0 .54.62 1.741 1.377m194.558.064c-1.307.792-3.816 2.135-5.576 2.985-4.407 2.126-12.188 6.522-13.4 7.57l-1 .865 1-.656c1.913-1.255 11.018-6.257 13.8-7.582 3.32-1.581 8.564-4.623 7.97-4.623-.229 0-1.486.648-2.794 1.441m-114.701 2.234c-.392 1.331-.643 2.49-.558 2.575.085.085.482-.927.883-2.25s.652-2.482.558-2.575c-.093-.094-.491.919-.883 2.25m169.445-1.519c-.176.306-1.22 1.088-2.32 1.738-3.445 2.033-7.141 4.506-6.736 4.506.213 0 1.586-.804 3.05-1.786 1.465-.983 3.383-2.153 4.262-2.602.878-.448 1.79-1.174 2.025-1.613.478-.893.221-1.115-.281-.243m-293.941 6.609c.293.475 7.993 5.236 8.463 5.233.197-.002-1.227-.972-3.163-2.158-1.937-1.185-3.841-2.444-4.232-2.797-.769-.696-1.434-.869-1.068-.278m281.821 1.046c-1.21.731-2.65 1.676-3.2 2.101-.55.425-1.63 1.093-2.4 1.486-1.429.728-4.262 3.002-3.74 3.002.159 0 .711-.397 1.228-.883.518-.486 1.731-1.341 2.697-1.9 4.119-2.384 7.392-4.456 7.619-4.823.316-.512.358-.531-2.204 1.017m-159.953 2.236c-.512 1.321-.848 2.485-.746 2.587.102.102.586-.914 1.075-2.258.49-1.343.826-2.507.747-2.587-.08-.079-.564.937-1.076 2.258m-54.603 2.199c.856.575 1.781 1.227 2.056 1.449.275.221.5.292.5.156 0-.344-3.233-2.651-3.716-2.651-.218 0 .304.471 1.16 1.046m148.516.205c-1.764 1.254-2.986 2.304-2.123 1.823 1.405-.782 4.583-3.074 4.263-3.074-.209 0-1.172.563-2.14 1.251m-63.291.928c-.917 2.692-.81 3.279.149.821.43-1.1.723-2.177.651-2.393-.072-.215-.432.492-.8 1.572M64.2 222.657c2.037 1.807 2.787 2.334 2.002 1.406-.436-.515-1.155-1.122-1.598-1.349-.442-.227-.624-.252-.404-.057m4.2 2.936c1.484 1.279 4.495 3.209 4.978 3.191.232-.009-.118-.304-.778-.657-.66-.352-1.83-1.124-2.6-1.716-1.789-1.376-2.913-1.95-1.6-.818m196.96.348c-5.476 4.003-5.34 3.49-5.436 20.526-.095 16.741-.038 17.133 2.476 17.133 1.855 0 3.892-.824 5.61-2.269.718-.605 2.135-1.52 3.148-2.033 1.013-.514 1.392-.822.842-.685-.55.136-1.99.927-3.2 1.758-4.032 2.767-6.719 3.373-8.018 1.807-.886-1.068-.541-29.503.38-31.287.883-1.709 3.197-4.029 5.238-5.25.77-.461 1.202-.839.96-.84-.242 0-1.142.512-2 1.14m-136.476.078c1.708.902 3.497 2.988 4.182 4.877.368 1.014.48 1.111.504.435.057-1.633-4.199-6.175-5.729-6.113-.243.009.227.37 1.043.801M322.8 227.26c-.77.675-1.038 1.045-.596.821.731-.37 2.543-2.103 2.158-2.065-.089.009-.792.569-1.562 1.244m-4.782 2.99c-1.882 1.336-2.047 1.568-.589.827.676-.343 1.463-.906 1.749-1.251.682-.821.499-.754-1.16.424m-242.618.042c.22.208 1.48.955 2.8 1.66 1.32.706 2.04.99 1.6.633-.904-.733-5.019-2.878-4.4-2.293m129.442 2.55c-.5 1.553-.838 2.895-.751 2.982.086.087.567-1.113 1.067-2.666s.838-2.895.751-2.982c-.086-.087-.567 1.113-1.067 2.666m109.858-.613c-.605.328-1.1.681-1.1.784 0 .386.632.144 1.6-.613 1.189-.93 1.011-.991-.5-.171M133.769 241c.001 4.62.059 6.455.13 4.078.071-2.377.07-6.157-.001-8.4-.071-2.243-.129-.298-.129 4.322m39.531-5.988c-1.231 3.018-1.112 3.757.138.851.552-1.285.95-2.499.883-2.697-.066-.198-.526.632-1.021 1.846m137.5-.777c-.99.563-2.16 1.358-2.6 1.766-.44.408-1.88 1.374-3.2 2.147a650.334 650.334 0 0 0-9.41 5.652c-2.793 1.703-8.79 5.839-8.79 6.061 0 .229.319.033 3.595-2.207 1.433-.98 3.055-2.086 3.605-2.458 1.277-.864 8.701-5.332 11.683-7.032 1.256-.716 2.696-1.691 3.2-2.168.504-.476 1.727-1.292 2.717-1.812.99-.521 1.62-.953 1.4-.961-.22-.007-1.21.448-2.2 1.012m-227.4.47c.22.221 1.66 1.228 3.2 2.238 1.54 1.01 3.25 2.175 3.8 2.589 1.077.811 3.6 2.177 3.6 1.95 0-.076-1.276-.936-2.836-1.91-1.56-.975-3.607-2.339-4.55-3.031-1.808-1.328-3.893-2.519-3.214-1.836m119.832 4.759c-.027.736-.708 3.124-1.806 6.336-.15.44.073.17.497-.6.9-1.637 1.843-5.35 1.546-6.089-.113-.281-.22-.122-.237.353M95.6 242.6c.745.55 1.455.999 1.578.998.377-.003-2.154-1.968-2.556-1.984-.207-.008.233.436.978.986m3.967 2.345c.533.656 2.033 1.648 2.033 1.344 0-.076-.585-.567-1.3-1.09-.804-.589-1.084-.686-.733-.254m2.466 1.604c.412.368 2.767 1.451 2.767 1.272 0-.231-2.218-1.421-2.647-1.421-.157 0-.211.067-.12.149m4.055 2.464c.598.63 1.159 1.064 1.247.966.088-.099-.402-.614-1.088-1.145l-1.247-.965 1.088 1.144m3.512 2.164c.55.466 1.81 1.317 2.8 1.891.99.575 2.52 1.5 3.4 2.056 1.071.677 1.41.781 1.025.313-.316-.385-1.486-1.155-2.6-1.713-1.114-.557-2.565-1.411-3.225-1.897-1.685-1.241-2.599-1.665-1.4-.65m173.2.623c-.922.77-1.806 1.4-1.966 1.4-.159 0-1.255.72-2.434 1.6-1.179.88-1.973 1.6-1.763 1.6.209 0 1.007-.514 1.772-1.142.765-.628 1.931-1.435 2.591-1.795 1.258-.685 4.149-3.063 3.723-3.063-.136 0-1.001.63-1.923 1.4m-115.124 3.076c-.497 1.776-.834 3.299-.748 3.385.086.086.568-1.292 1.072-3.061.504-1.769.841-3.293.748-3.385-.092-.092-.574 1.285-1.072 3.061m31.92-.176c-.002.385-.452 1.663-1 2.84-.548 1.177-.994 2.347-.991 2.6.002.253.455-.476 1.006-1.62 1.029-2.139 1.682-4.52 1.239-4.52-.137 0-.252.315-.254.7m-81.196 1.87c0 .115 1.367.959 3.037 1.876 1.67.917 3.335 1.967 3.7 2.333 2.386 2.398 4.752 3.564 6.387 3.149 1.512-.384 2.616-1.921 1.895-2.642-.12-.121-.219.089-.219.467 0 .418-.647.976-1.658 1.428l-1.658.743-1.686-1.262a416.724 416.724 0 0 1-3.043-2.3c-1.547-1.184-6.755-4.108-6.755-3.792m156.1.676c-1.283.821-1.587 1.168-1 1.14.331-.016 2.821-1.985 2.5-1.977-.11.002-.785.379-1.5.837m-110.433 12.52c-.732 2.292-1.251 4.588-1.154 5.101.168.881.181.874.233-.114.029-.576.602-2.711 1.272-4.745.671-2.033 1.166-3.857 1.1-4.054-.065-.196-.718 1.519-1.451 3.812M196 266.075c0 .297-3.474 13.963-3.794 14.925-.258.773-.25.774.22.035.58-.913 4.048-14.694 3.768-14.974-.107-.107-.194-.101-.194.014m-33.968 12.837c-.018.392-.482 1.781-1.032 3.088-1.798 4.272-1.181 7.413 1.532 7.797 3.643.515 24.021.42 25.544-.12 1.472-.522 3.544-3.622 3.512-5.256-.007-.341-.412.369-.9 1.579-1.515 3.755-1.798 3.821-15.822 3.693-15.435-.142-15.955-.426-13.489-7.367.605-1.703 1.007-3.327.893-3.611-.129-.321-.219-.247-.238.197" fill="#fcbc88"/></g></svg>